%FSLAX33Y33*%
%MOMM*%
%AMRect-W3100000-H3100000-RO1.500*
21,1,3.1,3.1,0.,0.,90*%
%ADD10C,0.68834*%
%ADD11R,2.049999X2.049999*%
%ADD12C,2.049999*%
%ADD13C,3.1*%
%ADD14Rect-W3100000-H3100000-RO1.500*%
D10*
%LNbottom solder mask_traces*%
G01*
X1500Y1500D03*
X13500Y98500D03*
X7500Y98500D03*
X5500Y1500D03*
X3500Y98500D03*
X13500Y1500D03*
X3500Y1500D03*
X5500Y98500D03*
X7500Y1500D03*
X1500Y98500D03*
X11500Y98500D03*
X11500Y1500D03*
X9500Y98500D03*
X9500Y1500D03*
%LNbottom solder mask component 87c3aa100626532f*%
D11*
X6230Y58890D03*
D12*
X6230Y56350D03*
X6230Y53810D03*
X6230Y51270D03*
X6230Y48730D03*
X6230Y46190D03*
X6230Y43650D03*
X6230Y41110D03*
X8770Y58890D03*
X8770Y56350D03*
X8770Y53810D03*
X8770Y51270D03*
X8770Y48730D03*
X8770Y46190D03*
X8770Y43650D03*
X8770Y41110D03*
%LNbottom solder mask component c4a17d9daec634e0*%
D13*
X7600Y90000D03*
X1800Y90000D03*
D14*
X12900Y90000D03*
%LNbottom solder mask component 7181846da7d0c534*%
D13*
X7600Y75000D03*
X1800Y75000D03*
D14*
X12900Y75000D03*
%LNbottom solder mask component 4f4feb6d3cd8b477*%
D13*
X7600Y25000D03*
X1800Y25000D03*
D14*
X12900Y25000D03*
%LNbottom solder mask component 0fe11ed52ced882b*%
D13*
X7600Y10000D03*
X1800Y10000D03*
D14*
X12900Y10000D03*
M02*