%FSLAX33Y33*%
%MOMM*%
%ADD10C,0.3302*%
%ADD11C,1.35*%
%ADD12C,2.5*%
D10*
%LNhole_traces*%
G01*
X1500Y1500D03*
X13500Y98500D03*
X7500Y98500D03*
X5500Y1500D03*
X3500Y98500D03*
X13500Y1500D03*
X3500Y1500D03*
X5500Y98500D03*
X7500Y1500D03*
X1500Y98500D03*
X11500Y98500D03*
X11500Y1500D03*
X9500Y98500D03*
X9500Y1500D03*
%LNhole component 87c3aa100626532f*%
D11*
X6230Y58890D03*
X6230Y56350D03*
X6230Y53810D03*
X6230Y51270D03*
X6230Y48730D03*
X6230Y46190D03*
X6230Y43650D03*
X6230Y41110D03*
X8770Y58890D03*
X8770Y56350D03*
X8770Y53810D03*
X8770Y51270D03*
X8770Y48730D03*
X8770Y46190D03*
X8770Y43650D03*
X8770Y41110D03*
%LNhole component c4a17d9daec634e0*%
D12*
X12900Y90000D03*
X7600Y90000D03*
X1800Y90000D03*
%LNhole component 7181846da7d0c534*%
X12900Y75000D03*
X7600Y75000D03*
X1800Y75000D03*
%LNhole component 4f4feb6d3cd8b477*%
X12900Y25000D03*
X7600Y25000D03*
X1800Y25000D03*
%LNhole component 0fe11ed52ced882b*%
X12900Y10000D03*
X7600Y10000D03*
X1800Y10000D03*
M02*