%FSLAX33Y33*%
%MOMM*%
%LNbottom silkscreen_traces*%
%LNtext*%
G36*
G01*
X12500Y38738D02*
X13574Y38738D01*
X13574Y39514D01*
X13447Y39514D01*
X13447Y38880D01*
X13118Y38880D01*
X13118Y39474D01*
X12992Y39474D01*
X12992Y38880D01*
X12627Y38880D01*
X12627Y39539D01*
X12500Y39539D01*
X12500Y38738D01*
X12500Y38738D01*
X12500Y40228D02*
X12614Y40228D01*
X12557Y40179D01*
X12515Y40121D01*
X12491Y40055D01*
X12482Y39981D01*
X12484Y39947D01*
X12489Y39915D01*
X12497Y39883D01*
X12509Y39853D01*
X12523Y39825D01*
X12539Y39801D01*
X12556Y39780D01*
X12575Y39764D01*
X12596Y39751D01*
X12619Y39739D01*
X12645Y39730D01*
X12673Y39723D01*
X12695Y39720D01*
X12723Y39717D01*
X12757Y39716D01*
X12796Y39715D01*
X13278Y39715D01*
X13278Y39847D01*
X12846Y39847D01*
X12799Y39848D01*
X12760Y39849D01*
X12729Y39852D01*
X12707Y39855D01*
X12683Y39863D01*
X12661Y39875D01*
X12642Y39890D01*
X12626Y39908D01*
X12613Y39929D01*
X12603Y39953D01*
X12598Y39979D01*
X12596Y40008D01*
X12598Y40037D01*
X12604Y40065D01*
X12613Y40092D01*
X12626Y40119D01*
X12643Y40143D01*
X12662Y40163D01*
X12684Y40180D01*
X12709Y40193D01*
X12738Y40202D01*
X12773Y40209D01*
X12814Y40213D01*
X12861Y40214D01*
X13278Y40214D01*
X13278Y40346D01*
X12500Y40346D01*
X12500Y40228D01*
X12500Y40228D01*
X12500Y40551D02*
X13278Y40551D01*
X13278Y40670D01*
X13160Y40670D01*
X13198Y40692D01*
X13229Y40713D01*
X13252Y40734D01*
X13269Y40754D01*
X13281Y40773D01*
X13289Y40794D01*
X13294Y40816D01*
X13295Y40838D01*
X13293Y40872D01*
X13285Y40905D01*
X13272Y40939D01*
X13253Y40974D01*
X13131Y40928D01*
X13143Y40904D01*
X13152Y40880D01*
X13157Y40856D01*
X13159Y40832D01*
X13158Y40811D01*
X13153Y40791D01*
X13145Y40772D01*
X13133Y40754D01*
X13119Y40738D01*
X13102Y40724D01*
X13083Y40713D01*
X13061Y40705D01*
X13025Y40695D01*
X12987Y40688D01*
X12948Y40684D01*
X12907Y40683D01*
X12500Y40683D01*
X12500Y40551D01*
X12500Y40551D01*
X12889Y41003D02*
X12990Y41010D01*
X13077Y41033D01*
X13150Y41071D01*
X13209Y41123D01*
X13247Y41176D01*
X13274Y41234D01*
X13290Y41298D01*
X13295Y41368D01*
X13289Y41444D01*
X13269Y41513D01*
X13236Y41575D01*
X13190Y41630D01*
X13133Y41674D01*
X13065Y41706D01*
X12988Y41725D01*
X12900Y41732D01*
X12829Y41729D01*
X12766Y41720D01*
X12711Y41706D01*
X12664Y41687D01*
X12623Y41662D01*
X12587Y41631D01*
X12556Y41596D01*
X12530Y41556D01*
X12509Y41512D01*
X12494Y41466D01*
X12485Y41418D01*
X12482Y41368D01*
X12483Y41359D01*
X12591Y41368D01*
X12595Y41415D01*
X12609Y41458D01*
X12633Y41496D01*
X12666Y41531D01*
X12708Y41560D01*
X12760Y41580D01*
X12822Y41592D01*
X12893Y41596D01*
X12961Y41592D01*
X13020Y41580D01*
X13070Y41559D01*
X13112Y41531D01*
X13144Y41496D01*
X13168Y41457D01*
X13182Y41414D01*
X13186Y41368D01*
X13182Y41320D01*
X13168Y41277D01*
X13145Y41238D01*
X13112Y41204D01*
X13071Y41175D01*
X13019Y41155D01*
X12959Y41143D01*
X12889Y41138D01*
X12889Y41138D01*
X12819Y41143D01*
X12758Y41155D01*
X12707Y41175D01*
X12665Y41204D01*
X12633Y41238D01*
X12609Y41277D01*
X12595Y41320D01*
X12591Y41368D01*
X12483Y41359D01*
X12489Y41290D01*
X12509Y41220D01*
X12541Y41158D01*
X12587Y41104D01*
X12645Y41060D01*
X12715Y41028D01*
X12796Y41009D01*
X12889Y41003D01*
X12889Y41003D01*
X12500Y41885D02*
X13278Y41885D01*
X13278Y42003D01*
X13160Y42003D01*
X13198Y42026D01*
X13229Y42047D01*
X13252Y42068D01*
X13269Y42087D01*
X13281Y42107D01*
X13289Y42128D01*
X13294Y42149D01*
X13295Y42172D01*
X13293Y42205D01*
X13285Y42239D01*
X13272Y42273D01*
X13253Y42307D01*
X13131Y42262D01*
X13143Y42238D01*
X13152Y42214D01*
X13157Y42189D01*
X13159Y42165D01*
X13158Y42144D01*
X13153Y42124D01*
X13145Y42105D01*
X13133Y42088D01*
X13119Y42072D01*
X13102Y42058D01*
X13083Y42047D01*
X13061Y42039D01*
X13025Y42029D01*
X12987Y42022D01*
X12948Y42018D01*
X12907Y42017D01*
X12500Y42017D01*
X12500Y41885D01*
X12500Y41885D01*
X12596Y42893D02*
X12567Y42857D01*
X12564Y42852D01*
X12637Y42802D01*
X12658Y42825D01*
X12683Y42845D01*
X12710Y42861D01*
X12735Y42870D01*
X12766Y42877D01*
X12801Y42881D01*
X12842Y42882D01*
X12890Y42882D01*
X12890Y42882D01*
X12876Y42842D01*
X12863Y42793D01*
X12851Y42734D01*
X12841Y42667D01*
X12835Y42629D01*
X12828Y42598D01*
X12821Y42572D01*
X12814Y42552D01*
X12806Y42536D01*
X12796Y42522D01*
X12785Y42510D01*
X12771Y42500D01*
X12757Y42492D01*
X12742Y42486D01*
X12726Y42483D01*
X12709Y42482D01*
X12683Y42484D01*
X12660Y42492D01*
X12640Y42504D01*
X12621Y42522D01*
X12605Y42544D01*
X12594Y42571D01*
X12588Y42602D01*
X12586Y42638D01*
X12588Y42675D01*
X12594Y42710D01*
X12604Y42743D01*
X12619Y42774D01*
X12637Y42802D01*
X12564Y42852D01*
X12543Y42821D01*
X12523Y42787D01*
X12508Y42752D01*
X12497Y42718D01*
X12489Y42682D01*
X12484Y42645D01*
X12482Y42607D01*
X12486Y42547D01*
X12498Y42494D01*
X12518Y42448D01*
X12545Y42410D01*
X12579Y42380D01*
X12616Y42358D01*
X12659Y42345D01*
X12705Y42341D01*
X12733Y42343D01*
X12760Y42348D01*
X12785Y42356D01*
X12809Y42367D01*
X12832Y42381D01*
X12852Y42397D01*
X12870Y42415D01*
X12885Y42435D01*
X12899Y42457D01*
X12910Y42480D01*
X12920Y42504D01*
X12928Y42530D01*
X12934Y42552D01*
X12939Y42579D01*
X12943Y42611D01*
X12948Y42647D01*
X12958Y42722D01*
X12969Y42786D01*
X12981Y42839D01*
X12994Y42882D01*
X13006Y42883D01*
X13016Y42883D01*
X13023Y42883D01*
X13028Y42883D01*
X13065Y42881D01*
X13097Y42874D01*
X13122Y42862D01*
X13142Y42846D01*
X13161Y42817D01*
X13175Y42783D01*
X13183Y42742D01*
X13186Y42696D01*
X13184Y42652D01*
X13178Y42615D01*
X13168Y42583D01*
X13154Y42558D01*
X13134Y42538D01*
X13109Y42520D01*
X13077Y42505D01*
X13038Y42493D01*
X13056Y42364D01*
X13095Y42374D01*
X13131Y42387D01*
X13162Y42403D01*
X13190Y42422D01*
X13214Y42444D01*
X13235Y42471D01*
X13253Y42502D01*
X13268Y42538D01*
X13280Y42578D01*
X13289Y42620D01*
X13294Y42666D01*
X13295Y42715D01*
X13294Y42762D01*
X13290Y42805D01*
X13282Y42843D01*
X13272Y42876D01*
X13259Y42906D01*
X13246Y42930D01*
X13230Y42951D01*
X13213Y42968D01*
X13194Y42982D01*
X13173Y42993D01*
X13149Y43002D01*
X13123Y43009D01*
X13103Y43012D01*
X13076Y43014D01*
X13042Y43015D01*
X13002Y43016D01*
X12826Y43016D01*
X12742Y43016D01*
X12676Y43018D01*
X12626Y43020D01*
X12593Y43024D01*
X12569Y43029D01*
X12546Y43037D01*
X12523Y43046D01*
X12500Y43057D01*
X12500Y42920D01*
X12521Y42910D01*
X12544Y42903D01*
X12569Y42897D01*
X12596Y42893D01*
X12596Y42893D01*
X12785Y43728D02*
X12768Y43857D01*
X12705Y43842D01*
X12649Y43819D01*
X12600Y43788D01*
X12558Y43748D01*
X12525Y43702D01*
X12501Y43651D01*
X12487Y43595D01*
X12482Y43533D01*
X12489Y43458D01*
X12509Y43389D01*
X12541Y43329D01*
X12587Y43277D01*
X12645Y43234D01*
X12714Y43204D01*
X12794Y43186D01*
X12886Y43180D01*
X12947Y43182D01*
X13004Y43190D01*
X13057Y43203D01*
X13106Y43221D01*
X13151Y43245D01*
X13189Y43274D01*
X13222Y43309D01*
X13248Y43349D01*
X13269Y43392D01*
X13284Y43438D01*
X13292Y43485D01*
X13295Y43534D01*
X13291Y43595D01*
X13279Y43649D01*
X13259Y43698D01*
X13231Y43741D01*
X13196Y43778D01*
X13154Y43808D01*
X13105Y43830D01*
X13049Y43845D01*
X13030Y43717D01*
X13066Y43706D01*
X13098Y43691D01*
X13125Y43673D01*
X13147Y43652D01*
X13165Y43627D01*
X13177Y43600D01*
X13185Y43571D01*
X13187Y43539D01*
X13183Y43492D01*
X13169Y43449D01*
X13147Y43411D01*
X13116Y43377D01*
X13075Y43350D01*
X13023Y43331D01*
X12962Y43319D01*
X12890Y43315D01*
X12817Y43319D01*
X12754Y43330D01*
X12703Y43349D01*
X12662Y43375D01*
X12631Y43408D01*
X12609Y43444D01*
X12595Y43486D01*
X12591Y43532D01*
X12594Y43569D01*
X12603Y43603D01*
X12618Y43634D01*
X12638Y43662D01*
X12665Y43685D01*
X12699Y43704D01*
X12739Y43718D01*
X12785Y43728D01*
X12785Y43728D01*
X12500Y43971D02*
X13574Y43971D01*
X13574Y44103D01*
X12961Y44103D01*
X13278Y44415D01*
X13278Y44585D01*
X12989Y44288D01*
X12500Y44615D01*
X12500Y44453D01*
X12898Y44196D01*
X12808Y44103D01*
X12500Y44103D01*
X12500Y43971D01*
X12500Y43971D01*
X12876Y45920D02*
X12841Y46062D01*
X12758Y46035D01*
X12686Y45999D01*
X12625Y45955D01*
X12574Y45901D01*
X12533Y45840D01*
X12505Y45772D01*
X12487Y45698D01*
X12482Y45617D01*
X12486Y45535D01*
X12499Y45460D01*
X12521Y45393D01*
X12552Y45335D01*
X12592Y45284D01*
X12639Y45239D01*
X12694Y45201D01*
X12757Y45169D01*
X12825Y45145D01*
X12896Y45127D01*
X12969Y45116D01*
X13045Y45113D01*
X13126Y45117D01*
X13202Y45129D01*
X13272Y45149D01*
X13338Y45177D01*
X13396Y45212D01*
X13447Y45254D01*
X13491Y45303D01*
X13527Y45359D01*
X13556Y45420D01*
X13576Y45483D01*
X13588Y45550D01*
X13592Y45619D01*
X13587Y45697D01*
X13572Y45768D01*
X13546Y45832D01*
X13510Y45890D01*
X13465Y45941D01*
X13411Y45984D01*
X13349Y46018D01*
X13279Y46044D01*
X13246Y45904D01*
X13301Y45883D01*
X13348Y45858D01*
X13386Y45829D01*
X13417Y45795D01*
X13440Y45757D01*
X13457Y45715D01*
X13467Y45668D01*
X13470Y45617D01*
X13467Y45557D01*
X13456Y45503D01*
X13437Y45454D01*
X13411Y45410D01*
X13379Y45371D01*
X13342Y45339D01*
X13299Y45313D01*
X13252Y45293D01*
X13201Y45278D01*
X13150Y45268D01*
X13098Y45261D01*
X13046Y45259D01*
X12979Y45262D01*
X12917Y45269D01*
X12860Y45282D01*
X12807Y45299D01*
X12759Y45322D01*
X12717Y45350D01*
X12682Y45384D01*
X12654Y45423D01*
X12632Y45466D01*
X12616Y45511D01*
X12606Y45557D01*
X12603Y45606D01*
X12608Y45663D01*
X12620Y45716D01*
X12642Y45764D01*
X12672Y45808D01*
X12711Y45846D01*
X12758Y45877D01*
X12813Y45902D01*
X12876Y45920D01*
X12876Y45920D01*
X12500Y46544D02*
X13574Y46128D01*
X13574Y46282D01*
X12794Y46561D01*
X12748Y46577D01*
X12703Y46592D01*
X12660Y46605D01*
X12618Y46617D01*
X12662Y46630D01*
X12706Y46644D01*
X12750Y46659D01*
X12794Y46675D01*
X13574Y46965D01*
X13574Y47110D01*
X12500Y46690D01*
X12500Y46544D01*
X12500Y46544D01*
X12482Y47122D02*
X13592Y47433D01*
X13592Y47538D01*
X12482Y47228D01*
X12482Y47122D01*
X12482Y47122D01*
X12921Y48157D02*
X13047Y48157D01*
X13048Y48611D01*
X12649Y48611D01*
X12610Y48559D01*
X12576Y48505D01*
X12547Y48451D01*
X12524Y48395D01*
X12505Y48339D01*
X12492Y48283D01*
X12484Y48225D01*
X12482Y48167D01*
X12486Y48090D01*
X12499Y48016D01*
X12520Y47946D01*
X12549Y47879D01*
X12587Y47819D01*
X12632Y47766D01*
X12685Y47721D01*
X12745Y47684D01*
X12811Y47655D01*
X12881Y47635D01*
X12955Y47622D01*
X13032Y47618D01*
X13109Y47622D01*
X13183Y47635D01*
X13255Y47655D01*
X13324Y47684D01*
X13388Y47720D01*
X13443Y47764D01*
X13489Y47815D01*
X13526Y47872D01*
X13555Y47936D01*
X13576Y48005D01*
X13588Y48078D01*
X13592Y48156D01*
X13590Y48213D01*
X13583Y48267D01*
X13571Y48318D01*
X13554Y48366D01*
X13534Y48411D01*
X13509Y48450D01*
X13481Y48485D01*
X13449Y48514D01*
X13413Y48539D01*
X13372Y48561D01*
X13325Y48580D01*
X13273Y48595D01*
X13238Y48467D01*
X13277Y48454D01*
X13312Y48440D01*
X13342Y48424D01*
X13367Y48407D01*
X13389Y48387D01*
X13409Y48364D01*
X13427Y48336D01*
X13442Y48305D01*
X13455Y48270D01*
X13463Y48234D01*
X13469Y48196D01*
X13470Y48157D01*
X13469Y48110D01*
X13463Y48066D01*
X13454Y48025D01*
X13441Y47988D01*
X13425Y47954D01*
X13406Y47924D01*
X13386Y47897D01*
X13363Y47874D01*
X13338Y47853D01*
X13312Y47835D01*
X13285Y47819D01*
X13257Y47806D01*
X13206Y47788D01*
X13153Y47775D01*
X13098Y47767D01*
X13041Y47765D01*
X12972Y47768D01*
X12909Y47777D01*
X12852Y47793D01*
X12800Y47814D01*
X12755Y47842D01*
X12716Y47875D01*
X12683Y47914D01*
X12657Y47958D01*
X12636Y48006D01*
X12622Y48056D01*
X12613Y48106D01*
X12610Y48159D01*
X12612Y48205D01*
X12619Y48250D01*
X12630Y48295D01*
X12645Y48339D01*
X12663Y48380D01*
X12682Y48416D01*
X12701Y48447D01*
X12721Y48472D01*
X12921Y48472D01*
X12921Y48157D01*
X12921Y48157D01*
X12596Y49312D02*
X12567Y49275D01*
X12564Y49270D01*
X12637Y49220D01*
X12658Y49244D01*
X12683Y49264D01*
X12710Y49279D01*
X12735Y49289D01*
X12766Y49295D01*
X12801Y49299D01*
X12842Y49301D01*
X12890Y49301D01*
X12890Y49301D01*
X12876Y49260D01*
X12863Y49211D01*
X12851Y49153D01*
X12841Y49085D01*
X12835Y49048D01*
X12828Y49016D01*
X12821Y48990D01*
X12814Y48970D01*
X12806Y48954D01*
X12796Y48941D01*
X12785Y48928D01*
X12771Y48918D01*
X12757Y48910D01*
X12742Y48905D01*
X12726Y48901D01*
X12709Y48900D01*
X12683Y48903D01*
X12660Y48910D01*
X12640Y48923D01*
X12621Y48940D01*
X12605Y48962D01*
X12594Y48989D01*
X12588Y49021D01*
X12586Y49057D01*
X12588Y49094D01*
X12594Y49129D01*
X12604Y49162D01*
X12619Y49192D01*
X12637Y49220D01*
X12564Y49270D01*
X12543Y49240D01*
X12523Y49205D01*
X12508Y49171D01*
X12497Y49136D01*
X12489Y49100D01*
X12484Y49064D01*
X12482Y49025D01*
X12486Y48965D01*
X12498Y48912D01*
X12518Y48866D01*
X12545Y48828D01*
X12579Y48798D01*
X12616Y48777D01*
X12659Y48764D01*
X12705Y48759D01*
X12733Y48761D01*
X12760Y48766D01*
X12785Y48774D01*
X12809Y48785D01*
X12832Y48799D01*
X12852Y48815D01*
X12870Y48833D01*
X12885Y48854D01*
X12899Y48875D01*
X12910Y48898D01*
X12920Y48923D01*
X12928Y48948D01*
X12934Y48970D01*
X12939Y48997D01*
X12943Y49029D01*
X12948Y49066D01*
X12958Y49140D01*
X12969Y49204D01*
X12981Y49258D01*
X12994Y49301D01*
X13006Y49301D01*
X13016Y49301D01*
X13023Y49301D01*
X13028Y49301D01*
X13065Y49299D01*
X13097Y49292D01*
X13122Y49280D01*
X13142Y49264D01*
X13161Y49236D01*
X13175Y49201D01*
X13183Y49161D01*
X13186Y49114D01*
X13184Y49070D01*
X13178Y49033D01*
X13168Y49002D01*
X13154Y48977D01*
X13134Y48956D01*
X13109Y48938D01*
X13077Y48923D01*
X13038Y48911D01*
X13056Y48782D01*
X13095Y48792D01*
X13131Y48805D01*
X13162Y48821D01*
X13190Y48840D01*
X13214Y48862D01*
X13235Y48889D01*
X13253Y48921D01*
X13268Y48956D01*
X13280Y48996D01*
X13289Y49039D01*
X13294Y49084D01*
X13295Y49133D01*
X13294Y49180D01*
X13290Y49223D01*
X13282Y49261D01*
X13272Y49295D01*
X13259Y49324D01*
X13246Y49349D01*
X13230Y49370D01*
X13213Y49386D01*
X13194Y49400D01*
X13173Y49411D01*
X13149Y49420D01*
X13123Y49427D01*
X13103Y49430D01*
X13076Y49432D01*
X13042Y49434D01*
X13002Y49434D01*
X12826Y49434D01*
X12742Y49435D01*
X12676Y49436D01*
X12626Y49439D01*
X12593Y49442D01*
X12569Y49448D01*
X12546Y49455D01*
X12523Y49464D01*
X12500Y49476D01*
X12500Y49338D01*
X12521Y49329D01*
X12544Y49321D01*
X12569Y49316D01*
X12596Y49312D01*
X12596Y49312D01*
X12618Y49926D02*
X12501Y49945D01*
X12496Y49918D01*
X12493Y49892D01*
X12490Y49868D01*
X12490Y49846D01*
X12491Y49812D01*
X12495Y49782D01*
X12503Y49756D01*
X12512Y49734D01*
X12525Y49716D01*
X12539Y49701D01*
X12555Y49688D01*
X12572Y49679D01*
X12596Y49672D01*
X12630Y49667D01*
X12674Y49664D01*
X12728Y49663D01*
X13175Y49663D01*
X13175Y49566D01*
X13278Y49566D01*
X13278Y49663D01*
X13470Y49663D01*
X13550Y49794D01*
X13278Y49794D01*
X13278Y49926D01*
X13175Y49926D01*
X13175Y49794D01*
X12720Y49794D01*
X12695Y49794D01*
X12674Y49795D01*
X12659Y49798D01*
X12648Y49801D01*
X12640Y49805D01*
X12633Y49810D01*
X12627Y49816D01*
X12622Y49823D01*
X12618Y49832D01*
X12615Y49842D01*
X12613Y49855D01*
X12613Y49868D01*
X12613Y49880D01*
X12614Y49894D01*
X12616Y49909D01*
X12618Y49926D01*
X12618Y49926D01*
X12750Y50588D02*
X12734Y50724D01*
X12677Y50704D01*
X12628Y50678D01*
X12585Y50645D01*
X12548Y50604D01*
X12520Y50558D01*
X12499Y50505D01*
X12487Y50446D01*
X12482Y50382D01*
X12489Y50301D01*
X12509Y50229D01*
X12542Y50166D01*
X12588Y50111D01*
X12645Y50067D01*
X12714Y50036D01*
X12793Y50017D01*
X12882Y50011D01*
X12975Y50017D01*
X13057Y50036D01*
X13127Y50068D01*
X13187Y50112D01*
X13234Y50167D01*
X13268Y50228D01*
X13289Y50298D01*
X13295Y50374D01*
X13294Y50385D01*
X13187Y50376D01*
X13183Y50332D01*
X13172Y50292D01*
X13153Y50256D01*
X13126Y50223D01*
X13093Y50196D01*
X13055Y50175D01*
X13012Y50161D01*
X12964Y50155D01*
X12964Y50155D01*
X12964Y50589D01*
X13010Y50583D01*
X13049Y50572D01*
X13083Y50558D01*
X13111Y50539D01*
X13144Y50505D01*
X13168Y50467D01*
X13182Y50424D01*
X13187Y50376D01*
X13294Y50385D01*
X13289Y50449D01*
X13269Y50516D01*
X13236Y50576D01*
X13189Y50629D01*
X13131Y50673D01*
X13061Y50703D01*
X12981Y50722D01*
X12890Y50728D01*
X12884Y50728D01*
X12876Y50728D01*
X12866Y50728D01*
X12855Y50727D01*
X12855Y50147D01*
X12795Y50155D01*
X12742Y50169D01*
X12697Y50191D01*
X12659Y50220D01*
X12629Y50254D01*
X12608Y50293D01*
X12595Y50336D01*
X12591Y50382D01*
X12593Y50417D01*
X12600Y50450D01*
X12612Y50479D01*
X12629Y50506D01*
X12651Y50531D01*
X12678Y50552D01*
X12712Y50571D01*
X12750Y50588D01*
X12750Y50588D01*
X12500Y51428D02*
X12500Y51305D01*
X13574Y51305D01*
X13574Y51437D01*
X13191Y51437D01*
X13236Y51482D01*
X13269Y51532D01*
X13289Y51588D01*
X13295Y51650D01*
X13294Y51686D01*
X13288Y51720D01*
X13279Y51754D01*
X13266Y51786D01*
X13251Y51817D01*
X13232Y51845D01*
X13210Y51870D01*
X13185Y51892D01*
X13158Y51911D01*
X13127Y51929D01*
X13094Y51944D01*
X13059Y51956D01*
X13021Y51967D01*
X12982Y51974D01*
X12942Y51978D01*
X12901Y51980D01*
X12806Y51974D01*
X12723Y51955D01*
X12652Y51924D01*
X12592Y51881D01*
X12544Y51829D01*
X12510Y51772D01*
X12489Y51710D01*
X12482Y51644D01*
X12490Y51579D01*
X12511Y51521D01*
X12547Y51471D01*
X12592Y51432D01*
X12648Y51498D01*
X12616Y51538D01*
X12597Y51582D01*
X12591Y51633D01*
X12596Y51674D01*
X12610Y51713D01*
X12633Y51749D01*
X12666Y51782D01*
X12708Y51810D01*
X12759Y51829D01*
X12820Y51841D01*
X12890Y51845D01*
X12961Y51841D01*
X13022Y51830D01*
X13073Y51811D01*
X13115Y51785D01*
X13146Y51753D01*
X13169Y51718D01*
X13182Y51680D01*
X13187Y51639D01*
X13182Y51597D01*
X13168Y51558D01*
X13145Y51522D01*
X13112Y51489D01*
X13070Y51462D01*
X13020Y51442D01*
X12962Y51430D01*
X12895Y51426D01*
X12895Y51426D01*
X12830Y51429D01*
X12774Y51436D01*
X12729Y51448D01*
X12693Y51464D01*
X12648Y51498D01*
X12592Y51432D01*
X12597Y51428D01*
X12500Y51428D01*
X12500Y51428D01*
X12500Y52139D02*
X13278Y52139D01*
X13278Y52257D01*
X13160Y52257D01*
X13198Y52280D01*
X13229Y52301D01*
X13252Y52322D01*
X13269Y52341D01*
X13281Y52361D01*
X13289Y52382D01*
X13294Y52403D01*
X13295Y52426D01*
X13293Y52459D01*
X13285Y52493D01*
X13272Y52527D01*
X13253Y52561D01*
X13131Y52516D01*
X13143Y52492D01*
X13152Y52468D01*
X13157Y52444D01*
X13159Y52419D01*
X13158Y52398D01*
X13153Y52378D01*
X13145Y52359D01*
X13133Y52342D01*
X13119Y52326D01*
X13102Y52312D01*
X13083Y52301D01*
X13061Y52293D01*
X13025Y52283D01*
X12987Y52276D01*
X12948Y52272D01*
X12907Y52271D01*
X12500Y52271D01*
X12500Y52139D01*
X12500Y52139D01*
X12750Y53172D02*
X12734Y53308D01*
X12677Y53289D01*
X12628Y53263D01*
X12585Y53229D01*
X12548Y53189D01*
X12520Y53143D01*
X12499Y53090D01*
X12487Y53031D01*
X12482Y52966D01*
X12489Y52886D01*
X12509Y52813D01*
X12542Y52750D01*
X12588Y52696D01*
X12645Y52652D01*
X12714Y52621D01*
X12793Y52602D01*
X12882Y52596D01*
X12975Y52602D01*
X13057Y52621D01*
X13127Y52653D01*
X13187Y52697D01*
X13234Y52751D01*
X13268Y52813D01*
X13289Y52882D01*
X13295Y52959D01*
X13294Y52970D01*
X13187Y52961D01*
X13183Y52917D01*
X13172Y52877D01*
X13153Y52841D01*
X13126Y52808D01*
X13093Y52780D01*
X13055Y52760D01*
X13012Y52746D01*
X12964Y52739D01*
X12964Y52739D01*
X12964Y53174D01*
X13010Y53167D01*
X13049Y53157D01*
X13083Y53142D01*
X13111Y53124D01*
X13144Y53090D01*
X13168Y53052D01*
X13182Y53008D01*
X13187Y52961D01*
X13294Y52970D01*
X13289Y53034D01*
X13269Y53101D01*
X13236Y53161D01*
X13189Y53214D01*
X13131Y53257D01*
X13061Y53288D01*
X12981Y53307D01*
X12890Y53313D01*
X12884Y53313D01*
X12876Y53313D01*
X12866Y53312D01*
X12855Y53312D01*
X12855Y52732D01*
X12795Y52739D01*
X12742Y52754D01*
X12697Y52776D01*
X12659Y52805D01*
X12629Y52839D01*
X12608Y52878D01*
X12595Y52920D01*
X12591Y52967D01*
X12593Y53002D01*
X12600Y53034D01*
X12612Y53064D01*
X12629Y53091D01*
X12651Y53115D01*
X12678Y53137D01*
X12712Y53156D01*
X12750Y53172D01*
X12750Y53172D01*
X12596Y53982D02*
X12567Y53945D01*
X12564Y53940D01*
X12637Y53890D01*
X12658Y53914D01*
X12683Y53933D01*
X12710Y53949D01*
X12735Y53959D01*
X12766Y53965D01*
X12801Y53969D01*
X12842Y53971D01*
X12890Y53971D01*
X12890Y53971D01*
X12876Y53930D01*
X12863Y53881D01*
X12851Y53823D01*
X12841Y53755D01*
X12835Y53718D01*
X12828Y53686D01*
X12821Y53660D01*
X12814Y53640D01*
X12806Y53624D01*
X12796Y53610D01*
X12785Y53598D01*
X12771Y53588D01*
X12757Y53580D01*
X12742Y53575D01*
X12726Y53571D01*
X12709Y53570D01*
X12683Y53572D01*
X12660Y53580D01*
X12640Y53592D01*
X12621Y53610D01*
X12605Y53632D01*
X12594Y53659D01*
X12588Y53691D01*
X12586Y53727D01*
X12588Y53764D01*
X12594Y53799D01*
X12604Y53831D01*
X12619Y53862D01*
X12637Y53890D01*
X12564Y53940D01*
X12543Y53910D01*
X12523Y53875D01*
X12508Y53841D01*
X12497Y53806D01*
X12489Y53770D01*
X12484Y53733D01*
X12482Y53695D01*
X12486Y53635D01*
X12498Y53582D01*
X12518Y53536D01*
X12545Y53498D01*
X12579Y53468D01*
X12616Y53447D01*
X12659Y53434D01*
X12705Y53429D01*
X12733Y53431D01*
X12760Y53436D01*
X12785Y53444D01*
X12809Y53455D01*
X12832Y53469D01*
X12852Y53485D01*
X12870Y53503D01*
X12885Y53523D01*
X12899Y53545D01*
X12910Y53568D01*
X12920Y53593D01*
X12928Y53618D01*
X12934Y53640D01*
X12939Y53667D01*
X12943Y53699D01*
X12948Y53736D01*
X12958Y53810D01*
X12969Y53874D01*
X12981Y53928D01*
X12994Y53971D01*
X13006Y53971D01*
X13016Y53971D01*
X13023Y53971D01*
X13028Y53971D01*
X13065Y53969D01*
X13097Y53962D01*
X13122Y53950D01*
X13142Y53934D01*
X13161Y53906D01*
X13175Y53871D01*
X13183Y53831D01*
X13186Y53784D01*
X13184Y53740D01*
X13178Y53703D01*
X13168Y53672D01*
X13154Y53647D01*
X13134Y53626D01*
X13109Y53608D01*
X13077Y53593D01*
X13038Y53581D01*
X13056Y53452D01*
X13095Y53462D01*
X13131Y53475D01*
X13162Y53491D01*
X13190Y53510D01*
X13214Y53532D01*
X13235Y53559D01*
X13253Y53591D01*
X13268Y53626D01*
X13280Y53666D01*
X13289Y53709D01*
X13294Y53754D01*
X13295Y53803D01*
X13294Y53850D01*
X13290Y53893D01*
X13282Y53931D01*
X13272Y53965D01*
X13259Y53994D01*
X13246Y54019D01*
X13230Y54040D01*
X13213Y54056D01*
X13194Y54070D01*
X13173Y54081D01*
X13149Y54090D01*
X13123Y54097D01*
X13103Y54100D01*
X13076Y54102D01*
X13042Y54103D01*
X13002Y54104D01*
X12826Y54104D01*
X12742Y54104D01*
X12676Y54106D01*
X12626Y54109D01*
X12593Y54112D01*
X12569Y54118D01*
X12546Y54125D01*
X12523Y54134D01*
X12500Y54146D01*
X12500Y54008D01*
X12521Y53999D01*
X12544Y53991D01*
X12569Y53985D01*
X12596Y53982D01*
X12596Y53982D01*
X12500Y54309D02*
X13574Y54309D01*
X13574Y54441D01*
X12961Y54441D01*
X13278Y54753D01*
X13278Y54924D01*
X12989Y54626D01*
X12500Y54954D01*
X12500Y54791D01*
X12898Y54534D01*
X12808Y54441D01*
X12500Y54441D01*
X12500Y54309D01*
X12500Y54309D01*
X12889Y55009D02*
X12990Y55017D01*
X13077Y55039D01*
X13150Y55077D01*
X13209Y55129D01*
X13247Y55182D01*
X13274Y55241D01*
X13290Y55305D01*
X13295Y55374D01*
X13289Y55451D01*
X13269Y55520D01*
X13236Y55582D01*
X13190Y55636D01*
X13133Y55681D01*
X13065Y55713D01*
X12988Y55732D01*
X12900Y55738D01*
X12829Y55735D01*
X12766Y55727D01*
X12711Y55713D01*
X12664Y55693D01*
X12623Y55668D01*
X12587Y55638D01*
X12556Y55602D01*
X12530Y55562D01*
X12509Y55518D01*
X12494Y55472D01*
X12485Y55424D01*
X12482Y55374D01*
X12483Y55365D01*
X12591Y55374D01*
X12595Y55421D01*
X12609Y55464D01*
X12633Y55503D01*
X12666Y55537D01*
X12708Y55566D01*
X12760Y55586D01*
X12822Y55598D01*
X12893Y55603D01*
X12961Y55598D01*
X13020Y55586D01*
X13070Y55566D01*
X13112Y55537D01*
X13144Y55502D01*
X13168Y55463D01*
X13182Y55421D01*
X13186Y55374D01*
X13182Y55327D01*
X13168Y55284D01*
X13145Y55245D01*
X13112Y55210D01*
X13071Y55181D01*
X13019Y55161D01*
X12959Y55149D01*
X12889Y55145D01*
X12889Y55145D01*
X12819Y55149D01*
X12758Y55161D01*
X12707Y55181D01*
X12665Y55210D01*
X12633Y55245D01*
X12609Y55284D01*
X12595Y55327D01*
X12591Y55374D01*
X12483Y55365D01*
X12489Y55296D01*
X12509Y55226D01*
X12541Y55164D01*
X12587Y55110D01*
X12645Y55066D01*
X12715Y55034D01*
X12796Y55016D01*
X12889Y55009D01*
X12889Y55009D01*
X12500Y56402D02*
X12614Y56402D01*
X12557Y56353D01*
X12515Y56295D01*
X12491Y56229D01*
X12482Y56155D01*
X12484Y56122D01*
X12489Y56089D01*
X12497Y56057D01*
X12509Y56027D01*
X12523Y55999D01*
X12539Y55975D01*
X12556Y55955D01*
X12575Y55938D01*
X12596Y55925D01*
X12619Y55914D01*
X12645Y55905D01*
X12673Y55898D01*
X12695Y55894D01*
X12723Y55892D01*
X12757Y55890D01*
X12796Y55890D01*
X13278Y55890D01*
X13278Y56021D01*
X12846Y56021D01*
X12799Y56022D01*
X12760Y56023D01*
X12729Y56026D01*
X12707Y56030D01*
X12683Y56037D01*
X12661Y56049D01*
X12642Y56064D01*
X12626Y56082D01*
X12613Y56104D01*
X12603Y56127D01*
X12598Y56153D01*
X12596Y56182D01*
X12598Y56211D01*
X12604Y56239D01*
X12613Y56267D01*
X12626Y56293D01*
X12643Y56317D01*
X12662Y56338D01*
X12684Y56354D01*
X12709Y56367D01*
X12738Y56376D01*
X12773Y56383D01*
X12814Y56387D01*
X12861Y56388D01*
X13278Y56388D01*
X13278Y56520D01*
X12500Y56520D01*
X12500Y56402D01*
X12500Y56402D01*
X12618Y57015D02*
X12501Y57034D01*
X12496Y57007D01*
X12493Y56981D01*
X12490Y56957D01*
X12490Y56934D01*
X12491Y56900D01*
X12495Y56870D01*
X12503Y56845D01*
X12512Y56823D01*
X12525Y56804D01*
X12539Y56789D01*
X12555Y56777D01*
X12572Y56767D01*
X12596Y56760D01*
X12630Y56755D01*
X12674Y56752D01*
X12728Y56751D01*
X13175Y56751D01*
X13175Y56654D01*
X13278Y56654D01*
X13278Y56751D01*
X13470Y56751D01*
X13550Y56882D01*
X13278Y56882D01*
X13278Y57015D01*
X13175Y57015D01*
X13175Y56882D01*
X12720Y56882D01*
X12695Y56883D01*
X12674Y56884D01*
X12659Y56886D01*
X12648Y56889D01*
X12640Y56893D01*
X12633Y56898D01*
X12627Y56904D01*
X12622Y56912D01*
X12618Y56920D01*
X12615Y56931D01*
X12613Y56943D01*
X12613Y56957D01*
X12613Y56969D01*
X12614Y56982D01*
X12616Y56998D01*
X12618Y57015D01*
X12618Y57015D01*
X12500Y57560D02*
X13278Y57560D01*
X13278Y57678D01*
X13169Y57678D01*
X13196Y57698D01*
X13220Y57721D01*
X13242Y57747D01*
X13261Y57776D01*
X13276Y57807D01*
X13287Y57841D01*
X13293Y57876D01*
X13295Y57914D01*
X13293Y57955D01*
X13286Y57993D01*
X13275Y58026D01*
X13260Y58056D01*
X13240Y58081D01*
X13216Y58103D01*
X13190Y58120D01*
X13159Y58134D01*
X13219Y58183D01*
X13261Y58240D01*
X13287Y58303D01*
X13295Y58374D01*
X13291Y58429D01*
X13279Y58476D01*
X13259Y58517D01*
X13231Y58552D01*
X13195Y58579D01*
X13150Y58599D01*
X13096Y58610D01*
X13034Y58614D01*
X12500Y58614D01*
X12500Y58483D01*
X12990Y58483D01*
X13027Y58482D01*
X13058Y58480D01*
X13084Y58476D01*
X13104Y58470D01*
X13120Y58463D01*
X13135Y58452D01*
X13148Y58439D01*
X13160Y58424D01*
X13169Y58406D01*
X13176Y58387D01*
X13180Y58367D01*
X13181Y58345D01*
X13178Y58305D01*
X13168Y58270D01*
X13150Y58237D01*
X13127Y58208D01*
X13095Y58185D01*
X13056Y58168D01*
X13008Y58158D01*
X12952Y58154D01*
X12500Y58154D01*
X12500Y58022D01*
X13005Y58022D01*
X13047Y58020D01*
X13082Y58014D01*
X13112Y58004D01*
X13137Y57990D01*
X13156Y57972D01*
X13170Y57948D01*
X13178Y57919D01*
X13181Y57885D01*
X13179Y57857D01*
X13174Y57831D01*
X13165Y57806D01*
X13152Y57782D01*
X13136Y57760D01*
X13116Y57741D01*
X13093Y57726D01*
X13066Y57713D01*
X13035Y57704D01*
X12997Y57697D01*
X12954Y57693D01*
X12904Y57692D01*
X12500Y57692D01*
X12500Y57560D01*
X12500Y57560D01*
X12889Y58761D02*
X12990Y58768D01*
X13077Y58791D01*
X13150Y58828D01*
X13209Y58881D01*
X13247Y58934D01*
X13274Y58992D01*
X13290Y59056D01*
X13295Y59125D01*
X13289Y59202D01*
X13269Y59271D01*
X13236Y59333D01*
X13190Y59388D01*
X13133Y59432D01*
X13065Y59464D01*
X12988Y59483D01*
X12900Y59489D01*
X12829Y59487D01*
X12766Y59478D01*
X12711Y59464D01*
X12664Y59444D01*
X12623Y59419D01*
X12587Y59389D01*
X12556Y59354D01*
X12530Y59313D01*
X12509Y59269D01*
X12494Y59223D01*
X12485Y59175D01*
X12482Y59125D01*
X12483Y59116D01*
X12591Y59125D01*
X12595Y59172D01*
X12609Y59215D01*
X12633Y59254D01*
X12666Y59289D01*
X12708Y59317D01*
X12760Y59338D01*
X12822Y59350D01*
X12893Y59354D01*
X12961Y59350D01*
X13020Y59338D01*
X13070Y59317D01*
X13112Y59288D01*
X13144Y59254D01*
X13168Y59215D01*
X13182Y59172D01*
X13186Y59125D01*
X13182Y59078D01*
X13168Y59035D01*
X13145Y58996D01*
X13112Y58961D01*
X13071Y58933D01*
X13019Y58913D01*
X12959Y58900D01*
X12889Y58896D01*
X12889Y58896D01*
X12819Y58900D01*
X12758Y58913D01*
X12707Y58933D01*
X12665Y58961D01*
X12633Y58996D01*
X12609Y59035D01*
X12595Y59078D01*
X12591Y59125D01*
X12483Y59116D01*
X12489Y59048D01*
X12509Y58978D01*
X12541Y58916D01*
X12587Y58861D01*
X12645Y58817D01*
X12715Y58786D01*
X12796Y58767D01*
X12889Y58761D01*
X12889Y58761D01*
X12500Y60149D02*
X12598Y60149D01*
X12660Y60089D01*
X12661Y60090D01*
X12701Y60117D01*
X12751Y60136D01*
X12809Y60147D01*
X12877Y60151D01*
X12952Y60147D01*
X13016Y60136D01*
X13069Y60116D01*
X13112Y60089D01*
X13144Y60057D01*
X13168Y60021D01*
X13182Y59981D01*
X13186Y59938D01*
X13182Y59896D01*
X13168Y59857D01*
X13146Y59822D01*
X13115Y59791D01*
X13073Y59765D01*
X13022Y59747D01*
X12960Y59736D01*
X12888Y59732D01*
X12888Y59732D01*
X12818Y59736D01*
X12758Y59748D01*
X12706Y59767D01*
X12665Y59795D01*
X12632Y59828D01*
X12609Y59864D01*
X12595Y59902D01*
X12591Y59944D01*
X12595Y59985D01*
X12608Y60024D01*
X12631Y60059D01*
X12660Y60089D01*
X12598Y60149D01*
X12548Y60107D01*
X12511Y60057D01*
X12490Y59999D01*
X12482Y59931D01*
X12486Y59886D01*
X12495Y59842D01*
X12511Y59800D01*
X12534Y59760D01*
X12562Y59723D01*
X12595Y59691D01*
X12633Y59663D01*
X12677Y59639D01*
X12725Y59621D01*
X12776Y59607D01*
X12830Y59599D01*
X12888Y59596D01*
X12945Y59599D01*
X12999Y59606D01*
X13051Y59618D01*
X13099Y59635D01*
X13144Y59657D01*
X13183Y59684D01*
X13217Y59715D01*
X13245Y59752D01*
X13267Y59792D01*
X13283Y59834D01*
X13292Y59878D01*
X13295Y59925D01*
X13294Y59959D01*
X13288Y59992D01*
X13279Y60022D01*
X13266Y60051D01*
X13250Y60077D01*
X13232Y60100D01*
X13211Y60121D01*
X13188Y60140D01*
X13574Y60140D01*
X13574Y60271D01*
X12500Y60271D01*
X12500Y60149D01*
X12500Y60149D01*
X12500Y60988D02*
X12614Y60988D01*
X12557Y60939D01*
X12515Y60881D01*
X12491Y60815D01*
X12482Y60741D01*
X12484Y60707D01*
X12489Y60675D01*
X12497Y60643D01*
X12509Y60613D01*
X12523Y60585D01*
X12539Y60561D01*
X12556Y60540D01*
X12575Y60524D01*
X12596Y60511D01*
X12619Y60499D01*
X12645Y60490D01*
X12673Y60483D01*
X12695Y60480D01*
X12723Y60477D01*
X12757Y60476D01*
X12796Y60475D01*
X13278Y60475D01*
X13278Y60607D01*
X12846Y60607D01*
X12799Y60608D01*
X12760Y60609D01*
X12729Y60612D01*
X12707Y60615D01*
X12683Y60623D01*
X12661Y60635D01*
X12642Y60650D01*
X12626Y60668D01*
X12613Y60689D01*
X12603Y60713D01*
X12598Y60739D01*
X12596Y60768D01*
X12598Y60797D01*
X12604Y60825D01*
X12613Y60852D01*
X12626Y60879D01*
X12643Y60903D01*
X12662Y60923D01*
X12684Y60940D01*
X12709Y60953D01*
X12738Y60962D01*
X12773Y60969D01*
X12814Y60973D01*
X12861Y60974D01*
X13278Y60974D01*
X13278Y61106D01*
X12500Y61106D01*
X12500Y60988D01*
X12500Y60988D01*
X12500Y61310D02*
X13574Y61310D01*
X13574Y61441D01*
X12500Y61441D01*
X12500Y61310D01*
X12500Y61310D01*
X12750Y62178D02*
X12734Y62314D01*
X12677Y62295D01*
X12628Y62268D01*
X12585Y62235D01*
X12548Y62195D01*
X12520Y62148D01*
X12499Y62096D01*
X12487Y62037D01*
X12482Y61972D01*
X12489Y61891D01*
X12509Y61819D01*
X12542Y61756D01*
X12588Y61702D01*
X12645Y61658D01*
X12714Y61627D01*
X12793Y61608D01*
X12882Y61602D01*
X12975Y61608D01*
X13057Y61627D01*
X13127Y61659D01*
X13187Y61703D01*
X13234Y61757D01*
X13268Y61819D01*
X13289Y61888D01*
X13295Y61965D01*
X13294Y61976D01*
X13187Y61967D01*
X13183Y61923D01*
X13172Y61883D01*
X13153Y61847D01*
X13126Y61814D01*
X13093Y61786D01*
X13055Y61766D01*
X13012Y61752D01*
X12964Y61745D01*
X12964Y61745D01*
X12964Y62180D01*
X13010Y62173D01*
X13049Y62163D01*
X13083Y62148D01*
X13111Y62130D01*
X13144Y62096D01*
X13168Y62058D01*
X13182Y62014D01*
X13187Y61967D01*
X13294Y61976D01*
X13289Y62040D01*
X13269Y62107D01*
X13236Y62167D01*
X13189Y62220D01*
X13131Y62263D01*
X13061Y62294D01*
X12981Y62313D01*
X12890Y62319D01*
X12884Y62319D01*
X12876Y62319D01*
X12866Y62318D01*
X12855Y62318D01*
X12855Y61738D01*
X12795Y61745D01*
X12742Y61760D01*
X12697Y61782D01*
X12659Y61811D01*
X12629Y61845D01*
X12608Y61884D01*
X12595Y61926D01*
X12591Y61973D01*
X12593Y62008D01*
X12600Y62040D01*
X12612Y62070D01*
X12629Y62097D01*
X12651Y62121D01*
X12678Y62143D01*
X12712Y62162D01*
X12750Y62178D01*
X12750Y62178D01*
X1500Y46545D02*
X2574Y46129D01*
X2574Y46282D01*
X1794Y46561D01*
X1748Y46578D01*
X1703Y46592D01*
X1660Y46606D01*
X1618Y46618D01*
X1662Y46631D01*
X1706Y46645D01*
X1750Y46660D01*
X1794Y46676D01*
X2574Y46966D01*
X2574Y47111D01*
X1500Y46690D01*
X1500Y46545D01*
X1500Y46545D01*
X1750Y47671D02*
X1734Y47807D01*
X1677Y47788D01*
X1628Y47761D01*
X1585Y47728D01*
X1548Y47688D01*
X1520Y47641D01*
X1499Y47589D01*
X1487Y47530D01*
X1482Y47465D01*
X1489Y47384D01*
X1509Y47312D01*
X1542Y47249D01*
X1588Y47195D01*
X1645Y47151D01*
X1714Y47120D01*
X1793Y47101D01*
X1882Y47095D01*
X1975Y47101D01*
X2057Y47120D01*
X2127Y47151D01*
X2187Y47196D01*
X2234Y47250D01*
X2268Y47312D01*
X2289Y47381D01*
X2295Y47458D01*
X2294Y47469D01*
X2187Y47459D01*
X2183Y47416D01*
X2172Y47376D01*
X2153Y47339D01*
X2126Y47307D01*
X2093Y47279D01*
X2055Y47259D01*
X2012Y47245D01*
X1964Y47238D01*
X1964Y47238D01*
X1964Y47672D01*
X2010Y47666D01*
X2049Y47656D01*
X2083Y47641D01*
X2111Y47623D01*
X2144Y47589D01*
X2168Y47550D01*
X2182Y47507D01*
X2187Y47459D01*
X2294Y47469D01*
X2289Y47532D01*
X2269Y47600D01*
X2236Y47660D01*
X2189Y47713D01*
X2131Y47756D01*
X2061Y47787D01*
X1981Y47805D01*
X1890Y47812D01*
X1884Y47812D01*
X1876Y47811D01*
X1866Y47811D01*
X1855Y47811D01*
X1855Y47231D01*
X1795Y47238D01*
X1742Y47253D01*
X1697Y47274D01*
X1659Y47303D01*
X1629Y47338D01*
X1608Y47377D01*
X1595Y47419D01*
X1591Y47466D01*
X1593Y47501D01*
X1600Y47533D01*
X1612Y47563D01*
X1629Y47590D01*
X1651Y47614D01*
X1678Y47636D01*
X1712Y47655D01*
X1750Y47671D01*
X1750Y47671D01*
X1500Y47971D02*
X2278Y47971D01*
X2278Y48090D01*
X2160Y48090D01*
X2198Y48112D01*
X2229Y48134D01*
X2252Y48154D01*
X2269Y48174D01*
X2281Y48194D01*
X2289Y48214D01*
X2294Y48236D01*
X2295Y48258D01*
X2293Y48292D01*
X2285Y48326D01*
X2272Y48360D01*
X2253Y48394D01*
X2131Y48349D01*
X2143Y48324D01*
X2152Y48300D01*
X2157Y48276D01*
X2159Y48252D01*
X2158Y48231D01*
X2153Y48211D01*
X2145Y48192D01*
X2133Y48174D01*
X2119Y48158D01*
X2102Y48145D01*
X2083Y48134D01*
X2061Y48125D01*
X2025Y48116D01*
X1987Y48109D01*
X1948Y48105D01*
X1907Y48103D01*
X1500Y48103D01*
X1500Y47971D01*
X1500Y47971D01*
X1732Y48420D02*
X1753Y48550D01*
X1716Y48558D01*
X1683Y48571D01*
X1656Y48588D01*
X1633Y48611D01*
X1614Y48639D01*
X1601Y48671D01*
X1593Y48709D01*
X1591Y48751D01*
X1593Y48794D01*
X1600Y48830D01*
X1612Y48861D01*
X1628Y48886D01*
X1647Y48905D01*
X1668Y48919D01*
X1690Y48927D01*
X1715Y48930D01*
X1736Y48928D01*
X1755Y48920D01*
X1771Y48908D01*
X1785Y48891D01*
X1794Y48873D01*
X1805Y48844D01*
X1817Y48805D01*
X1830Y48756D01*
X1847Y48690D01*
X1864Y48634D01*
X1879Y48589D01*
X1893Y48555D01*
X1908Y48529D01*
X1925Y48506D01*
X1945Y48487D01*
X1967Y48470D01*
X1991Y48458D01*
X2017Y48449D01*
X2043Y48443D01*
X2071Y48442D01*
X2097Y48443D01*
X2121Y48447D01*
X2145Y48455D01*
X2168Y48465D01*
X2189Y48478D01*
X2208Y48493D01*
X2226Y48511D01*
X2241Y48530D01*
X2252Y48547D01*
X2262Y48566D01*
X2271Y48589D01*
X2280Y48614D01*
X2287Y48641D01*
X2291Y48669D01*
X2294Y48698D01*
X2295Y48728D01*
X2294Y48772D01*
X2289Y48814D01*
X2281Y48853D01*
X2269Y48889D01*
X2255Y48921D01*
X2238Y48949D01*
X2219Y48972D01*
X2198Y48991D01*
X2173Y49006D01*
X2145Y49019D01*
X2113Y49029D01*
X2077Y49036D01*
X2060Y48907D01*
X2088Y48901D01*
X2113Y48890D01*
X2135Y48875D01*
X2153Y48856D01*
X2168Y48833D01*
X2179Y48806D01*
X2185Y48774D01*
X2187Y48737D01*
X2185Y48695D01*
X2180Y48660D01*
X2170Y48630D01*
X2157Y48608D01*
X2141Y48591D01*
X2124Y48579D01*
X2106Y48571D01*
X2087Y48569D01*
X2074Y48570D01*
X2062Y48573D01*
X2051Y48578D01*
X2041Y48585D01*
X2030Y48594D01*
X2021Y48606D01*
X2013Y48620D01*
X2005Y48636D01*
X2001Y48650D01*
X1993Y48675D01*
X1984Y48709D01*
X1972Y48752D01*
X1954Y48817D01*
X1938Y48871D01*
X1923Y48914D01*
X1911Y48947D01*
X1897Y48973D01*
X1881Y48997D01*
X1863Y49017D01*
X1841Y49034D01*
X1817Y49048D01*
X1790Y49058D01*
X1761Y49064D01*
X1729Y49066D01*
X1696Y49063D01*
X1665Y49056D01*
X1634Y49044D01*
X1604Y49027D01*
X1577Y49006D01*
X1553Y48980D01*
X1532Y48950D01*
X1514Y48916D01*
X1500Y48879D01*
X1490Y48839D01*
X1484Y48797D01*
X1482Y48752D01*
X1486Y48681D01*
X1498Y48618D01*
X1518Y48565D01*
X1545Y48521D01*
X1581Y48485D01*
X1624Y48456D01*
X1674Y48434D01*
X1732Y48420D01*
X1732Y48420D01*
X1500Y49223D02*
X2278Y49223D01*
X2278Y49355D01*
X1500Y49355D01*
X1500Y49223D01*
X1500Y49223D01*
X2422Y49223D02*
X2574Y49223D01*
X2574Y49355D01*
X2422Y49355D01*
X2422Y49223D01*
X2422Y49223D01*
X1889Y49506D02*
X1990Y49514D01*
X2077Y49537D01*
X2150Y49574D01*
X2209Y49627D01*
X2247Y49680D01*
X2274Y49738D01*
X2290Y49802D01*
X2295Y49871D01*
X2289Y49948D01*
X2269Y50017D01*
X2236Y50079D01*
X2190Y50133D01*
X2133Y50178D01*
X2065Y50210D01*
X1988Y50229D01*
X1900Y50235D01*
X1829Y50232D01*
X1766Y50224D01*
X1711Y50210D01*
X1664Y50190D01*
X1623Y50165D01*
X1587Y50135D01*
X1556Y50100D01*
X1530Y50059D01*
X1509Y50015D01*
X1494Y49969D01*
X1485Y49921D01*
X1482Y49871D01*
X1483Y49862D01*
X1591Y49871D01*
X1595Y49918D01*
X1609Y49961D01*
X1633Y50000D01*
X1666Y50035D01*
X1708Y50063D01*
X1760Y50083D01*
X1822Y50096D01*
X1893Y50100D01*
X1961Y50096D01*
X2020Y50083D01*
X2070Y50063D01*
X2112Y50034D01*
X2144Y49999D01*
X2168Y49961D01*
X2182Y49918D01*
X2186Y49871D01*
X2182Y49824D01*
X2168Y49781D01*
X2145Y49742D01*
X2112Y49707D01*
X2071Y49679D01*
X2019Y49658D01*
X1959Y49646D01*
X1889Y49642D01*
X1889Y49642D01*
X1819Y49646D01*
X1758Y49658D01*
X1707Y49679D01*
X1665Y49707D01*
X1633Y49742D01*
X1609Y49781D01*
X1595Y49824D01*
X1591Y49871D01*
X1483Y49862D01*
X1489Y49793D01*
X1509Y49724D01*
X1541Y49661D01*
X1587Y49607D01*
X1645Y49563D01*
X1715Y49532D01*
X1796Y49513D01*
X1889Y49506D01*
X1889Y49506D01*
X1500Y50390D02*
X2278Y50390D01*
X2278Y50508D01*
X2167Y50508D01*
X2223Y50556D01*
X2263Y50613D01*
X2287Y50680D01*
X2295Y50756D01*
X2294Y50790D01*
X2289Y50823D01*
X2281Y50855D01*
X2270Y50885D01*
X2257Y50913D01*
X2241Y50937D01*
X2223Y50957D01*
X2204Y50974D01*
X2182Y50987D01*
X2159Y50998D01*
X2134Y51008D01*
X2106Y51015D01*
X2085Y51018D01*
X2056Y51020D01*
X2021Y51021D01*
X1978Y51022D01*
X1500Y51022D01*
X1500Y50890D01*
X1973Y50890D01*
X2011Y50889D01*
X2044Y50886D01*
X2071Y50881D01*
X2094Y50875D01*
X2113Y50865D01*
X2130Y50853D01*
X2144Y50838D01*
X2157Y50820D01*
X2168Y50800D01*
X2175Y50778D01*
X2180Y50754D01*
X2181Y50728D01*
X2178Y50687D01*
X2168Y50650D01*
X2151Y50615D01*
X2128Y50583D01*
X2095Y50556D01*
X2050Y50537D01*
X1994Y50525D01*
X1925Y50522D01*
X1500Y50522D01*
X1500Y50390D01*
X1500Y50390D01*
X1500Y52101D02*
X1500Y51969D01*
X2340Y51969D01*
X2317Y51943D01*
X2295Y51914D01*
X2272Y51881D01*
X2249Y51844D01*
X2228Y51806D01*
X2210Y51771D01*
X2194Y51737D01*
X2181Y51705D01*
X2309Y51705D01*
X2336Y51759D01*
X2366Y51809D01*
X2399Y51855D01*
X2435Y51899D01*
X2471Y51937D01*
X2507Y51969D01*
X2543Y51996D01*
X2578Y52016D01*
X2578Y52101D01*
X1500Y52101D01*
X1500Y52101D01*
X1500Y52512D02*
X1650Y52512D01*
X1650Y52663D01*
X1500Y52663D01*
X1500Y52512D01*
X1500Y52512D01*
X2030Y52855D02*
X2120Y52858D01*
X2201Y52865D01*
X2273Y52877D01*
X2336Y52894D01*
X2391Y52916D01*
X2439Y52943D01*
X2480Y52975D01*
X2515Y53011D01*
X2543Y53052D01*
X2562Y53098D01*
X2574Y53149D01*
X2578Y53205D01*
X2576Y53247D01*
X2569Y53286D01*
X2559Y53323D01*
X2543Y53357D01*
X2524Y53388D01*
X2501Y53416D01*
X2474Y53442D01*
X2443Y53464D01*
X2408Y53485D01*
X2370Y53502D01*
X2329Y53518D01*
X2283Y53531D01*
X2232Y53542D01*
X2173Y53549D01*
X2105Y53554D01*
X2030Y53555D01*
X1940Y53553D01*
X1859Y53546D01*
X1787Y53533D01*
X1724Y53516D01*
X1670Y53495D01*
X1622Y53468D01*
X1580Y53437D01*
X1545Y53400D01*
X1517Y53359D01*
X1498Y53313D01*
X1486Y53262D01*
X1482Y53205D01*
X1483Y53195D01*
X1590Y53205D01*
X1596Y53249D01*
X1612Y53289D01*
X1640Y53325D01*
X1678Y53358D01*
X1733Y53385D01*
X1810Y53404D01*
X1909Y53416D01*
X2030Y53420D01*
X2151Y53416D01*
X2250Y53404D01*
X2327Y53385D01*
X2382Y53358D01*
X2420Y53325D01*
X2447Y53288D01*
X2464Y53248D01*
X2469Y53204D01*
X2464Y53161D01*
X2450Y53122D01*
X2426Y53088D01*
X2392Y53059D01*
X2333Y53029D01*
X2252Y53008D01*
X2151Y52995D01*
X2030Y52991D01*
X2030Y52991D01*
X1908Y52994D01*
X1809Y53006D01*
X1732Y53025D01*
X1678Y53053D01*
X1639Y53085D01*
X1612Y53122D01*
X1596Y53162D01*
X1590Y53205D01*
X1483Y53195D01*
X1489Y53132D01*
X1510Y53067D01*
X1544Y53010D01*
X1593Y52961D01*
X1671Y52915D01*
X1769Y52882D01*
X1889Y52862D01*
X2030Y52855D01*
X2030Y52855D01*
X1500Y53763D02*
X1650Y53763D01*
X1650Y53913D01*
X1500Y53913D01*
X1500Y53763D01*
X1500Y53763D01*
X2030Y54106D02*
X2120Y54109D01*
X2201Y54116D01*
X2273Y54128D01*
X2336Y54145D01*
X2391Y54167D01*
X2439Y54194D01*
X2480Y54225D01*
X2515Y54262D01*
X2543Y54303D01*
X2562Y54349D01*
X2574Y54400D01*
X2578Y54456D01*
X2576Y54498D01*
X2569Y54537D01*
X2559Y54574D01*
X2543Y54608D01*
X2524Y54639D01*
X2501Y54667D01*
X2474Y54693D01*
X2443Y54715D01*
X2408Y54736D01*
X2370Y54753D01*
X2329Y54769D01*
X2283Y54782D01*
X2232Y54793D01*
X2173Y54800D01*
X2105Y54805D01*
X2030Y54806D01*
X1940Y54804D01*
X1859Y54797D01*
X1787Y54784D01*
X1724Y54767D01*
X1670Y54746D01*
X1622Y54719D01*
X1580Y54688D01*
X1545Y54651D01*
X1517Y54610D01*
X1498Y54564D01*
X1486Y54513D01*
X1482Y54456D01*
X1483Y54446D01*
X1590Y54456D01*
X1596Y54500D01*
X1612Y54540D01*
X1640Y54576D01*
X1678Y54609D01*
X1733Y54636D01*
X1810Y54655D01*
X1909Y54667D01*
X2030Y54671D01*
X2151Y54667D01*
X2250Y54655D01*
X2327Y54636D01*
X2382Y54609D01*
X2420Y54576D01*
X2447Y54539D01*
X2464Y54499D01*
X2469Y54455D01*
X2464Y54412D01*
X2450Y54373D01*
X2426Y54339D01*
X2392Y54310D01*
X2333Y54280D01*
X2252Y54259D01*
X2151Y54246D01*
X2030Y54242D01*
X2030Y54242D01*
X1908Y54245D01*
X1809Y54257D01*
X1732Y54276D01*
X1678Y54303D01*
X1639Y54336D01*
X1612Y54373D01*
X1596Y54413D01*
X1590Y54456D01*
X1483Y54446D01*
X1489Y54383D01*
X1510Y54318D01*
X1544Y54261D01*
X1593Y54212D01*
X1671Y54166D01*
X1769Y54133D01*
X1889Y54113D01*
X2030Y54106D01*
X2030Y54106D01*
G37*
M02*