%FSLAX33Y33*%
%MOMM*%
%AMRR-H508000-W8636000-R152400-RO0.000*
21,1,8.3312,0.508,0.,0.,360*
21,1,8.636,0.2032,0.,0.,360*
1,1,0.3048,-4.1656,0.1016*
1,1,0.3048,4.1656,0.1016*
1,1,0.3048,4.1656,-0.1016*
1,1,0.3048,-4.1656,-0.1016*%
%ADD10C,0.1*%
%ADD11R,1.X4.5*%
%ADD12RR-H508000-W8636000-R152400-RO0.000*%
D10*
%LNtop silkscreen_traces*%
%LNtop silkscreen component 87c3aa100626532f*%
G01*
X3250Y36000D02*
X3250Y64000D01*
X11750Y64000*
X11750Y36000*
X3250Y36000*
X3500Y36250D02*
X3500Y63750D01*
X11500Y63750*
X11500Y36250*
X3500Y36250*
D11*
X3750Y50025D03*
D12*
X7500Y64605D03*
G36*
X6501Y34506D02*
X6672Y34530D01*
X6679Y34454D01*
X6691Y34392D01*
X6709Y34342D01*
X6734Y34305D01*
X6764Y34279D01*
X6799Y34260D01*
X6839Y34248D01*
X6885Y34245D01*
X6920Y34247D01*
X6952Y34253D01*
X6981Y34263D01*
X7008Y34277D01*
X7032Y34295D01*
X7052Y34316D01*
X7068Y34340D01*
X7080Y34366D01*
X7088Y34398D01*
X7094Y34439D01*
X7098Y34488D01*
X7099Y34545D01*
X7099Y35532D01*
X7289Y35532D01*
X7289Y34556D01*
X7286Y34471D01*
X7278Y34397D01*
X7264Y34332D01*
X7245Y34278D01*
X7220Y34231D01*
X7189Y34191D01*
X7151Y34156D01*
X7107Y34127D01*
X7058Y34105D01*
X7005Y34089D01*
X6948Y34079D01*
X6886Y34076D01*
X6797Y34082D01*
X6720Y34103D01*
X6653Y34137D01*
X6598Y34184D01*
X6554Y34245D01*
X6524Y34319D01*
X6506Y34406D01*
X6501Y34506D01*
X6501Y34506D01*
X7527Y34475D02*
X7711Y34491D01*
X7725Y34427D01*
X7746Y34373D01*
X7773Y34326D01*
X7807Y34288D01*
X7846Y34258D01*
X7889Y34237D01*
X7936Y34224D01*
X7987Y34220D01*
X8048Y34226D01*
X8104Y34244D01*
X8155Y34274D01*
X8202Y34316D01*
X8240Y34368D01*
X8268Y34427D01*
X8284Y34495D01*
X8290Y34570D01*
X8284Y34641D01*
X8268Y34704D01*
X8242Y34760D01*
X8205Y34807D01*
X8160Y34845D01*
X8108Y34872D01*
X8049Y34889D01*
X7984Y34894D01*
X7942Y34892D01*
X7903Y34884D01*
X7866Y34872D01*
X7831Y34855D01*
X7798Y34835D01*
X7770Y34811D01*
X7745Y34785D01*
X7723Y34755D01*
X7558Y34777D01*
X7697Y35512D01*
X8409Y35512D01*
X8409Y35344D01*
X7837Y35344D01*
X7760Y34959D01*
X7826Y34999D01*
X7892Y35027D01*
X7961Y35044D01*
X8031Y35049D01*
X8121Y35041D01*
X8204Y35017D01*
X8279Y34976D01*
X8347Y34919D01*
X8404Y34850D01*
X8444Y34771D01*
X8468Y34683D01*
X8476Y34585D01*
X8469Y34491D01*
X8448Y34404D01*
X8412Y34324D01*
X8363Y34249D01*
X8288Y34173D01*
X8200Y34119D01*
X8100Y34086D01*
X7987Y34076D01*
X7894Y34082D01*
X7809Y34103D01*
X7734Y34137D01*
X7668Y34185D01*
X7613Y34244D01*
X7571Y34312D01*
X7542Y34389D01*
X7527Y34475D01*
X7527Y34475D01*
X4613Y65138D02*
X4613Y66229D01*
X5097Y66229D01*
X5165Y66227D01*
X5225Y66222D01*
X5276Y66212D01*
X5319Y66200D01*
X5355Y66182D01*
X5387Y66159D01*
X5415Y66130D01*
X5440Y66096D01*
X5460Y66058D01*
X5474Y66017D01*
X5482Y65975D01*
X5485Y65931D01*
X5481Y65875D01*
X5466Y65824D01*
X5443Y65778D01*
X5410Y65736D01*
X5367Y65699D01*
X5314Y65670D01*
X5251Y65649D01*
X5215Y65642D01*
X5192Y65759D01*
X5223Y65768D01*
X5249Y65780D01*
X5272Y65795D01*
X5291Y65812D01*
X5307Y65833D01*
X5320Y65856D01*
X5329Y65880D01*
X5335Y65905D01*
X5336Y65931D01*
X5333Y65968D01*
X5322Y66002D01*
X5305Y66032D01*
X5280Y66059D01*
X5248Y66080D01*
X5208Y66096D01*
X5159Y66105D01*
X5103Y66108D01*
X4757Y66108D01*
X4757Y65747D01*
X4757Y65747D01*
X5068Y65747D01*
X5115Y65749D01*
X5156Y65753D01*
X5192Y65759D01*
X5215Y65642D01*
X5178Y65634D01*
X5205Y65621D01*
X5228Y65607D01*
X5248Y65593D01*
X5265Y65580D01*
X5296Y65549D01*
X5327Y65515D01*
X5356Y65477D01*
X5385Y65435D01*
X5575Y65138D01*
X5393Y65138D01*
X5249Y65365D01*
X5218Y65411D01*
X5191Y65452D01*
X5166Y65486D01*
X5144Y65515D01*
X5125Y65539D01*
X5106Y65560D01*
X5088Y65576D01*
X5071Y65588D01*
X5055Y65598D01*
X5038Y65606D01*
X5022Y65612D01*
X5005Y65617D01*
X4991Y65620D01*
X4973Y65621D01*
X4951Y65622D01*
X4925Y65622D01*
X4757Y65622D01*
X4757Y65138D01*
X4613Y65138D01*
X4613Y65138D01*
X6235Y65392D02*
X6374Y65375D01*
X6354Y65318D01*
X6327Y65268D01*
X6293Y65224D01*
X6252Y65187D01*
X6205Y65158D01*
X6152Y65137D01*
X6092Y65124D01*
X6026Y65120D01*
X5944Y65127D01*
X5871Y65147D01*
X5807Y65180D01*
X5751Y65227D01*
X5707Y65286D01*
X5675Y65355D01*
X5656Y65435D01*
X5650Y65526D01*
X5656Y65621D01*
X5675Y65704D01*
X5707Y65775D01*
X5752Y65836D01*
X5808Y65884D01*
X5870Y65919D01*
X5941Y65939D01*
X6019Y65946D01*
X6030Y65945D01*
X6020Y65836D01*
X5976Y65832D01*
X5935Y65821D01*
X5898Y65801D01*
X5865Y65774D01*
X5837Y65741D01*
X5816Y65702D01*
X5802Y65658D01*
X5796Y65609D01*
X5796Y65609D01*
X6237Y65609D01*
X6230Y65656D01*
X6220Y65696D01*
X6205Y65731D01*
X6186Y65759D01*
X6152Y65792D01*
X6113Y65817D01*
X6069Y65831D01*
X6020Y65836D01*
X6030Y65945D01*
X6094Y65939D01*
X6163Y65919D01*
X6224Y65885D01*
X6278Y65838D01*
X6322Y65779D01*
X6353Y65708D01*
X6372Y65627D01*
X6378Y65535D01*
X6378Y65528D01*
X6378Y65520D01*
X6378Y65510D01*
X6377Y65499D01*
X5788Y65499D01*
X5796Y65438D01*
X5810Y65384D01*
X5832Y65338D01*
X5862Y65299D01*
X5897Y65269D01*
X5936Y65248D01*
X5980Y65235D01*
X6027Y65230D01*
X6062Y65233D01*
X6095Y65240D01*
X6125Y65252D01*
X6153Y65269D01*
X6177Y65291D01*
X6199Y65319D01*
X6219Y65353D01*
X6235Y65392D01*
X6235Y65392D01*
X7055Y65138D02*
X7055Y65238D01*
X6994Y65300D01*
X6996Y65302D01*
X7022Y65343D01*
X7042Y65393D01*
X7053Y65452D01*
X7057Y65521D01*
X7053Y65597D01*
X7041Y65662D01*
X7022Y65716D01*
X6994Y65759D01*
X6961Y65793D01*
X6925Y65816D01*
X6884Y65831D01*
X6840Y65835D01*
X6798Y65831D01*
X6758Y65817D01*
X6723Y65794D01*
X6691Y65762D01*
X6665Y65721D01*
X6646Y65668D01*
X6635Y65606D01*
X6631Y65532D01*
X6631Y65532D01*
X6635Y65461D01*
X6647Y65400D01*
X6667Y65348D01*
X6695Y65305D01*
X6729Y65273D01*
X6765Y65249D01*
X6804Y65235D01*
X6846Y65230D01*
X6889Y65235D01*
X6928Y65248D01*
X6963Y65271D01*
X6994Y65300D01*
X7055Y65238D01*
X7013Y65186D01*
X6962Y65150D01*
X6902Y65127D01*
X6834Y65120D01*
X6787Y65123D01*
X6743Y65133D01*
X6700Y65149D01*
X6660Y65172D01*
X6623Y65201D01*
X6590Y65235D01*
X6561Y65274D01*
X6537Y65318D01*
X6518Y65366D01*
X6504Y65418D01*
X6496Y65473D01*
X6494Y65532D01*
X6496Y65590D01*
X6503Y65645D01*
X6516Y65698D01*
X6533Y65747D01*
X6555Y65792D01*
X6582Y65832D01*
X6614Y65866D01*
X6651Y65895D01*
X6692Y65917D01*
X6735Y65933D01*
X6780Y65943D01*
X6828Y65946D01*
X6862Y65944D01*
X6895Y65939D01*
X6926Y65929D01*
X6955Y65916D01*
X6982Y65900D01*
X7006Y65881D01*
X7027Y65861D01*
X7046Y65837D01*
X7046Y66229D01*
X7179Y66229D01*
X7179Y65138D01*
X7055Y65138D01*
X7055Y65138D01*
X7959Y65138D02*
X7717Y65928D01*
X7855Y65928D01*
X7981Y65472D01*
X8028Y65302D01*
X8032Y65317D01*
X8040Y65350D01*
X8052Y65399D01*
X8069Y65465D01*
X8195Y65928D01*
X8332Y65928D01*
X8451Y65470D01*
X8490Y65319D01*
X8536Y65471D01*
X8671Y65928D01*
X8801Y65928D01*
X8554Y65138D01*
X8415Y65138D01*
X8289Y65611D01*
X8259Y65746D01*
X8099Y65138D01*
X7959Y65138D01*
X7959Y65138D01*
X8914Y65138D02*
X8914Y65928D01*
X9048Y65928D01*
X9048Y65138D01*
X8914Y65138D01*
X8914Y65138D01*
X8914Y66075D02*
X8914Y66229D01*
X9048Y66229D01*
X9048Y66075D01*
X8914Y66075D01*
X8914Y66075D01*
X9251Y65138D02*
X9251Y65928D01*
X9371Y65928D01*
X9371Y65808D01*
X9394Y65847D01*
X9416Y65878D01*
X9436Y65902D01*
X9456Y65919D01*
X9476Y65931D01*
X9497Y65939D01*
X9519Y65944D01*
X9542Y65946D01*
X9576Y65943D01*
X9611Y65935D01*
X9645Y65922D01*
X9680Y65903D01*
X9634Y65779D01*
X9609Y65791D01*
X9585Y65800D01*
X9560Y65806D01*
X9536Y65808D01*
X9514Y65806D01*
X9494Y65801D01*
X9475Y65793D01*
X9457Y65781D01*
X9440Y65767D01*
X9427Y65750D01*
X9416Y65730D01*
X9407Y65708D01*
X9397Y65671D01*
X9390Y65633D01*
X9386Y65593D01*
X9385Y65552D01*
X9385Y65138D01*
X9251Y65138D01*
X9251Y65138D01*
X10301Y65392D02*
X10439Y65375D01*
X10419Y65318D01*
X10392Y65268D01*
X10358Y65224D01*
X10318Y65187D01*
X10270Y65158D01*
X10217Y65137D01*
X10157Y65124D01*
X10091Y65120D01*
X10009Y65127D01*
X9936Y65147D01*
X9872Y65180D01*
X9816Y65227D01*
X9772Y65286D01*
X9740Y65355D01*
X9721Y65435D01*
X9715Y65526D01*
X9721Y65621D01*
X9741Y65704D01*
X9773Y65775D01*
X9818Y65836D01*
X9873Y65884D01*
X9936Y65919D01*
X10006Y65939D01*
X10084Y65946D01*
X10095Y65945D01*
X10085Y65836D01*
X10041Y65832D01*
X10001Y65821D01*
X9964Y65801D01*
X9930Y65774D01*
X9902Y65741D01*
X9882Y65702D01*
X9868Y65658D01*
X9861Y65609D01*
X9861Y65609D01*
X10302Y65609D01*
X10296Y65656D01*
X10285Y65696D01*
X10270Y65731D01*
X10251Y65759D01*
X10217Y65792D01*
X10178Y65817D01*
X10134Y65831D01*
X10085Y65836D01*
X10095Y65945D01*
X10160Y65939D01*
X10228Y65919D01*
X10289Y65885D01*
X10343Y65838D01*
X10387Y65779D01*
X10418Y65708D01*
X10437Y65627D01*
X10443Y65535D01*
X10443Y65528D01*
X10443Y65520D01*
X10443Y65510D01*
X10443Y65499D01*
X9853Y65499D01*
X9861Y65438D01*
X9875Y65384D01*
X9898Y65338D01*
X9927Y65299D01*
X9962Y65269D01*
X10001Y65248D01*
X10045Y65235D01*
X10092Y65230D01*
X10128Y65233D01*
X10160Y65240D01*
X10191Y65252D01*
X10218Y65269D01*
X10243Y65291D01*
X10265Y65319D01*
X10284Y65353D01*
X10301Y65392D01*
X10301Y65392D01*
X12529Y41141D02*
X12529Y41227D01*
X12837Y41227D01*
X12837Y40957D01*
X12801Y40931D01*
X12765Y40908D01*
X12728Y40888D01*
X12690Y40872D01*
X12652Y40860D01*
X12614Y40851D01*
X12575Y40845D01*
X12536Y40844D01*
X12483Y40846D01*
X12433Y40855D01*
X12386Y40869D01*
X12341Y40889D01*
X12300Y40915D01*
X12264Y40946D01*
X12234Y40981D01*
X12209Y41022D01*
X12189Y41067D01*
X12175Y41114D01*
X12167Y41164D01*
X12164Y41216D01*
X12167Y41268D01*
X12175Y41319D01*
X12189Y41367D01*
X12208Y41414D01*
X12233Y41457D01*
X12263Y41495D01*
X12297Y41526D01*
X12336Y41551D01*
X12379Y41571D01*
X12426Y41585D01*
X12475Y41593D01*
X12528Y41596D01*
X12567Y41594D01*
X12603Y41589D01*
X12638Y41581D01*
X12671Y41570D01*
X12701Y41556D01*
X12728Y41540D01*
X12751Y41521D01*
X12771Y41499D01*
X12788Y41474D01*
X12803Y41446D01*
X12815Y41415D01*
X12826Y41380D01*
X12739Y41356D01*
X12730Y41382D01*
X12721Y41406D01*
X12710Y41426D01*
X12698Y41443D01*
X12685Y41458D01*
X12669Y41472D01*
X12650Y41484D01*
X12629Y41494D01*
X12606Y41503D01*
X12581Y41509D01*
X12556Y41512D01*
X12529Y41513D01*
X12497Y41512D01*
X12467Y41508D01*
X12440Y41502D01*
X12415Y41493D01*
X12392Y41482D01*
X12371Y41470D01*
X12353Y41456D01*
X12337Y41440D01*
X12323Y41424D01*
X12311Y41406D01*
X12300Y41388D01*
X12291Y41368D01*
X12279Y41334D01*
X12270Y41298D01*
X12265Y41261D01*
X12263Y41222D01*
X12265Y41175D01*
X12272Y41133D01*
X12282Y41094D01*
X12297Y41059D01*
X12315Y41029D01*
X12338Y41002D01*
X12364Y40980D01*
X12394Y40962D01*
X12427Y40948D01*
X12460Y40938D01*
X12495Y40932D01*
X12530Y40930D01*
X12561Y40932D01*
X12592Y40936D01*
X12622Y40944D01*
X12652Y40954D01*
X12680Y40967D01*
X12705Y40979D01*
X12725Y40992D01*
X12743Y41006D01*
X12743Y41141D01*
X12529Y41141D01*
X12529Y41141D01*
X13311Y40921D02*
X13286Y40901D01*
X13283Y40899D01*
X13249Y40949D01*
X13265Y40963D01*
X13278Y40980D01*
X13289Y40998D01*
X13296Y41015D01*
X13300Y41036D01*
X13303Y41060D01*
X13304Y41088D01*
X13304Y41120D01*
X13304Y41120D01*
X13276Y41111D01*
X13243Y41102D01*
X13203Y41094D01*
X13158Y41087D01*
X13132Y41083D01*
X13111Y41078D01*
X13093Y41074D01*
X13080Y41069D01*
X13069Y41063D01*
X13060Y41057D01*
X13052Y41049D01*
X13045Y41040D01*
X13039Y41030D01*
X13035Y41020D01*
X13033Y41009D01*
X13032Y40997D01*
X13034Y40980D01*
X13039Y40965D01*
X13047Y40951D01*
X13059Y40938D01*
X13074Y40927D01*
X13093Y40920D01*
X13114Y40916D01*
X13138Y40914D01*
X13164Y40915D01*
X13187Y40920D01*
X13209Y40927D01*
X13230Y40937D01*
X13249Y40949D01*
X13283Y40899D01*
X13262Y40885D01*
X13239Y40872D01*
X13216Y40861D01*
X13192Y40854D01*
X13168Y40848D01*
X13143Y40845D01*
X13117Y40844D01*
X13076Y40847D01*
X13040Y40855D01*
X13009Y40868D01*
X12984Y40887D01*
X12963Y40909D01*
X12949Y40935D01*
X12940Y40963D01*
X12937Y40995D01*
X12938Y41014D01*
X12941Y41032D01*
X12947Y41049D01*
X12955Y41066D01*
X12964Y41081D01*
X12975Y41094D01*
X12987Y41106D01*
X13001Y41117D01*
X13015Y41126D01*
X13031Y41134D01*
X13048Y41141D01*
X13065Y41146D01*
X13080Y41150D01*
X13098Y41153D01*
X13120Y41156D01*
X13144Y41160D01*
X13195Y41166D01*
X13238Y41174D01*
X13275Y41182D01*
X13304Y41190D01*
X13304Y41199D01*
X13304Y41205D01*
X13304Y41210D01*
X13304Y41214D01*
X13303Y41239D01*
X13298Y41260D01*
X13290Y41277D01*
X13279Y41291D01*
X13260Y41304D01*
X13236Y41313D01*
X13209Y41319D01*
X13177Y41321D01*
X13148Y41319D01*
X13122Y41315D01*
X13101Y41308D01*
X13084Y41299D01*
X13070Y41286D01*
X13058Y41268D01*
X13048Y41247D01*
X13040Y41221D01*
X12952Y41233D01*
X12959Y41259D01*
X12968Y41283D01*
X12979Y41304D01*
X12992Y41323D01*
X13007Y41339D01*
X13025Y41354D01*
X13046Y41366D01*
X13070Y41376D01*
X13097Y41384D01*
X13126Y41390D01*
X13157Y41394D01*
X13190Y41395D01*
X13222Y41394D01*
X13251Y41391D01*
X13277Y41386D01*
X13300Y41379D01*
X13319Y41370D01*
X13336Y41361D01*
X13350Y41350D01*
X13362Y41339D01*
X13371Y41326D01*
X13379Y41312D01*
X13385Y41296D01*
X13389Y41278D01*
X13391Y41264D01*
X13393Y41246D01*
X13394Y41223D01*
X13394Y41196D01*
X13394Y41077D01*
X13394Y41020D01*
X13395Y40975D01*
X13397Y40941D01*
X13400Y40919D01*
X13403Y40903D01*
X13408Y40887D01*
X13414Y40871D01*
X13422Y40856D01*
X13329Y40856D01*
X13323Y40870D01*
X13318Y40886D01*
X13314Y40903D01*
X13311Y40921D01*
X13311Y40921D01*
X13727Y40936D02*
X13740Y40857D01*
X13722Y40854D01*
X13704Y40851D01*
X13688Y40850D01*
X13673Y40849D01*
X13650Y40850D01*
X13630Y40853D01*
X13612Y40858D01*
X13597Y40864D01*
X13585Y40873D01*
X13574Y40882D01*
X13566Y40893D01*
X13560Y40905D01*
X13555Y40921D01*
X13551Y40944D01*
X13549Y40974D01*
X13549Y41010D01*
X13549Y41313D01*
X13483Y41313D01*
X13483Y41383D01*
X13549Y41383D01*
X13549Y41513D01*
X13638Y41567D01*
X13638Y41383D01*
X13727Y41383D01*
X13727Y41313D01*
X13638Y41313D01*
X13638Y41005D01*
X13638Y40988D01*
X13639Y40974D01*
X13640Y40963D01*
X13642Y40956D01*
X13645Y40951D01*
X13648Y40946D01*
X13653Y40942D01*
X13658Y40939D01*
X13664Y40936D01*
X13671Y40934D01*
X13679Y40933D01*
X13688Y40932D01*
X13696Y40933D01*
X13705Y40933D01*
X13716Y40934D01*
X13727Y40936D01*
X13727Y40936D01*
X14175Y41026D02*
X14268Y41014D01*
X14254Y40976D01*
X14236Y40942D01*
X14214Y40913D01*
X14187Y40889D01*
X14155Y40869D01*
X14119Y40855D01*
X14080Y40847D01*
X14036Y40844D01*
X13981Y40849D01*
X13932Y40862D01*
X13889Y40884D01*
X13853Y40915D01*
X13823Y40954D01*
X13802Y41001D01*
X13789Y41054D01*
X13785Y41115D01*
X13789Y41178D01*
X13802Y41233D01*
X13823Y41281D01*
X13853Y41321D01*
X13890Y41353D01*
X13932Y41376D01*
X13979Y41390D01*
X14031Y41395D01*
X14038Y41394D01*
X14032Y41321D01*
X14002Y41319D01*
X13975Y41311D01*
X13951Y41298D01*
X13928Y41280D01*
X13910Y41258D01*
X13896Y41232D01*
X13887Y41203D01*
X13882Y41170D01*
X13882Y41170D01*
X14176Y41170D01*
X14172Y41201D01*
X14165Y41228D01*
X14155Y41251D01*
X14143Y41270D01*
X14120Y41292D01*
X14094Y41308D01*
X14064Y41318D01*
X14032Y41321D01*
X14038Y41394D01*
X14081Y41390D01*
X14127Y41377D01*
X14168Y41354D01*
X14204Y41323D01*
X14233Y41283D01*
X14254Y41236D01*
X14266Y41182D01*
X14271Y41120D01*
X14270Y41116D01*
X14270Y41110D01*
X14270Y41104D01*
X14270Y41097D01*
X13877Y41097D01*
X13882Y41056D01*
X13892Y41020D01*
X13907Y40989D01*
X13926Y40964D01*
X13950Y40943D01*
X13976Y40929D01*
X14005Y40920D01*
X14036Y40918D01*
X14060Y40919D01*
X14082Y40924D01*
X14102Y40932D01*
X14120Y40943D01*
X14137Y40958D01*
X14151Y40977D01*
X14164Y40999D01*
X14175Y41026D01*
X14175Y41026D01*
X12707Y43651D02*
X12804Y43627D01*
X12785Y43571D01*
X12761Y43522D01*
X12731Y43481D01*
X12695Y43446D01*
X12653Y43419D01*
X12607Y43399D01*
X12557Y43387D01*
X12502Y43384D01*
X12446Y43387D01*
X12396Y43396D01*
X12351Y43411D01*
X12311Y43431D01*
X12277Y43458D01*
X12246Y43490D01*
X12220Y43527D01*
X12199Y43570D01*
X12182Y43616D01*
X12170Y43664D01*
X12163Y43714D01*
X12161Y43765D01*
X12163Y43820D01*
X12171Y43871D01*
X12185Y43919D01*
X12204Y43963D01*
X12228Y44003D01*
X12257Y44038D01*
X12290Y44067D01*
X12328Y44092D01*
X12369Y44111D01*
X12412Y44125D01*
X12457Y44133D01*
X12504Y44136D01*
X12556Y44132D01*
X12604Y44122D01*
X12648Y44104D01*
X12687Y44080D01*
X12722Y44050D01*
X12751Y44013D01*
X12774Y43971D01*
X12791Y43924D01*
X12696Y43902D01*
X12682Y43939D01*
X12665Y43970D01*
X12646Y43996D01*
X12623Y44017D01*
X12597Y44033D01*
X12569Y44044D01*
X12537Y44051D01*
X12502Y44053D01*
X12462Y44051D01*
X12425Y44043D01*
X12392Y44031D01*
X12362Y44013D01*
X12336Y43991D01*
X12314Y43966D01*
X12296Y43937D01*
X12283Y43905D01*
X12273Y43871D01*
X12266Y43836D01*
X12261Y43801D01*
X12260Y43766D01*
X12262Y43721D01*
X12267Y43679D01*
X12275Y43640D01*
X12287Y43604D01*
X12302Y43571D01*
X12321Y43543D01*
X12344Y43519D01*
X12371Y43500D01*
X12400Y43485D01*
X12430Y43475D01*
X12462Y43468D01*
X12494Y43466D01*
X12533Y43469D01*
X12569Y43478D01*
X12602Y43492D01*
X12631Y43513D01*
X12657Y43539D01*
X12678Y43571D01*
X12695Y43608D01*
X12707Y43651D01*
X12707Y43651D01*
X13130Y43396D02*
X12848Y44123D01*
X12952Y44123D01*
X13141Y43595D01*
X13152Y43564D01*
X13162Y43533D01*
X13171Y43504D01*
X13180Y43476D01*
X13188Y43506D01*
X13198Y43535D01*
X13208Y43565D01*
X13219Y43595D01*
X13415Y44123D01*
X13513Y44123D01*
X13229Y43396D01*
X13130Y43396D01*
X13130Y43396D01*
X12364Y46054D02*
X12364Y46253D01*
X12167Y46253D01*
X12167Y46336D01*
X12364Y46336D01*
X12364Y46534D01*
X12449Y46534D01*
X12449Y46336D01*
X12647Y46336D01*
X12647Y46253D01*
X12449Y46253D01*
X12449Y46054D01*
X12364Y46054D01*
X12364Y46054D01*
X12746Y46127D02*
X12839Y46134D01*
X12846Y46102D01*
X12857Y46074D01*
X12870Y46051D01*
X12888Y46031D01*
X12908Y46016D01*
X12930Y46006D01*
X12953Y45999D01*
X12979Y45997D01*
X13010Y46000D01*
X13039Y46009D01*
X13065Y46024D01*
X13088Y46046D01*
X13108Y46072D01*
X13122Y46102D01*
X13130Y46136D01*
X13133Y46175D01*
X13130Y46211D01*
X13122Y46243D01*
X13109Y46271D01*
X13090Y46295D01*
X13067Y46314D01*
X13041Y46328D01*
X13011Y46337D01*
X12978Y46339D01*
X12957Y46338D01*
X12937Y46334D01*
X12918Y46328D01*
X12900Y46320D01*
X12883Y46309D01*
X12869Y46297D01*
X12856Y46284D01*
X12845Y46269D01*
X12761Y46280D01*
X12832Y46653D01*
X13193Y46653D01*
X13193Y46568D01*
X12903Y46568D01*
X12864Y46373D01*
X12897Y46393D01*
X12931Y46407D01*
X12966Y46415D01*
X13001Y46418D01*
X13047Y46414D01*
X13089Y46402D01*
X13128Y46381D01*
X13162Y46352D01*
X13191Y46317D01*
X13211Y46277D01*
X13224Y46232D01*
X13228Y46183D01*
X13224Y46135D01*
X13213Y46091D01*
X13195Y46050D01*
X13170Y46012D01*
X13132Y45973D01*
X13087Y45946D01*
X13037Y45929D01*
X12979Y45924D01*
X12932Y45927D01*
X12889Y45937D01*
X12851Y45955D01*
X12817Y45979D01*
X12789Y46009D01*
X12768Y46044D01*
X12753Y46083D01*
X12746Y46127D01*
X12746Y46127D01*
X13555Y45936D02*
X13273Y46663D01*
X13377Y46663D01*
X13566Y46135D01*
X13577Y46104D01*
X13587Y46073D01*
X13596Y46044D01*
X13604Y46016D01*
X13613Y46046D01*
X13622Y46075D01*
X13633Y46105D01*
X13643Y46135D01*
X13840Y46663D01*
X13938Y46663D01*
X13653Y45936D01*
X13555Y45936D01*
X13555Y45936D01*
X12364Y48594D02*
X12364Y48793D01*
X12167Y48793D01*
X12167Y48876D01*
X12364Y48876D01*
X12364Y49074D01*
X12449Y49074D01*
X12449Y48876D01*
X12647Y48876D01*
X12647Y48793D01*
X12449Y48793D01*
X12449Y48594D01*
X12364Y48594D01*
X12364Y48594D01*
X13082Y48476D02*
X12993Y48476D01*
X12993Y49045D01*
X12975Y49030D01*
X12955Y49014D01*
X12933Y48999D01*
X12908Y48984D01*
X12882Y48969D01*
X12858Y48957D01*
X12835Y48946D01*
X12814Y48937D01*
X12814Y49024D01*
X12850Y49042D01*
X12884Y49063D01*
X12916Y49085D01*
X12945Y49109D01*
X12971Y49134D01*
X12993Y49158D01*
X13011Y49182D01*
X13024Y49206D01*
X13082Y49206D01*
X13082Y48476D01*
X13082Y48476D01*
X13780Y48562D02*
X13780Y48476D01*
X13299Y48476D01*
X13299Y48492D01*
X13301Y48508D01*
X13305Y48523D01*
X13310Y48538D01*
X13320Y48562D01*
X13333Y48587D01*
X13350Y48611D01*
X13368Y48635D01*
X13391Y48659D01*
X13418Y48686D01*
X13449Y48715D01*
X13485Y48745D01*
X13540Y48791D01*
X13585Y48832D01*
X13620Y48868D01*
X13645Y48899D01*
X13664Y48927D01*
X13677Y48954D01*
X13684Y48981D01*
X13687Y49006D01*
X13685Y49032D01*
X13678Y49055D01*
X13666Y49077D01*
X13649Y49096D01*
X13629Y49112D01*
X13605Y49123D01*
X13579Y49130D01*
X13550Y49132D01*
X13520Y49130D01*
X13492Y49123D01*
X13468Y49111D01*
X13447Y49094D01*
X13430Y49072D01*
X13418Y49047D01*
X13410Y49019D01*
X13408Y48986D01*
X13316Y48996D01*
X13324Y49044D01*
X13338Y49086D01*
X13359Y49122D01*
X13387Y49152D01*
X13420Y49176D01*
X13459Y49193D01*
X13503Y49203D01*
X13552Y49206D01*
X13602Y49203D01*
X13646Y49192D01*
X13685Y49174D01*
X13718Y49148D01*
X13745Y49117D01*
X13764Y49083D01*
X13775Y49046D01*
X13779Y49004D01*
X13778Y48983D01*
X13774Y48961D01*
X13769Y48940D01*
X13761Y48919D01*
X13751Y48897D01*
X13737Y48875D01*
X13721Y48853D01*
X13702Y48830D01*
X13678Y48804D01*
X13647Y48774D01*
X13609Y48740D01*
X13564Y48702D01*
X13527Y48671D01*
X13498Y48645D01*
X13476Y48625D01*
X13461Y48610D01*
X13450Y48598D01*
X13440Y48586D01*
X13431Y48574D01*
X13423Y48562D01*
X13780Y48562D01*
X13780Y48562D01*
X14120Y48476D02*
X13838Y49203D01*
X13942Y49203D01*
X14131Y48675D01*
X14142Y48644D01*
X14152Y48613D01*
X14161Y48584D01*
X14169Y48556D01*
X14178Y48586D01*
X14188Y48615D01*
X14198Y48645D01*
X14209Y48675D01*
X14405Y49203D01*
X14503Y49203D01*
X14218Y48476D01*
X14120Y48476D01*
X14120Y48476D01*
X12142Y58854D02*
X12142Y58944D01*
X12417Y58944D01*
X12417Y58854D01*
X12142Y58854D01*
X12142Y58854D01*
X12827Y58636D02*
X12738Y58636D01*
X12738Y59205D01*
X12720Y59190D01*
X12700Y59174D01*
X12678Y59159D01*
X12653Y59144D01*
X12627Y59129D01*
X12603Y59117D01*
X12580Y59106D01*
X12559Y59097D01*
X12559Y59184D01*
X12595Y59202D01*
X12629Y59223D01*
X12661Y59245D01*
X12690Y59269D01*
X12716Y59294D01*
X12738Y59318D01*
X12756Y59342D01*
X12769Y59366D01*
X12827Y59366D01*
X12827Y58636D01*
X12827Y58636D01*
X13525Y58722D02*
X13525Y58636D01*
X13044Y58636D01*
X13044Y58652D01*
X13046Y58668D01*
X13050Y58683D01*
X13055Y58698D01*
X13065Y58722D01*
X13078Y58747D01*
X13095Y58771D01*
X13113Y58795D01*
X13136Y58819D01*
X13163Y58846D01*
X13194Y58875D01*
X13230Y58905D01*
X13285Y58951D01*
X13330Y58992D01*
X13365Y59028D01*
X13390Y59059D01*
X13409Y59087D01*
X13422Y59114D01*
X13429Y59141D01*
X13432Y59166D01*
X13430Y59192D01*
X13423Y59215D01*
X13411Y59237D01*
X13394Y59256D01*
X13374Y59272D01*
X13350Y59283D01*
X13324Y59290D01*
X13295Y59292D01*
X13265Y59290D01*
X13237Y59283D01*
X13213Y59271D01*
X13192Y59254D01*
X13175Y59232D01*
X13163Y59207D01*
X13155Y59179D01*
X13153Y59146D01*
X13061Y59156D01*
X13069Y59204D01*
X13083Y59246D01*
X13104Y59282D01*
X13132Y59312D01*
X13165Y59336D01*
X13204Y59353D01*
X13248Y59363D01*
X13297Y59366D01*
X13347Y59363D01*
X13391Y59352D01*
X13430Y59334D01*
X13463Y59308D01*
X13490Y59277D01*
X13509Y59243D01*
X13520Y59206D01*
X13524Y59164D01*
X13523Y59143D01*
X13519Y59121D01*
X13514Y59100D01*
X13506Y59079D01*
X13496Y59057D01*
X13482Y59035D01*
X13466Y59013D01*
X13447Y58990D01*
X13423Y58964D01*
X13392Y58934D01*
X13354Y58900D01*
X13309Y58862D01*
X13272Y58831D01*
X13243Y58805D01*
X13221Y58785D01*
X13206Y58770D01*
X13195Y58758D01*
X13185Y58746D01*
X13176Y58734D01*
X13168Y58722D01*
X13525Y58722D01*
X13525Y58722D01*
X13865Y58636D02*
X13583Y59363D01*
X13687Y59363D01*
X13876Y58835D01*
X13887Y58804D01*
X13897Y58773D01*
X13906Y58744D01*
X13914Y58716D01*
X13923Y58746D01*
X13933Y58775D01*
X13943Y58805D01*
X13953Y58835D01*
X14150Y59363D01*
X14248Y59363D01*
X13963Y58636D01*
X13865Y58636D01*
X13865Y58636D01*
X12529Y56381D02*
X12529Y56467D01*
X12837Y56467D01*
X12837Y56197D01*
X12801Y56171D01*
X12765Y56148D01*
X12728Y56128D01*
X12690Y56112D01*
X12652Y56100D01*
X12614Y56091D01*
X12575Y56085D01*
X12536Y56084D01*
X12483Y56086D01*
X12433Y56095D01*
X12386Y56109D01*
X12341Y56129D01*
X12300Y56155D01*
X12264Y56186D01*
X12234Y56221D01*
X12209Y56262D01*
X12189Y56307D01*
X12175Y56354D01*
X12167Y56404D01*
X12164Y56456D01*
X12167Y56508D01*
X12175Y56559D01*
X12189Y56607D01*
X12208Y56654D01*
X12233Y56697D01*
X12263Y56735D01*
X12297Y56766D01*
X12336Y56791D01*
X12379Y56811D01*
X12426Y56825D01*
X12475Y56833D01*
X12528Y56836D01*
X12567Y56834D01*
X12603Y56829D01*
X12638Y56821D01*
X12671Y56810D01*
X12701Y56796D01*
X12728Y56780D01*
X12751Y56761D01*
X12771Y56739D01*
X12788Y56714D01*
X12803Y56686D01*
X12815Y56655D01*
X12826Y56620D01*
X12739Y56596D01*
X12730Y56622D01*
X12721Y56646D01*
X12710Y56666D01*
X12698Y56683D01*
X12685Y56698D01*
X12669Y56712D01*
X12650Y56724D01*
X12629Y56734D01*
X12606Y56743D01*
X12581Y56749D01*
X12556Y56752D01*
X12529Y56753D01*
X12497Y56752D01*
X12467Y56748D01*
X12440Y56742D01*
X12415Y56733D01*
X12392Y56722D01*
X12371Y56710D01*
X12353Y56696D01*
X12337Y56680D01*
X12323Y56664D01*
X12311Y56646D01*
X12300Y56628D01*
X12291Y56608D01*
X12279Y56574D01*
X12270Y56538D01*
X12265Y56501D01*
X12263Y56462D01*
X12265Y56415D01*
X12272Y56373D01*
X12282Y56334D01*
X12297Y56299D01*
X12315Y56269D01*
X12338Y56242D01*
X12364Y56220D01*
X12394Y56202D01*
X12427Y56188D01*
X12460Y56178D01*
X12495Y56172D01*
X12530Y56170D01*
X12561Y56172D01*
X12592Y56176D01*
X12622Y56184D01*
X12652Y56194D01*
X12680Y56207D01*
X12705Y56219D01*
X12725Y56232D01*
X12743Y56246D01*
X12743Y56381D01*
X12529Y56381D01*
X12529Y56381D01*
X12978Y56096D02*
X12978Y56823D01*
X13076Y56823D01*
X13458Y56252D01*
X13458Y56823D01*
X13551Y56823D01*
X13551Y56096D01*
X13452Y56096D01*
X13070Y56667D01*
X13070Y56096D01*
X12978Y56096D01*
X12978Y56096D01*
X13712Y56096D02*
X13712Y56823D01*
X13961Y56823D01*
X13961Y56737D01*
X13809Y56737D01*
X13809Y56182D01*
X13809Y56182D01*
X13964Y56182D01*
X13998Y56183D01*
X14028Y56185D01*
X14054Y56189D01*
X14077Y56195D01*
X14096Y56203D01*
X14114Y56211D01*
X14129Y56221D01*
X14142Y56233D01*
X14158Y56252D01*
X14172Y56273D01*
X14185Y56298D01*
X14195Y56325D01*
X14204Y56355D01*
X14210Y56389D01*
X14213Y56425D01*
X14214Y56465D01*
X14212Y56519D01*
X14205Y56566D01*
X14193Y56607D01*
X14177Y56640D01*
X14157Y56669D01*
X14136Y56692D01*
X14112Y56710D01*
X14086Y56723D01*
X14064Y56729D01*
X14035Y56734D01*
X14001Y56737D01*
X13961Y56737D01*
X13961Y56823D01*
X13963Y56823D01*
X14003Y56823D01*
X14038Y56821D01*
X14068Y56817D01*
X14092Y56813D01*
X14123Y56804D01*
X14150Y56793D01*
X14176Y56778D01*
X14199Y56761D01*
X14226Y56735D01*
X14249Y56705D01*
X14269Y56673D01*
X14285Y56636D01*
X14298Y56597D01*
X14307Y56555D01*
X14312Y56511D01*
X14314Y56464D01*
X14312Y56423D01*
X14309Y56385D01*
X14303Y56350D01*
X14294Y56317D01*
X14284Y56286D01*
X14272Y56258D01*
X14259Y56233D01*
X14245Y56211D01*
X14229Y56191D01*
X14213Y56173D01*
X14196Y56158D01*
X14178Y56145D01*
X14160Y56134D01*
X14139Y56124D01*
X14116Y56115D01*
X14092Y56108D01*
X14065Y56103D01*
X14037Y56099D01*
X14007Y56097D01*
X13975Y56096D01*
X13712Y56096D01*
X13712Y56096D01*
X12529Y53841D02*
X12529Y53927D01*
X12837Y53927D01*
X12837Y53657D01*
X12801Y53631D01*
X12765Y53608D01*
X12728Y53588D01*
X12690Y53572D01*
X12652Y53560D01*
X12614Y53551D01*
X12575Y53545D01*
X12536Y53544D01*
X12483Y53546D01*
X12433Y53555D01*
X12386Y53569D01*
X12341Y53589D01*
X12300Y53615D01*
X12264Y53646D01*
X12234Y53681D01*
X12209Y53722D01*
X12189Y53767D01*
X12175Y53814D01*
X12167Y53864D01*
X12164Y53916D01*
X12167Y53968D01*
X12175Y54019D01*
X12189Y54067D01*
X12208Y54114D01*
X12233Y54157D01*
X12263Y54195D01*
X12297Y54226D01*
X12336Y54251D01*
X12379Y54271D01*
X12426Y54285D01*
X12475Y54293D01*
X12528Y54296D01*
X12567Y54294D01*
X12603Y54289D01*
X12638Y54281D01*
X12671Y54270D01*
X12701Y54256D01*
X12728Y54240D01*
X12751Y54221D01*
X12771Y54199D01*
X12788Y54174D01*
X12803Y54146D01*
X12815Y54115D01*
X12826Y54080D01*
X12739Y54056D01*
X12730Y54082D01*
X12721Y54106D01*
X12710Y54126D01*
X12698Y54143D01*
X12685Y54158D01*
X12669Y54172D01*
X12650Y54184D01*
X12629Y54194D01*
X12606Y54203D01*
X12581Y54209D01*
X12556Y54212D01*
X12529Y54213D01*
X12497Y54212D01*
X12467Y54208D01*
X12440Y54202D01*
X12415Y54193D01*
X12392Y54182D01*
X12371Y54170D01*
X12353Y54156D01*
X12337Y54140D01*
X12323Y54124D01*
X12311Y54106D01*
X12300Y54088D01*
X12291Y54068D01*
X12279Y54034D01*
X12270Y53998D01*
X12265Y53961D01*
X12263Y53922D01*
X12265Y53875D01*
X12272Y53833D01*
X12282Y53794D01*
X12297Y53759D01*
X12315Y53729D01*
X12338Y53702D01*
X12364Y53680D01*
X12394Y53662D01*
X12427Y53648D01*
X12460Y53638D01*
X12495Y53632D01*
X12530Y53630D01*
X12561Y53632D01*
X12592Y53636D01*
X12622Y53644D01*
X12652Y53654D01*
X12680Y53667D01*
X12705Y53679D01*
X12725Y53692D01*
X12743Y53706D01*
X12743Y53841D01*
X12529Y53841D01*
X12529Y53841D01*
X12978Y53556D02*
X12978Y54283D01*
X13076Y54283D01*
X13458Y53712D01*
X13458Y54283D01*
X13551Y54283D01*
X13551Y53556D01*
X13452Y53556D01*
X13070Y54127D01*
X13070Y53556D01*
X12978Y53556D01*
X12978Y53556D01*
X13712Y53556D02*
X13712Y54283D01*
X13961Y54283D01*
X13961Y54197D01*
X13809Y54197D01*
X13809Y53642D01*
X13809Y53642D01*
X13964Y53642D01*
X13998Y53643D01*
X14028Y53645D01*
X14054Y53649D01*
X14077Y53655D01*
X14096Y53663D01*
X14114Y53671D01*
X14129Y53681D01*
X14142Y53693D01*
X14158Y53712D01*
X14172Y53733D01*
X14185Y53758D01*
X14195Y53785D01*
X14204Y53815D01*
X14210Y53849D01*
X14213Y53885D01*
X14214Y53925D01*
X14212Y53979D01*
X14205Y54026D01*
X14193Y54067D01*
X14177Y54100D01*
X14157Y54129D01*
X14136Y54152D01*
X14112Y54170D01*
X14086Y54183D01*
X14064Y54189D01*
X14035Y54194D01*
X14001Y54197D01*
X13961Y54197D01*
X13961Y54283D01*
X13963Y54283D01*
X14003Y54283D01*
X14038Y54281D01*
X14068Y54277D01*
X14092Y54273D01*
X14123Y54264D01*
X14150Y54253D01*
X14176Y54238D01*
X14199Y54221D01*
X14226Y54195D01*
X14249Y54165D01*
X14269Y54133D01*
X14285Y54096D01*
X14298Y54057D01*
X14307Y54015D01*
X14312Y53971D01*
X14314Y53924D01*
X14312Y53883D01*
X14309Y53845D01*
X14303Y53810D01*
X14294Y53777D01*
X14284Y53746D01*
X14272Y53718D01*
X14259Y53693D01*
X14245Y53671D01*
X14229Y53651D01*
X14213Y53633D01*
X14196Y53618D01*
X14178Y53605D01*
X14160Y53594D01*
X14139Y53584D01*
X14116Y53575D01*
X14092Y53568D01*
X14065Y53563D01*
X14037Y53559D01*
X14007Y53557D01*
X13975Y53556D01*
X13712Y53556D01*
X13712Y53556D01*
X12529Y51301D02*
X12529Y51387D01*
X12837Y51387D01*
X12837Y51117D01*
X12801Y51091D01*
X12765Y51068D01*
X12728Y51048D01*
X12690Y51032D01*
X12652Y51020D01*
X12614Y51011D01*
X12575Y51005D01*
X12536Y51004D01*
X12483Y51006D01*
X12433Y51015D01*
X12386Y51029D01*
X12341Y51049D01*
X12300Y51075D01*
X12264Y51106D01*
X12234Y51141D01*
X12209Y51182D01*
X12189Y51227D01*
X12175Y51274D01*
X12167Y51324D01*
X12164Y51376D01*
X12167Y51428D01*
X12175Y51479D01*
X12189Y51527D01*
X12208Y51574D01*
X12233Y51617D01*
X12263Y51655D01*
X12297Y51686D01*
X12336Y51711D01*
X12379Y51731D01*
X12426Y51745D01*
X12475Y51753D01*
X12528Y51756D01*
X12567Y51754D01*
X12603Y51749D01*
X12638Y51741D01*
X12671Y51730D01*
X12701Y51716D01*
X12728Y51700D01*
X12751Y51681D01*
X12771Y51659D01*
X12788Y51634D01*
X12803Y51606D01*
X12815Y51575D01*
X12826Y51540D01*
X12739Y51516D01*
X12730Y51542D01*
X12721Y51566D01*
X12710Y51586D01*
X12698Y51603D01*
X12685Y51618D01*
X12669Y51632D01*
X12650Y51644D01*
X12629Y51654D01*
X12606Y51663D01*
X12581Y51669D01*
X12556Y51672D01*
X12529Y51673D01*
X12497Y51672D01*
X12467Y51668D01*
X12440Y51662D01*
X12415Y51653D01*
X12392Y51642D01*
X12371Y51630D01*
X12353Y51616D01*
X12337Y51600D01*
X12323Y51584D01*
X12311Y51566D01*
X12300Y51548D01*
X12291Y51528D01*
X12279Y51494D01*
X12270Y51458D01*
X12265Y51421D01*
X12263Y51382D01*
X12265Y51335D01*
X12272Y51293D01*
X12282Y51254D01*
X12297Y51219D01*
X12315Y51189D01*
X12338Y51162D01*
X12364Y51140D01*
X12394Y51122D01*
X12427Y51108D01*
X12460Y51098D01*
X12495Y51092D01*
X12530Y51090D01*
X12561Y51092D01*
X12592Y51096D01*
X12622Y51104D01*
X12652Y51114D01*
X12680Y51127D01*
X12705Y51139D01*
X12725Y51152D01*
X12743Y51166D01*
X12743Y51301D01*
X12529Y51301D01*
X12529Y51301D01*
X12978Y51016D02*
X12978Y51743D01*
X13076Y51743D01*
X13458Y51172D01*
X13458Y51743D01*
X13551Y51743D01*
X13551Y51016D01*
X13452Y51016D01*
X13070Y51587D01*
X13070Y51016D01*
X12978Y51016D01*
X12978Y51016D01*
X13712Y51016D02*
X13712Y51743D01*
X13961Y51743D01*
X13961Y51657D01*
X13809Y51657D01*
X13809Y51102D01*
X13809Y51102D01*
X13964Y51102D01*
X13998Y51103D01*
X14028Y51105D01*
X14054Y51109D01*
X14077Y51115D01*
X14096Y51123D01*
X14114Y51131D01*
X14129Y51141D01*
X14142Y51153D01*
X14158Y51172D01*
X14172Y51193D01*
X14185Y51218D01*
X14195Y51245D01*
X14204Y51275D01*
X14210Y51309D01*
X14213Y51345D01*
X14214Y51385D01*
X14212Y51439D01*
X14205Y51486D01*
X14193Y51527D01*
X14177Y51560D01*
X14157Y51589D01*
X14136Y51612D01*
X14112Y51630D01*
X14086Y51643D01*
X14064Y51649D01*
X14035Y51654D01*
X14001Y51657D01*
X13961Y51657D01*
X13961Y51743D01*
X13963Y51743D01*
X14003Y51743D01*
X14038Y51741D01*
X14068Y51737D01*
X14092Y51733D01*
X14123Y51724D01*
X14150Y51713D01*
X14176Y51698D01*
X14199Y51681D01*
X14226Y51655D01*
X14249Y51625D01*
X14269Y51593D01*
X14285Y51556D01*
X14298Y51517D01*
X14307Y51475D01*
X14312Y51431D01*
X14314Y51384D01*
X14312Y51343D01*
X14309Y51305D01*
X14303Y51270D01*
X14294Y51237D01*
X14284Y51206D01*
X14272Y51178D01*
X14259Y51153D01*
X14245Y51131D01*
X14229Y51111D01*
X14213Y51093D01*
X14196Y51078D01*
X14178Y51065D01*
X14160Y51054D01*
X14139Y51044D01*
X14116Y51035D01*
X14092Y51028D01*
X14065Y51023D01*
X14037Y51019D01*
X14007Y51017D01*
X13975Y51016D01*
X13712Y51016D01*
X13712Y51016D01*
X1106Y41141D02*
X1106Y41227D01*
X1414Y41227D01*
X1414Y40957D01*
X1378Y40931D01*
X1342Y40908D01*
X1305Y40888D01*
X1268Y40872D01*
X1230Y40860D01*
X1191Y40851D01*
X1152Y40845D01*
X1113Y40844D01*
X1061Y40846D01*
X1011Y40855D01*
X0963Y40869D01*
X0918Y40889D01*
X0877Y40915D01*
X0841Y40946D01*
X0811Y40981D01*
X0786Y41022D01*
X0767Y41067D01*
X0753Y41114D01*
X0744Y41164D01*
X0741Y41216D01*
X0744Y41268D01*
X0752Y41319D01*
X0766Y41367D01*
X0786Y41414D01*
X0810Y41457D01*
X0840Y41495D01*
X0874Y41526D01*
X0914Y41551D01*
X0957Y41571D01*
X1003Y41585D01*
X1053Y41593D01*
X1106Y41596D01*
X1144Y41594D01*
X1181Y41589D01*
X1215Y41581D01*
X1248Y41570D01*
X1278Y41556D01*
X1305Y41540D01*
X1328Y41521D01*
X1348Y41499D01*
X1365Y41474D01*
X1380Y41446D01*
X1393Y41415D01*
X1403Y41380D01*
X1316Y41356D01*
X1308Y41382D01*
X1298Y41406D01*
X1287Y41426D01*
X1276Y41443D01*
X1262Y41458D01*
X1246Y41472D01*
X1227Y41484D01*
X1206Y41494D01*
X1183Y41503D01*
X1159Y41509D01*
X1133Y41512D01*
X1106Y41513D01*
X1074Y41512D01*
X1045Y41508D01*
X1017Y41502D01*
X0992Y41493D01*
X0969Y41482D01*
X0948Y41470D01*
X0930Y41456D01*
X0914Y41440D01*
X0900Y41424D01*
X0888Y41406D01*
X0877Y41388D01*
X0868Y41368D01*
X0856Y41334D01*
X0848Y41298D01*
X0842Y41261D01*
X0841Y41222D01*
X0843Y41175D01*
X0849Y41133D01*
X0859Y41094D01*
X0874Y41059D01*
X0893Y41029D01*
X0915Y41002D01*
X0941Y40980D01*
X0972Y40962D01*
X1004Y40948D01*
X1038Y40938D01*
X1072Y40932D01*
X1108Y40930D01*
X1139Y40932D01*
X1169Y40936D01*
X1200Y40944D01*
X1230Y40954D01*
X1258Y40967D01*
X1282Y40979D01*
X1303Y40992D01*
X1320Y41006D01*
X1320Y41141D01*
X1106Y41141D01*
X1106Y41141D01*
X1888Y40921D02*
X1864Y40901D01*
X1860Y40899D01*
X1826Y40949D01*
X1842Y40963D01*
X1856Y40980D01*
X1867Y40998D01*
X1873Y41015D01*
X1877Y41036D01*
X1880Y41060D01*
X1881Y41088D01*
X1881Y41120D01*
X1881Y41120D01*
X1854Y41111D01*
X1820Y41102D01*
X1781Y41094D01*
X1735Y41087D01*
X1710Y41083D01*
X1688Y41078D01*
X1671Y41074D01*
X1657Y41069D01*
X1646Y41063D01*
X1637Y41057D01*
X1629Y41049D01*
X1622Y41040D01*
X1617Y41030D01*
X1613Y41020D01*
X1610Y41009D01*
X1610Y40997D01*
X1611Y40980D01*
X1616Y40965D01*
X1625Y40951D01*
X1637Y40938D01*
X1652Y40927D01*
X1670Y40920D01*
X1691Y40916D01*
X1716Y40914D01*
X1741Y40915D01*
X1764Y40920D01*
X1787Y40927D01*
X1808Y40937D01*
X1826Y40949D01*
X1860Y40899D01*
X1840Y40885D01*
X1816Y40872D01*
X1793Y40861D01*
X1770Y40854D01*
X1745Y40848D01*
X1720Y40845D01*
X1694Y40844D01*
X1654Y40847D01*
X1618Y40855D01*
X1587Y40868D01*
X1561Y40887D01*
X1541Y40909D01*
X1526Y40935D01*
X1517Y40963D01*
X1514Y40995D01*
X1515Y41014D01*
X1519Y41032D01*
X1524Y41049D01*
X1532Y41066D01*
X1541Y41081D01*
X1552Y41094D01*
X1564Y41106D01*
X1578Y41117D01*
X1593Y41126D01*
X1608Y41134D01*
X1625Y41141D01*
X1642Y41146D01*
X1657Y41150D01*
X1675Y41153D01*
X1697Y41156D01*
X1722Y41160D01*
X1772Y41166D01*
X1816Y41174D01*
X1852Y41182D01*
X1881Y41190D01*
X1881Y41199D01*
X1881Y41205D01*
X1881Y41210D01*
X1881Y41214D01*
X1880Y41239D01*
X1875Y41260D01*
X1867Y41277D01*
X1856Y41291D01*
X1837Y41304D01*
X1814Y41313D01*
X1786Y41319D01*
X1754Y41321D01*
X1725Y41319D01*
X1700Y41315D01*
X1678Y41308D01*
X1661Y41299D01*
X1647Y41286D01*
X1635Y41268D01*
X1625Y41247D01*
X1617Y41221D01*
X1530Y41233D01*
X1537Y41259D01*
X1545Y41283D01*
X1556Y41304D01*
X1569Y41323D01*
X1584Y41339D01*
X1602Y41354D01*
X1623Y41366D01*
X1648Y41376D01*
X1675Y41384D01*
X1703Y41390D01*
X1734Y41394D01*
X1767Y41395D01*
X1799Y41394D01*
X1828Y41391D01*
X1854Y41386D01*
X1877Y41379D01*
X1897Y41370D01*
X1914Y41361D01*
X1928Y41350D01*
X1939Y41339D01*
X1948Y41326D01*
X1956Y41312D01*
X1962Y41296D01*
X1967Y41278D01*
X1969Y41264D01*
X1970Y41246D01*
X1971Y41223D01*
X1971Y41196D01*
X1971Y41077D01*
X1972Y41020D01*
X1973Y40975D01*
X1974Y40941D01*
X1977Y40919D01*
X1980Y40903D01*
X1985Y40887D01*
X1992Y40871D01*
X2000Y40856D01*
X1906Y40856D01*
X1900Y40870D01*
X1895Y40886D01*
X1891Y40903D01*
X1888Y40921D01*
X1888Y40921D01*
X2305Y40936D02*
X2318Y40857D01*
X2299Y40854D01*
X2282Y40851D01*
X2265Y40850D01*
X2250Y40849D01*
X2227Y40850D01*
X2207Y40853D01*
X2189Y40858D01*
X2175Y40864D01*
X2162Y40873D01*
X2152Y40882D01*
X2143Y40893D01*
X2137Y40905D01*
X2132Y40921D01*
X2129Y40944D01*
X2127Y40974D01*
X2126Y41010D01*
X2126Y41313D01*
X2061Y41313D01*
X2061Y41383D01*
X2126Y41383D01*
X2126Y41513D01*
X2215Y41567D01*
X2215Y41383D01*
X2305Y41383D01*
X2305Y41313D01*
X2215Y41313D01*
X2215Y41005D01*
X2215Y40988D01*
X2216Y40974D01*
X2217Y40963D01*
X2220Y40956D01*
X2222Y40951D01*
X2226Y40946D01*
X2230Y40942D01*
X2235Y40939D01*
X2241Y40936D01*
X2248Y40934D01*
X2256Y40933D01*
X2265Y40932D01*
X2273Y40933D01*
X2283Y40933D01*
X2293Y40934D01*
X2305Y40936D01*
X2305Y40936D01*
X2753Y41026D02*
X2845Y41014D01*
X2832Y40976D01*
X2814Y40942D01*
X2791Y40913D01*
X2764Y40889D01*
X2732Y40869D01*
X2697Y40855D01*
X2657Y40847D01*
X2613Y40844D01*
X2558Y40849D01*
X2510Y40862D01*
X2467Y40884D01*
X2430Y40915D01*
X2400Y40954D01*
X2379Y41001D01*
X2366Y41054D01*
X2362Y41115D01*
X2366Y41178D01*
X2379Y41233D01*
X2401Y41281D01*
X2431Y41321D01*
X2467Y41353D01*
X2509Y41376D01*
X2556Y41390D01*
X2608Y41395D01*
X2616Y41394D01*
X2609Y41321D01*
X2580Y41319D01*
X2553Y41311D01*
X2528Y41298D01*
X2506Y41280D01*
X2487Y41258D01*
X2473Y41232D01*
X2464Y41203D01*
X2459Y41170D01*
X2459Y41170D01*
X2754Y41170D01*
X2749Y41201D01*
X2742Y41228D01*
X2732Y41251D01*
X2720Y41270D01*
X2697Y41292D01*
X2671Y41308D01*
X2642Y41318D01*
X2609Y41321D01*
X2616Y41394D01*
X2659Y41390D01*
X2704Y41377D01*
X2745Y41354D01*
X2781Y41323D01*
X2810Y41283D01*
X2831Y41236D01*
X2844Y41182D01*
X2848Y41120D01*
X2848Y41116D01*
X2848Y41110D01*
X2848Y41104D01*
X2847Y41097D01*
X2454Y41097D01*
X2459Y41056D01*
X2469Y41020D01*
X2484Y40989D01*
X2504Y40964D01*
X2527Y40943D01*
X2553Y40929D01*
X2582Y40920D01*
X2614Y40918D01*
X2637Y40919D01*
X2659Y40924D01*
X2679Y40932D01*
X2698Y40943D01*
X2714Y40958D01*
X2729Y40977D01*
X2742Y40999D01*
X2753Y41026D01*
X2753Y41026D01*
X2076Y43651D02*
X2172Y43627D01*
X2154Y43571D01*
X2130Y43522D01*
X2100Y43481D01*
X2063Y43446D01*
X2022Y43419D01*
X1976Y43399D01*
X1926Y43387D01*
X1871Y43384D01*
X1815Y43387D01*
X1764Y43396D01*
X1719Y43411D01*
X1680Y43431D01*
X1645Y43458D01*
X1615Y43490D01*
X1589Y43527D01*
X1568Y43570D01*
X1551Y43616D01*
X1539Y43664D01*
X1532Y43714D01*
X1529Y43765D01*
X1532Y43820D01*
X1540Y43871D01*
X1554Y43919D01*
X1573Y43963D01*
X1597Y44003D01*
X1625Y44038D01*
X1658Y44067D01*
X1696Y44092D01*
X1737Y44111D01*
X1780Y44125D01*
X1825Y44133D01*
X1872Y44136D01*
X1925Y44132D01*
X1973Y44122D01*
X2017Y44104D01*
X2056Y44080D01*
X2090Y44050D01*
X2119Y44013D01*
X2142Y43971D01*
X2160Y43924D01*
X2065Y43902D01*
X2051Y43939D01*
X2034Y43970D01*
X2014Y43996D01*
X1992Y44017D01*
X1966Y44033D01*
X1937Y44044D01*
X1905Y44051D01*
X1871Y44053D01*
X1830Y44051D01*
X1794Y44043D01*
X1760Y44031D01*
X1730Y44013D01*
X1704Y43991D01*
X1682Y43966D01*
X1665Y43937D01*
X1651Y43905D01*
X1641Y43871D01*
X1634Y43836D01*
X1630Y43801D01*
X1628Y43766D01*
X1630Y43721D01*
X1635Y43679D01*
X1644Y43640D01*
X1655Y43604D01*
X1671Y43571D01*
X1690Y43543D01*
X1713Y43519D01*
X1740Y43500D01*
X1769Y43485D01*
X1799Y43475D01*
X1830Y43468D01*
X1863Y43466D01*
X1902Y43469D01*
X1938Y43478D01*
X1970Y43492D01*
X2000Y43513D01*
X2026Y43539D01*
X2047Y43571D01*
X2064Y43608D01*
X2076Y43651D01*
X2076Y43651D01*
X2499Y43396D02*
X2217Y44123D01*
X2321Y44123D01*
X2510Y43595D01*
X2521Y43564D01*
X2531Y43533D01*
X2540Y43504D01*
X2548Y43476D01*
X2557Y43506D01*
X2566Y43535D01*
X2577Y43565D01*
X2587Y43595D01*
X2784Y44123D01*
X2882Y44123D01*
X2597Y43396D01*
X2499Y43396D01*
X2499Y43396D01*
X0743Y48340D02*
X0743Y48539D01*
X0545Y48539D01*
X0545Y48622D01*
X0743Y48622D01*
X0743Y48820D01*
X0828Y48820D01*
X0828Y48622D01*
X1026Y48622D01*
X1026Y48539D01*
X0828Y48539D01*
X0828Y48340D01*
X0743Y48340D01*
X0743Y48340D01*
X1461Y48222D02*
X1371Y48222D01*
X1371Y48791D01*
X1354Y48776D01*
X1334Y48760D01*
X1312Y48745D01*
X1287Y48730D01*
X1261Y48715D01*
X1237Y48703D01*
X1214Y48692D01*
X1193Y48683D01*
X1193Y48770D01*
X1229Y48788D01*
X1263Y48809D01*
X1295Y48831D01*
X1324Y48855D01*
X1350Y48880D01*
X1372Y48904D01*
X1389Y48928D01*
X1403Y48952D01*
X1461Y48952D01*
X1461Y48222D01*
X1461Y48222D01*
X2159Y48308D02*
X2159Y48222D01*
X1678Y48222D01*
X1678Y48238D01*
X1680Y48254D01*
X1684Y48269D01*
X1688Y48284D01*
X1699Y48308D01*
X1712Y48333D01*
X1728Y48357D01*
X1747Y48381D01*
X1770Y48405D01*
X1797Y48432D01*
X1828Y48461D01*
X1864Y48491D01*
X1919Y48537D01*
X1963Y48578D01*
X1999Y48614D01*
X2024Y48645D01*
X2043Y48673D01*
X2056Y48700D01*
X2063Y48727D01*
X2066Y48752D01*
X2064Y48778D01*
X2056Y48801D01*
X2045Y48823D01*
X2028Y48842D01*
X2008Y48858D01*
X1984Y48869D01*
X1958Y48876D01*
X1929Y48878D01*
X1898Y48876D01*
X1871Y48869D01*
X1847Y48857D01*
X1826Y48840D01*
X1809Y48818D01*
X1797Y48793D01*
X1789Y48765D01*
X1787Y48732D01*
X1695Y48742D01*
X1703Y48790D01*
X1717Y48832D01*
X1738Y48868D01*
X1766Y48898D01*
X1799Y48922D01*
X1838Y48939D01*
X1882Y48949D01*
X1931Y48952D01*
X1981Y48949D01*
X2025Y48938D01*
X2063Y48920D01*
X2097Y48894D01*
X2123Y48863D01*
X2142Y48829D01*
X2154Y48792D01*
X2158Y48750D01*
X2157Y48729D01*
X2153Y48707D01*
X2148Y48686D01*
X2140Y48665D01*
X2129Y48643D01*
X2116Y48621D01*
X2100Y48599D01*
X2081Y48576D01*
X2056Y48550D01*
X2025Y48520D01*
X1988Y48486D01*
X1943Y48448D01*
X1906Y48417D01*
X1877Y48391D01*
X1855Y48371D01*
X1840Y48356D01*
X1829Y48344D01*
X1819Y48332D01*
X1810Y48320D01*
X1802Y48308D01*
X2159Y48308D01*
X2159Y48308D01*
X2499Y48222D02*
X2217Y48949D01*
X2321Y48949D01*
X2510Y48421D01*
X2521Y48390D01*
X2531Y48359D01*
X2540Y48330D01*
X2548Y48302D01*
X2557Y48332D01*
X2566Y48361D01*
X2577Y48391D01*
X2587Y48421D01*
X2784Y48949D01*
X2882Y48949D01*
X2597Y48222D01*
X2499Y48222D01*
X2499Y48222D01*
X1308Y46054D02*
X1308Y46253D01*
X1110Y46253D01*
X1110Y46336D01*
X1308Y46336D01*
X1308Y46534D01*
X1393Y46534D01*
X1393Y46336D01*
X1591Y46336D01*
X1591Y46253D01*
X1393Y46253D01*
X1393Y46054D01*
X1308Y46054D01*
X1308Y46054D01*
X1689Y46127D02*
X1783Y46134D01*
X1790Y46102D01*
X1800Y46074D01*
X1814Y46051D01*
X1832Y46031D01*
X1852Y46016D01*
X1873Y46006D01*
X1897Y45999D01*
X1923Y45997D01*
X1954Y46000D01*
X1983Y46009D01*
X2009Y46024D01*
X2032Y46046D01*
X2052Y46072D01*
X2066Y46102D01*
X2074Y46136D01*
X2077Y46175D01*
X2074Y46211D01*
X2066Y46243D01*
X2053Y46271D01*
X2034Y46295D01*
X2011Y46314D01*
X1984Y46328D01*
X1955Y46337D01*
X1922Y46339D01*
X1901Y46338D01*
X1881Y46334D01*
X1862Y46328D01*
X1844Y46320D01*
X1827Y46309D01*
X1813Y46297D01*
X1800Y46284D01*
X1789Y46269D01*
X1705Y46280D01*
X1776Y46653D01*
X2137Y46653D01*
X2137Y46568D01*
X1847Y46568D01*
X1808Y46373D01*
X1841Y46393D01*
X1875Y46407D01*
X1910Y46415D01*
X1945Y46418D01*
X1991Y46414D01*
X2033Y46402D01*
X2072Y46381D01*
X2106Y46352D01*
X2135Y46317D01*
X2155Y46277D01*
X2168Y46232D01*
X2172Y46183D01*
X2168Y46135D01*
X2157Y46091D01*
X2139Y46050D01*
X2114Y46012D01*
X2076Y45973D01*
X2031Y45946D01*
X1980Y45929D01*
X1923Y45924D01*
X1876Y45927D01*
X1833Y45937D01*
X1795Y45955D01*
X1761Y45979D01*
X1733Y46009D01*
X1712Y46044D01*
X1697Y46083D01*
X1689Y46127D01*
X1689Y46127D01*
X2499Y45936D02*
X2217Y46663D01*
X2321Y46663D01*
X2510Y46135D01*
X2521Y46104D01*
X2531Y46073D01*
X2540Y46044D01*
X2548Y46016D01*
X2557Y46046D01*
X2566Y46075D01*
X2577Y46105D01*
X2587Y46135D01*
X2784Y46663D01*
X2882Y46663D01*
X2597Y45936D01*
X2499Y45936D01*
X2499Y45936D01*
X1051Y51301D02*
X1051Y51387D01*
X1359Y51387D01*
X1359Y51117D01*
X1323Y51091D01*
X1287Y51068D01*
X1250Y51048D01*
X1213Y51032D01*
X1175Y51020D01*
X1136Y51011D01*
X1097Y51005D01*
X1058Y51004D01*
X1006Y51006D01*
X0956Y51015D01*
X0908Y51029D01*
X0863Y51049D01*
X0822Y51075D01*
X0786Y51106D01*
X0756Y51141D01*
X0731Y51182D01*
X0711Y51227D01*
X0697Y51274D01*
X0689Y51324D01*
X0686Y51376D01*
X0689Y51428D01*
X0697Y51479D01*
X0711Y51527D01*
X0731Y51574D01*
X0755Y51617D01*
X0785Y51655D01*
X0819Y51686D01*
X0858Y51711D01*
X0902Y51731D01*
X0948Y51745D01*
X0998Y51753D01*
X1050Y51756D01*
X1089Y51754D01*
X1126Y51749D01*
X1160Y51741D01*
X1193Y51730D01*
X1223Y51716D01*
X1250Y51700D01*
X1273Y51681D01*
X1293Y51659D01*
X1310Y51634D01*
X1325Y51606D01*
X1338Y51575D01*
X1348Y51540D01*
X1261Y51516D01*
X1253Y51542D01*
X1243Y51566D01*
X1232Y51586D01*
X1221Y51603D01*
X1207Y51618D01*
X1191Y51632D01*
X1172Y51644D01*
X1151Y51654D01*
X1128Y51663D01*
X1104Y51669D01*
X1078Y51672D01*
X1051Y51673D01*
X1019Y51672D01*
X0989Y51668D01*
X0962Y51662D01*
X0937Y51653D01*
X0914Y51642D01*
X0893Y51630D01*
X0875Y51616D01*
X0859Y51600D01*
X0845Y51584D01*
X0833Y51566D01*
X0822Y51548D01*
X0813Y51528D01*
X0801Y51494D01*
X0792Y51458D01*
X0787Y51421D01*
X0786Y51382D01*
X0788Y51335D01*
X0794Y51293D01*
X0804Y51254D01*
X0819Y51219D01*
X0838Y51189D01*
X0860Y51162D01*
X0886Y51140D01*
X0917Y51122D01*
X0949Y51108D01*
X0982Y51098D01*
X1017Y51092D01*
X1052Y51090D01*
X1083Y51092D01*
X1114Y51096D01*
X1145Y51104D01*
X1174Y51114D01*
X1202Y51127D01*
X1227Y51139D01*
X1248Y51152D01*
X1265Y51166D01*
X1265Y51301D01*
X1051Y51301D01*
X1051Y51301D01*
X1500Y51016D02*
X1500Y51743D01*
X1599Y51743D01*
X1981Y51172D01*
X1981Y51743D01*
X2073Y51743D01*
X2073Y51016D01*
X1974Y51016D01*
X1592Y51587D01*
X1592Y51016D01*
X1500Y51016D01*
X1500Y51016D01*
X2235Y51016D02*
X2235Y51743D01*
X2484Y51743D01*
X2484Y51657D01*
X2331Y51657D01*
X2331Y51102D01*
X2331Y51102D01*
X2486Y51102D01*
X2520Y51103D01*
X2550Y51105D01*
X2577Y51109D01*
X2599Y51115D01*
X2618Y51123D01*
X2636Y51131D01*
X2651Y51141D01*
X2664Y51153D01*
X2680Y51172D01*
X2695Y51193D01*
X2707Y51218D01*
X2718Y51245D01*
X2726Y51275D01*
X2732Y51309D01*
X2736Y51345D01*
X2737Y51385D01*
X2734Y51439D01*
X2727Y51486D01*
X2716Y51527D01*
X2699Y51560D01*
X2680Y51589D01*
X2658Y51612D01*
X2634Y51630D01*
X2608Y51643D01*
X2586Y51649D01*
X2558Y51654D01*
X2524Y51657D01*
X2484Y51657D01*
X2484Y51743D01*
X2485Y51743D01*
X2525Y51743D01*
X2560Y51741D01*
X2590Y51737D01*
X2615Y51733D01*
X2645Y51724D01*
X2673Y51713D01*
X2698Y51698D01*
X2721Y51681D01*
X2748Y51655D01*
X2772Y51625D01*
X2791Y51593D01*
X2807Y51556D01*
X2820Y51517D01*
X2829Y51475D01*
X2834Y51431D01*
X2836Y51384D01*
X2835Y51343D01*
X2831Y51305D01*
X2825Y51270D01*
X2817Y51237D01*
X2806Y51206D01*
X2794Y51178D01*
X2781Y51153D01*
X2767Y51131D01*
X2751Y51111D01*
X2735Y51093D01*
X2718Y51078D01*
X2701Y51065D01*
X2682Y51054D01*
X2661Y51044D01*
X2638Y51035D01*
X2614Y51028D01*
X2588Y51023D01*
X2559Y51019D01*
X2529Y51017D01*
X2497Y51016D01*
X2235Y51016D01*
X2235Y51016D01*
X1051Y53841D02*
X1051Y53927D01*
X1359Y53927D01*
X1359Y53657D01*
X1323Y53631D01*
X1287Y53608D01*
X1250Y53588D01*
X1213Y53572D01*
X1175Y53560D01*
X1136Y53551D01*
X1097Y53545D01*
X1058Y53544D01*
X1006Y53546D01*
X0956Y53555D01*
X0908Y53569D01*
X0863Y53589D01*
X0822Y53615D01*
X0786Y53646D01*
X0756Y53681D01*
X0731Y53722D01*
X0711Y53767D01*
X0697Y53814D01*
X0689Y53864D01*
X0686Y53916D01*
X0689Y53968D01*
X0697Y54019D01*
X0711Y54067D01*
X0731Y54114D01*
X0755Y54157D01*
X0785Y54195D01*
X0819Y54226D01*
X0858Y54251D01*
X0902Y54271D01*
X0948Y54285D01*
X0998Y54293D01*
X1050Y54296D01*
X1089Y54294D01*
X1126Y54289D01*
X1160Y54281D01*
X1193Y54270D01*
X1223Y54256D01*
X1250Y54240D01*
X1273Y54221D01*
X1293Y54199D01*
X1310Y54174D01*
X1325Y54146D01*
X1338Y54115D01*
X1348Y54080D01*
X1261Y54056D01*
X1253Y54082D01*
X1243Y54106D01*
X1232Y54126D01*
X1221Y54143D01*
X1207Y54158D01*
X1191Y54172D01*
X1172Y54184D01*
X1151Y54194D01*
X1128Y54203D01*
X1104Y54209D01*
X1078Y54212D01*
X1051Y54213D01*
X1019Y54212D01*
X0989Y54208D01*
X0962Y54202D01*
X0937Y54193D01*
X0914Y54182D01*
X0893Y54170D01*
X0875Y54156D01*
X0859Y54140D01*
X0845Y54124D01*
X0833Y54106D01*
X0822Y54088D01*
X0813Y54068D01*
X0801Y54034D01*
X0792Y53998D01*
X0787Y53961D01*
X0786Y53922D01*
X0788Y53875D01*
X0794Y53833D01*
X0804Y53794D01*
X0819Y53759D01*
X0838Y53729D01*
X0860Y53702D01*
X0886Y53680D01*
X0917Y53662D01*
X0949Y53648D01*
X0982Y53638D01*
X1017Y53632D01*
X1052Y53630D01*
X1083Y53632D01*
X1114Y53636D01*
X1145Y53644D01*
X1174Y53654D01*
X1202Y53667D01*
X1227Y53679D01*
X1248Y53692D01*
X1265Y53706D01*
X1265Y53841D01*
X1051Y53841D01*
X1051Y53841D01*
X1500Y53556D02*
X1500Y54283D01*
X1599Y54283D01*
X1981Y53712D01*
X1981Y54283D01*
X2073Y54283D01*
X2073Y53556D01*
X1974Y53556D01*
X1592Y54127D01*
X1592Y53556D01*
X1500Y53556D01*
X1500Y53556D01*
X2235Y53556D02*
X2235Y54283D01*
X2484Y54283D01*
X2484Y54197D01*
X2331Y54197D01*
X2331Y53642D01*
X2331Y53642D01*
X2486Y53642D01*
X2520Y53643D01*
X2550Y53645D01*
X2577Y53649D01*
X2599Y53655D01*
X2618Y53663D01*
X2636Y53671D01*
X2651Y53681D01*
X2664Y53693D01*
X2680Y53712D01*
X2695Y53733D01*
X2707Y53758D01*
X2718Y53785D01*
X2726Y53815D01*
X2732Y53849D01*
X2736Y53885D01*
X2737Y53925D01*
X2734Y53979D01*
X2727Y54026D01*
X2716Y54067D01*
X2699Y54100D01*
X2680Y54129D01*
X2658Y54152D01*
X2634Y54170D01*
X2608Y54183D01*
X2586Y54189D01*
X2558Y54194D01*
X2524Y54197D01*
X2484Y54197D01*
X2484Y54283D01*
X2485Y54283D01*
X2525Y54283D01*
X2560Y54281D01*
X2590Y54277D01*
X2615Y54273D01*
X2645Y54264D01*
X2673Y54253D01*
X2698Y54238D01*
X2721Y54221D01*
X2748Y54195D01*
X2772Y54165D01*
X2791Y54133D01*
X2807Y54096D01*
X2820Y54057D01*
X2829Y54015D01*
X2834Y53971D01*
X2836Y53924D01*
X2835Y53883D01*
X2831Y53845D01*
X2825Y53810D01*
X2817Y53777D01*
X2806Y53746D01*
X2794Y53718D01*
X2781Y53693D01*
X2767Y53671D01*
X2751Y53651D01*
X2735Y53633D01*
X2718Y53618D01*
X2701Y53605D01*
X2682Y53594D01*
X2661Y53584D01*
X2638Y53575D01*
X2614Y53568D01*
X2588Y53563D01*
X2559Y53559D01*
X2529Y53557D01*
X2497Y53556D01*
X2235Y53556D01*
X2235Y53556D01*
X1051Y56381D02*
X1051Y56467D01*
X1359Y56467D01*
X1359Y56197D01*
X1323Y56171D01*
X1287Y56148D01*
X1250Y56128D01*
X1213Y56112D01*
X1175Y56100D01*
X1136Y56091D01*
X1097Y56085D01*
X1058Y56084D01*
X1006Y56086D01*
X0956Y56095D01*
X0908Y56109D01*
X0863Y56129D01*
X0822Y56155D01*
X0786Y56186D01*
X0756Y56221D01*
X0731Y56262D01*
X0711Y56307D01*
X0697Y56354D01*
X0689Y56404D01*
X0686Y56456D01*
X0689Y56508D01*
X0697Y56559D01*
X0711Y56607D01*
X0731Y56654D01*
X0755Y56697D01*
X0785Y56735D01*
X0819Y56766D01*
X0858Y56791D01*
X0902Y56811D01*
X0948Y56825D01*
X0998Y56833D01*
X1050Y56836D01*
X1089Y56834D01*
X1126Y56829D01*
X1160Y56821D01*
X1193Y56810D01*
X1223Y56796D01*
X1250Y56780D01*
X1273Y56761D01*
X1293Y56739D01*
X1310Y56714D01*
X1325Y56686D01*
X1338Y56655D01*
X1348Y56620D01*
X1261Y56596D01*
X1253Y56622D01*
X1243Y56646D01*
X1232Y56666D01*
X1221Y56683D01*
X1207Y56698D01*
X1191Y56712D01*
X1172Y56724D01*
X1151Y56734D01*
X1128Y56743D01*
X1104Y56749D01*
X1078Y56752D01*
X1051Y56753D01*
X1019Y56752D01*
X0989Y56748D01*
X0962Y56742D01*
X0937Y56733D01*
X0914Y56722D01*
X0893Y56710D01*
X0875Y56696D01*
X0859Y56680D01*
X0845Y56664D01*
X0833Y56646D01*
X0822Y56628D01*
X0813Y56608D01*
X0801Y56574D01*
X0792Y56538D01*
X0787Y56501D01*
X0786Y56462D01*
X0788Y56415D01*
X0794Y56373D01*
X0804Y56334D01*
X0819Y56299D01*
X0838Y56269D01*
X0860Y56242D01*
X0886Y56220D01*
X0917Y56202D01*
X0949Y56188D01*
X0982Y56178D01*
X1017Y56172D01*
X1052Y56170D01*
X1083Y56172D01*
X1114Y56176D01*
X1145Y56184D01*
X1174Y56194D01*
X1202Y56207D01*
X1227Y56219D01*
X1248Y56232D01*
X1265Y56246D01*
X1265Y56381D01*
X1051Y56381D01*
X1051Y56381D01*
X1500Y56096D02*
X1500Y56823D01*
X1599Y56823D01*
X1981Y56252D01*
X1981Y56823D01*
X2073Y56823D01*
X2073Y56096D01*
X1974Y56096D01*
X1592Y56667D01*
X1592Y56096D01*
X1500Y56096D01*
X1500Y56096D01*
X2235Y56096D02*
X2235Y56823D01*
X2484Y56823D01*
X2484Y56737D01*
X2331Y56737D01*
X2331Y56182D01*
X2331Y56182D01*
X2486Y56182D01*
X2520Y56183D01*
X2550Y56185D01*
X2577Y56189D01*
X2599Y56195D01*
X2618Y56203D01*
X2636Y56211D01*
X2651Y56221D01*
X2664Y56233D01*
X2680Y56252D01*
X2695Y56273D01*
X2707Y56298D01*
X2718Y56325D01*
X2726Y56355D01*
X2732Y56389D01*
X2736Y56425D01*
X2737Y56465D01*
X2734Y56519D01*
X2727Y56566D01*
X2716Y56607D01*
X2699Y56640D01*
X2680Y56669D01*
X2658Y56692D01*
X2634Y56710D01*
X2608Y56723D01*
X2586Y56729D01*
X2558Y56734D01*
X2524Y56737D01*
X2484Y56737D01*
X2484Y56823D01*
X2485Y56823D01*
X2525Y56823D01*
X2560Y56821D01*
X2590Y56817D01*
X2615Y56813D01*
X2645Y56804D01*
X2673Y56793D01*
X2698Y56778D01*
X2721Y56761D01*
X2748Y56735D01*
X2772Y56705D01*
X2791Y56673D01*
X2807Y56636D01*
X2820Y56597D01*
X2829Y56555D01*
X2834Y56511D01*
X2836Y56464D01*
X2835Y56423D01*
X2831Y56385D01*
X2825Y56350D01*
X2817Y56317D01*
X2806Y56286D01*
X2794Y56258D01*
X2781Y56233D01*
X2767Y56211D01*
X2751Y56191D01*
X2735Y56173D01*
X2718Y56158D01*
X2701Y56145D01*
X2682Y56134D01*
X2661Y56124D01*
X2638Y56115D01*
X2614Y56108D01*
X2588Y56103D01*
X2559Y56099D01*
X2529Y56097D01*
X2497Y56096D01*
X2235Y56096D01*
X2235Y56096D01*
X0776Y58854D02*
X0776Y58944D01*
X1050Y58944D01*
X1050Y58854D01*
X0776Y58854D01*
X0776Y58854D01*
X1461Y58636D02*
X1371Y58636D01*
X1371Y59205D01*
X1354Y59190D01*
X1334Y59174D01*
X1312Y59159D01*
X1287Y59144D01*
X1261Y59129D01*
X1237Y59117D01*
X1214Y59106D01*
X1193Y59097D01*
X1193Y59184D01*
X1229Y59202D01*
X1263Y59223D01*
X1295Y59245D01*
X1324Y59269D01*
X1350Y59294D01*
X1372Y59318D01*
X1389Y59342D01*
X1403Y59366D01*
X1461Y59366D01*
X1461Y58636D01*
X1461Y58636D01*
X2159Y58722D02*
X2159Y58636D01*
X1678Y58636D01*
X1678Y58652D01*
X1680Y58668D01*
X1684Y58683D01*
X1688Y58698D01*
X1699Y58722D01*
X1712Y58747D01*
X1728Y58771D01*
X1747Y58795D01*
X1770Y58819D01*
X1797Y58846D01*
X1828Y58875D01*
X1864Y58905D01*
X1919Y58951D01*
X1963Y58992D01*
X1999Y59028D01*
X2024Y59059D01*
X2043Y59087D01*
X2056Y59114D01*
X2063Y59141D01*
X2066Y59166D01*
X2064Y59192D01*
X2056Y59215D01*
X2045Y59237D01*
X2028Y59256D01*
X2008Y59272D01*
X1984Y59283D01*
X1958Y59290D01*
X1929Y59292D01*
X1898Y59290D01*
X1871Y59283D01*
X1847Y59271D01*
X1826Y59254D01*
X1809Y59232D01*
X1797Y59207D01*
X1789Y59179D01*
X1787Y59146D01*
X1695Y59156D01*
X1703Y59204D01*
X1717Y59246D01*
X1738Y59282D01*
X1766Y59312D01*
X1799Y59336D01*
X1838Y59353D01*
X1882Y59363D01*
X1931Y59366D01*
X1981Y59363D01*
X2025Y59352D01*
X2063Y59334D01*
X2097Y59308D01*
X2123Y59277D01*
X2142Y59243D01*
X2154Y59206D01*
X2158Y59164D01*
X2157Y59143D01*
X2153Y59121D01*
X2148Y59100D01*
X2140Y59079D01*
X2129Y59057D01*
X2116Y59035D01*
X2100Y59013D01*
X2081Y58990D01*
X2056Y58964D01*
X2025Y58934D01*
X1988Y58900D01*
X1943Y58862D01*
X1906Y58831D01*
X1877Y58805D01*
X1855Y58785D01*
X1840Y58770D01*
X1829Y58758D01*
X1819Y58746D01*
X1810Y58734D01*
X1802Y58722D01*
X2159Y58722D01*
X2159Y58722D01*
X2499Y58636D02*
X2217Y59363D01*
X2321Y59363D01*
X2510Y58835D01*
X2521Y58804D01*
X2531Y58773D01*
X2540Y58744D01*
X2548Y58716D01*
X2557Y58746D01*
X2566Y58775D01*
X2577Y58805D01*
X2587Y58835D01*
X2784Y59363D01*
X2882Y59363D01*
X2597Y58636D01*
X2499Y58636D01*
X2499Y58636D01*
G37*
%LNtop silkscreen component c4a17d9daec634e0*%
G36*
X14571Y85597D02*
X14486Y85585D01*
X14483Y85623D01*
X14476Y85654D01*
X14467Y85679D01*
X14455Y85697D01*
X14440Y85711D01*
X14422Y85720D01*
X14402Y85726D01*
X14379Y85728D01*
X14362Y85727D01*
X14346Y85724D01*
X14331Y85719D01*
X14318Y85711D01*
X14306Y85702D01*
X14296Y85692D01*
X14288Y85680D01*
X14282Y85667D01*
X14278Y85651D01*
X14275Y85631D01*
X14273Y85606D01*
X14272Y85577D01*
X14272Y85084D01*
X14178Y85084D01*
X14178Y85572D01*
X14179Y85614D01*
X14183Y85652D01*
X14190Y85684D01*
X14199Y85711D01*
X14212Y85734D01*
X14227Y85755D01*
X14246Y85772D01*
X14268Y85786D01*
X14293Y85798D01*
X14319Y85806D01*
X14348Y85811D01*
X14379Y85812D01*
X14423Y85809D01*
X14462Y85799D01*
X14495Y85782D01*
X14523Y85758D01*
X14545Y85728D01*
X14560Y85691D01*
X14569Y85647D01*
X14571Y85597D01*
X14571Y85597D01*
X13727Y85800D02*
X13815Y85800D01*
X13815Y85240D01*
X13832Y85255D01*
X13852Y85270D01*
X13874Y85285D01*
X13899Y85300D01*
X13924Y85315D01*
X13947Y85327D01*
X13970Y85337D01*
X13991Y85346D01*
X13991Y85261D01*
X13955Y85243D01*
X13922Y85223D01*
X13891Y85201D01*
X13862Y85177D01*
X13837Y85152D01*
X13815Y85128D01*
X13798Y85105D01*
X13784Y85081D01*
X13727Y85081D01*
X13727Y85800D01*
X13727Y85800D01*
G37*
%LNtop silkscreen component 7181846da7d0c534*%
G36*
X14571Y70597D02*
X14486Y70585D01*
X14483Y70623D01*
X14476Y70654D01*
X14467Y70679D01*
X14455Y70697D01*
X14440Y70711D01*
X14422Y70720D01*
X14402Y70726D01*
X14379Y70728D01*
X14362Y70727D01*
X14346Y70724D01*
X14331Y70719D01*
X14318Y70711D01*
X14306Y70702D01*
X14296Y70692D01*
X14288Y70680D01*
X14282Y70667D01*
X14278Y70651D01*
X14275Y70631D01*
X14273Y70606D01*
X14272Y70577D01*
X14272Y70084D01*
X14178Y70084D01*
X14178Y70572D01*
X14179Y70614D01*
X14183Y70652D01*
X14190Y70684D01*
X14199Y70711D01*
X14212Y70734D01*
X14227Y70755D01*
X14246Y70772D01*
X14268Y70786D01*
X14293Y70798D01*
X14319Y70806D01*
X14348Y70811D01*
X14379Y70812D01*
X14423Y70809D01*
X14462Y70799D01*
X14495Y70782D01*
X14523Y70758D01*
X14545Y70728D01*
X14560Y70691D01*
X14569Y70647D01*
X14571Y70597D01*
X14571Y70597D01*
X13597Y70716D02*
X13597Y70800D01*
X14070Y70800D01*
X14069Y70784D01*
X14068Y70769D01*
X14064Y70754D01*
X14059Y70739D01*
X14049Y70715D01*
X14036Y70691D01*
X14020Y70667D01*
X14002Y70644D01*
X13979Y70619D01*
X13953Y70593D01*
X13922Y70565D01*
X13887Y70535D01*
X13833Y70490D01*
X13789Y70450D01*
X13754Y70414D01*
X13729Y70384D01*
X13711Y70356D01*
X13698Y70329D01*
X13690Y70303D01*
X13688Y70278D01*
X13690Y70253D01*
X13697Y70230D01*
X13709Y70209D01*
X13725Y70190D01*
X13745Y70174D01*
X13768Y70163D01*
X13794Y70156D01*
X13823Y70154D01*
X13853Y70156D01*
X13880Y70164D01*
X13904Y70175D01*
X13924Y70192D01*
X13941Y70213D01*
X13953Y70238D01*
X13960Y70266D01*
X13963Y70298D01*
X14053Y70288D01*
X14045Y70241D01*
X14031Y70199D01*
X14010Y70164D01*
X13983Y70134D01*
X13950Y70111D01*
X13912Y70094D01*
X13869Y70085D01*
X13821Y70081D01*
X13772Y70085D01*
X13728Y70096D01*
X13690Y70113D01*
X13658Y70138D01*
X13631Y70169D01*
X13613Y70202D01*
X13601Y70239D01*
X13598Y70280D01*
X13599Y70301D01*
X13602Y70323D01*
X13607Y70344D01*
X13615Y70364D01*
X13625Y70385D01*
X13638Y70407D01*
X13655Y70429D01*
X13673Y70452D01*
X13697Y70477D01*
X13728Y70506D01*
X13765Y70540D01*
X13809Y70578D01*
X13845Y70608D01*
X13874Y70634D01*
X13896Y70653D01*
X13911Y70668D01*
X13921Y70680D01*
X13931Y70692D01*
X13940Y70704D01*
X13948Y70716D01*
X13597Y70716D01*
X13597Y70716D01*
G37*
%LNtop silkscreen component 4f4feb6d3cd8b477*%
G36*
X14571Y20597D02*
X14486Y20585D01*
X14483Y20623D01*
X14476Y20654D01*
X14467Y20679D01*
X14455Y20697D01*
X14440Y20711D01*
X14422Y20720D01*
X14402Y20726D01*
X14379Y20728D01*
X14362Y20727D01*
X14346Y20724D01*
X14331Y20719D01*
X14318Y20711D01*
X14306Y20702D01*
X14296Y20692D01*
X14288Y20680D01*
X14282Y20667D01*
X14278Y20651D01*
X14275Y20631D01*
X14273Y20606D01*
X14272Y20577D01*
X14272Y20084D01*
X14178Y20084D01*
X14178Y20572D01*
X14179Y20614D01*
X14183Y20652D01*
X14190Y20684D01*
X14199Y20711D01*
X14212Y20734D01*
X14227Y20755D01*
X14246Y20772D01*
X14268Y20786D01*
X14293Y20798D01*
X14319Y20806D01*
X14348Y20811D01*
X14379Y20812D01*
X14423Y20809D01*
X14462Y20799D01*
X14495Y20782D01*
X14523Y20758D01*
X14545Y20728D01*
X14560Y20691D01*
X14569Y20647D01*
X14571Y20597D01*
X14571Y20597D01*
X14058Y20611D02*
X13970Y20599D01*
X13961Y20634D01*
X13950Y20664D01*
X13935Y20688D01*
X13919Y20707D01*
X13899Y20721D01*
X13878Y20732D01*
X13855Y20738D01*
X13830Y20740D01*
X13800Y20737D01*
X13773Y20729D01*
X13748Y20716D01*
X13725Y20697D01*
X13707Y20674D01*
X13693Y20649D01*
X13685Y20621D01*
X13682Y20591D01*
X13685Y20562D01*
X13692Y20535D01*
X13705Y20512D01*
X13722Y20491D01*
X13743Y20473D01*
X13767Y20461D01*
X13793Y20454D01*
X13823Y20451D01*
X13836Y20452D01*
X13851Y20454D01*
X13867Y20457D01*
X13885Y20461D01*
X13875Y20384D01*
X13871Y20384D01*
X13867Y20385D01*
X13864Y20385D01*
X13861Y20385D01*
X13833Y20383D01*
X13807Y20378D01*
X13783Y20368D01*
X13760Y20356D01*
X13740Y20339D01*
X13726Y20318D01*
X13718Y20294D01*
X13715Y20265D01*
X13717Y20242D01*
X13723Y20221D01*
X13733Y20202D01*
X13747Y20185D01*
X13765Y20171D01*
X13785Y20161D01*
X13807Y20155D01*
X13832Y20154D01*
X13856Y20156D01*
X13879Y20162D01*
X13899Y20172D01*
X13917Y20186D01*
X13933Y20204D01*
X13945Y20226D01*
X13955Y20252D01*
X13961Y20282D01*
X14049Y20267D01*
X14039Y20225D01*
X14023Y20188D01*
X14002Y20157D01*
X13976Y20130D01*
X13946Y20109D01*
X13912Y20093D01*
X13875Y20084D01*
X13834Y20081D01*
X13805Y20083D01*
X13778Y20088D01*
X13751Y20095D01*
X13726Y20106D01*
X13703Y20120D01*
X13682Y20136D01*
X13665Y20154D01*
X13651Y20175D01*
X13639Y20197D01*
X13631Y20220D01*
X13626Y20243D01*
X13624Y20267D01*
X13626Y20290D01*
X13631Y20312D01*
X13638Y20332D01*
X13649Y20352D01*
X13663Y20370D01*
X13680Y20386D01*
X13700Y20400D01*
X13723Y20412D01*
X13693Y20422D01*
X13667Y20435D01*
X13644Y20452D01*
X13624Y20473D01*
X13609Y20498D01*
X13598Y20525D01*
X13591Y20555D01*
X13589Y20589D01*
X13593Y20634D01*
X13606Y20675D01*
X13628Y20713D01*
X13658Y20748D01*
X13694Y20776D01*
X13735Y20796D01*
X13780Y20809D01*
X13830Y20813D01*
X13876Y20809D01*
X13917Y20799D01*
X13954Y20781D01*
X13987Y20757D01*
X14015Y20726D01*
X14036Y20692D01*
X14050Y20654D01*
X14058Y20611D01*
X14058Y20611D01*
G37*
%LNtop silkscreen component 0fe11ed52ced882b*%
G36*
X14571Y5597D02*
X14486Y5585D01*
X14483Y5623D01*
X14476Y5654D01*
X14467Y5679D01*
X14455Y5697D01*
X14440Y5711D01*
X14422Y5720D01*
X14402Y5726D01*
X14379Y5728D01*
X14362Y5727D01*
X14346Y5724D01*
X14331Y5719D01*
X14318Y5711D01*
X14306Y5702D01*
X14296Y5692D01*
X14288Y5680D01*
X14282Y5667D01*
X14278Y5651D01*
X14275Y5631D01*
X14273Y5606D01*
X14272Y5577D01*
X14272Y5084D01*
X14178Y5084D01*
X14178Y5572D01*
X14179Y5614D01*
X14183Y5652D01*
X14190Y5684D01*
X14199Y5711D01*
X14212Y5734D01*
X14227Y5755D01*
X14246Y5772D01*
X14268Y5786D01*
X14293Y5798D01*
X14319Y5806D01*
X14348Y5811D01*
X14379Y5812D01*
X14423Y5809D01*
X14462Y5799D01*
X14495Y5782D01*
X14523Y5758D01*
X14545Y5728D01*
X14560Y5691D01*
X14569Y5647D01*
X14571Y5597D01*
X14571Y5597D01*
X13777Y5800D02*
X13777Y5629D01*
X14087Y5629D01*
X14087Y5548D01*
X13832Y5186D01*
X13777Y5225D01*
X14001Y5548D01*
X13777Y5548D01*
X13777Y5548D01*
X13777Y5225D01*
X13832Y5186D01*
X13761Y5084D01*
X13689Y5084D01*
X13689Y5548D01*
X13592Y5548D01*
X13592Y5629D01*
X13689Y5629D01*
X13689Y5800D01*
X13777Y5800D01*
X13777Y5800D01*
G37*
M02*