<?xml version="1.0" standalone="no"?>
<!DOCTYPE svg PUBLIC "-//W3C//DTD SVG 1.1//EN" "http://www.w3.org/Graphics/SVG/1.1/DTD/svg11.dtd">
<svg width="20mm" height="129mm" viewBox="0 -129 20 129" xmlns="http://www.w3.org/2000/svg" version="1.1">
<title>OpenSCAD Model</title>
<path d="
M 20,-128.5 L 0,-128.5 L 0,-0 L 20,-0 z
M 7.34317,-123.908 L 7.18785,-123.931 L 7.03554,-123.969 L 6.8877,-124.022 L 6.74576,-124.089 L 6.61108,-124.17
 L 6.48497,-124.263 L 6.36862,-124.369 L 6.26317,-124.485 L 6.16965,-124.611 L 6.08891,-124.746 L 6.02179,-124.888
 L 5.96889,-125.036 L 5.93074,-125.188 L 5.9077,-125.343 L 5.89999,-125.5 L 5.9077,-125.657 L 5.93074,-125.812
 L 5.96889,-125.964 L 6.02179,-126.112 L 6.08891,-126.254 L 6.16965,-126.389 L 6.26317,-126.515 L 6.36862,-126.631
 L 6.48497,-126.737 L 6.61108,-126.83 L 6.74576,-126.911 L 6.8877,-126.978 L 7.03554,-127.031 L 7.18785,-127.069
 L 7.34317,-127.092 L 7.5,-127.1 L 7.65681,-127.092 L 7.81213,-127.069 L 7.96445,-127.031 L 8.11229,-126.978
 L 8.25423,-126.911 L 8.3889,-126.83 L 8.51501,-126.737 L 8.63136,-126.631 L 8.73682,-126.515 L 8.83034,-126.389
 L 8.91107,-126.254 L 8.9782,-126.112 L 9.0311,-125.964 L 9.06924,-125.812 L 9.09229,-125.657 L 9.09999,-125.5
 L 9.09229,-125.343 L 9.06924,-125.188 L 9.0311,-125.036 L 8.9782,-124.888 L 8.91107,-124.746 L 8.83034,-124.611
 L 8.73682,-124.485 L 8.63136,-124.369 L 8.51501,-124.263 L 8.3889,-124.17 L 8.25423,-124.089 L 8.11229,-124.022
 L 7.96445,-123.969 L 7.81213,-123.931 L 7.65681,-123.908 L 7.5,-123.9 z
M 13.0069,-100.767 L 12.6672,-100.817 L 12.334,-100.901 L 12.0106,-101.016 L 11.7001,-101.163 L 11.4055,-101.34
 L 11.1296,-101.544 L 10.8751,-101.775 L 10.6445,-102.03 L 10.4398,-102.305 L 10.2633,-102.6 L 10.1164,-102.911
 L 10.0007,-103.234 L 9.91725,-103.567 L 9.86685,-103.907 L 9.84999,-104.25 L 9.86685,-104.593 L 9.91725,-104.933
 L 10.0007,-105.266 L 10.1164,-105.589 L 10.2633,-105.9 L 10.4398,-106.194 L 10.6445,-106.47 L 10.8751,-106.725
 L 11.1296,-106.956 L 11.4055,-107.16 L 11.7001,-107.337 L 12.0106,-107.484 L 12.334,-107.599 L 12.6672,-107.683
 L 13.0069,-107.733 L 13.35,-107.75 L 13.693,-107.733 L 14.0328,-107.683 L 14.366,-107.599 L 14.6894,-107.484
 L 14.9999,-107.337 L 15.2945,-107.16 L 15.5704,-106.956 L 15.8249,-106.725 L 16.0555,-106.47 L 16.2601,-106.194
 L 16.4367,-105.9 L 16.5836,-105.589 L 16.6993,-105.266 L 16.7827,-104.933 L 16.8331,-104.593 L 16.85,-104.25
 L 16.8331,-103.907 L 16.7827,-103.567 L 16.6993,-103.234 L 16.5836,-102.911 L 16.4367,-102.6 L 16.2601,-102.305
 L 16.0555,-102.03 L 15.8249,-101.775 L 15.5704,-101.544 L 15.2945,-101.34 L 14.9999,-101.163 L 14.6894,-101.016
 L 14.366,-100.901 L 14.0328,-100.817 L 13.693,-100.767 L 13.35,-100.75 z
M 13.0069,-85.7668 L 12.6672,-85.8172 L 12.334,-85.9007 L 12.0106,-86.0164 L 11.7001,-86.1633 L 11.4055,-86.3398
 L 11.1296,-86.5444 L 10.8751,-86.7751 L 10.6445,-87.0296 L 10.4398,-87.3055 L 10.2633,-87.6001 L 10.1164,-87.9106
 L 10.0007,-88.234 L 9.91725,-88.5672 L 9.86685,-88.9069 L 9.84999,-89.25 L 9.86685,-89.593 L 9.91725,-89.9328
 L 10.0007,-90.266 L 10.1164,-90.5894 L 10.2633,-90.8999 L 10.4398,-91.1945 L 10.6445,-91.4704 L 10.8751,-91.7249
 L 11.1296,-91.9555 L 11.4055,-92.1601 L 11.7001,-92.3367 L 12.0106,-92.4836 L 12.334,-92.5993 L 12.6672,-92.6827
 L 13.0069,-92.7331 L 13.35,-92.75 L 13.693,-92.7331 L 14.0328,-92.6827 L 14.366,-92.5993 L 14.6894,-92.4836
 L 14.9999,-92.3367 L 15.2945,-92.1601 L 15.5704,-91.9555 L 15.8249,-91.7249 L 16.0555,-91.4704 L 16.2601,-91.1945
 L 16.4367,-90.8999 L 16.5836,-90.5894 L 16.6993,-90.266 L 16.7827,-89.9328 L 16.8331,-89.593 L 16.85,-89.25
 L 16.8331,-88.9069 L 16.7827,-88.5672 L 16.6993,-88.234 L 16.5836,-87.9106 L 16.4367,-87.6001 L 16.2601,-87.3055
 L 16.0555,-87.0296 L 15.8249,-86.7751 L 15.5704,-86.5444 L 15.2945,-86.3398 L 14.9999,-86.1633 L 14.6894,-86.0164
 L 14.366,-85.9007 L 14.0328,-85.8172 L 13.693,-85.7668 L 13.35,-85.75 z
M 13.0069,-35.7668 L 12.6672,-35.8172 L 12.334,-35.9007 L 12.0106,-36.0164 L 11.7001,-36.1633 L 11.4055,-36.3398
 L 11.1296,-36.5444 L 10.8751,-36.7751 L 10.6445,-37.0296 L 10.4398,-37.3055 L 10.2633,-37.6001 L 10.1164,-37.9106
 L 10.0007,-38.234 L 9.91725,-38.5672 L 9.86685,-38.9069 L 9.84999,-39.25 L 9.86685,-39.593 L 9.91725,-39.9328
 L 10.0007,-40.266 L 10.1164,-40.5894 L 10.2633,-40.8999 L 10.4398,-41.1945 L 10.6445,-41.4704 L 10.8751,-41.7249
 L 11.1296,-41.9555 L 11.4055,-42.1601 L 11.7001,-42.3367 L 12.0106,-42.4836 L 12.334,-42.5993 L 12.6672,-42.6827
 L 13.0069,-42.7331 L 13.35,-42.75 L 13.693,-42.7331 L 14.0328,-42.6827 L 14.366,-42.5993 L 14.6894,-42.4836
 L 14.9999,-42.3367 L 15.2945,-42.1601 L 15.5704,-41.9555 L 15.8249,-41.7249 L 16.0555,-41.4704 L 16.2601,-41.1945
 L 16.4367,-40.8999 L 16.5836,-40.5894 L 16.6993,-40.266 L 16.7827,-39.9328 L 16.8331,-39.593 L 16.85,-39.25
 L 16.8331,-38.9069 L 16.7827,-38.5672 L 16.6993,-38.234 L 16.5836,-37.9106 L 16.4367,-37.6001 L 16.2601,-37.3055
 L 16.0555,-37.0296 L 15.8249,-36.7751 L 15.5704,-36.5444 L 15.2945,-36.3398 L 14.9999,-36.1633 L 14.6894,-36.0164
 L 14.366,-35.9007 L 14.0328,-35.8172 L 13.693,-35.7668 L 13.35,-35.75 z
M 13.0069,-20.7668 L 12.6672,-20.8172 L 12.334,-20.9007 L 12.0106,-21.0164 L 11.7001,-21.1633 L 11.4055,-21.3398
 L 11.1296,-21.5444 L 10.8751,-21.7751 L 10.6445,-22.0296 L 10.4398,-22.3055 L 10.2633,-22.6001 L 10.1164,-22.9106
 L 10.0007,-23.234 L 9.91725,-23.5672 L 9.86685,-23.9069 L 9.84999,-24.25 L 9.86685,-24.593 L 9.91725,-24.9328
 L 10.0007,-25.266 L 10.1164,-25.5894 L 10.2633,-25.8999 L 10.4398,-26.1945 L 10.6445,-26.4704 L 10.8751,-26.7249
 L 11.1296,-26.9555 L 11.4055,-27.1601 L 11.7001,-27.3367 L 12.0106,-27.4836 L 12.334,-27.5993 L 12.6672,-27.6827
 L 13.0069,-27.7331 L 13.35,-27.75 L 13.693,-27.7331 L 14.0328,-27.6827 L 14.366,-27.5993 L 14.6894,-27.4836
 L 14.9999,-27.3367 L 15.2945,-27.1601 L 15.5704,-26.9555 L 15.8249,-26.7249 L 16.0555,-26.4704 L 16.2601,-26.1945
 L 16.4367,-25.8999 L 16.5836,-25.5894 L 16.6993,-25.266 L 16.7827,-24.9328 L 16.8331,-24.593 L 16.85,-24.25
 L 16.8331,-23.9069 L 16.7827,-23.5672 L 16.6993,-23.234 L 16.5836,-22.9106 L 16.4367,-22.6001 L 16.2601,-22.3055
 L 16.0555,-22.0296 L 15.8249,-21.7751 L 15.5704,-21.5444 L 15.2945,-21.3398 L 14.9999,-21.1633 L 14.6894,-21.0164
 L 14.366,-20.9007 L 14.0328,-20.8172 L 13.693,-20.7668 L 13.35,-20.75 z
M 7.34317,-1.4077 L 7.18785,-1.43074 L 7.03554,-1.46889 L 6.8877,-1.52179 L 6.74576,-1.58891 L 6.61108,-1.66965
 L 6.48497,-1.76317 L 6.36862,-1.86862 L 6.26317,-1.98497 L 6.16965,-2.11108 L 6.08891,-2.24576 L 6.02179,-2.3877
 L 5.96889,-2.53554 L 5.93074,-2.68785 L 5.9077,-2.84317 L 5.89999,-3 L 5.9077,-3.15681 L 5.93074,-3.31213
 L 5.96889,-3.46445 L 6.02179,-3.61229 L 6.08891,-3.75423 L 6.16965,-3.8889 L 6.26317,-4.01501 L 6.36862,-4.13136
 L 6.48497,-4.23682 L 6.61108,-4.33034 L 6.74576,-4.41107 L 6.8877,-4.4782 L 7.03554,-4.5311 L 7.18785,-4.56924
 L 7.34317,-4.59229 L 7.5,-4.59999 L 7.65681,-4.59229 L 7.81213,-4.56924 L 7.96445,-4.5311 L 8.11229,-4.4782
 L 8.25423,-4.41107 L 8.3889,-4.33034 L 8.51501,-4.23682 L 8.63136,-4.13136 L 8.73682,-4.01501 L 8.83034,-3.8889
 L 8.91107,-3.75423 L 8.9782,-3.61229 L 9.0311,-3.46445 L 9.06924,-3.31213 L 9.09229,-3.15681 L 9.09999,-3
 L 9.09229,-2.84317 L 9.06924,-2.68785 L 9.0311,-2.53554 L 8.9782,-2.3877 L 8.91107,-2.24576 L 8.83034,-2.11108
 L 8.73682,-1.98497 L 8.63136,-1.86862 L 8.51501,-1.76317 L 8.3889,-1.66965 L 8.25423,-1.58891 L 8.11229,-1.52179
 L 7.96445,-1.46889 L 7.81213,-1.43074 L 7.65681,-1.4077 L 7.5,-1.39999 z
" stroke="black" fill="lightgray" stroke-width="0.5"/>
</svg>
