  0
SECTION
  2
BLOCKS
  0
ENDSEC
  0
SECTION
  2
ENTITIES
  0
LINE
  8
0
 10
20
 20
128.5
 11
0
 21
128.5
  0
LINE
  8
0
 10
0
 20
128.5
 11
0
 21
0
  0
LINE
  8
0
 10
0
 20
0
 11
20
 21
0
  0
LINE
  8
0
 10
20
 20
0
 11
20
 21
128.5
  0
LINE
  8
0
 10
7.34317
 20
123.908
 11
7.18785
 21
123.931
  0
LINE
  8
0
 10
7.18785
 20
123.931
 11
7.03554
 21
123.969
  0
LINE
  8
0
 10
7.03554
 20
123.969
 11
6.8877
 21
124.022
  0
LINE
  8
0
 10
6.8877
 20
124.022
 11
6.74576
 21
124.089
  0
LINE
  8
0
 10
6.74576
 20
124.089
 11
6.61108
 21
124.17
  0
LINE
  8
0
 10
6.61108
 20
124.17
 11
6.48497
 21
124.263
  0
LINE
  8
0
 10
6.48497
 20
124.263
 11
6.36862
 21
124.369
  0
LINE
  8
0
 10
6.36862
 20
124.369
 11
6.26317
 21
124.485
  0
LINE
  8
0
 10
6.26317
 20
124.485
 11
6.16965
 21
124.611
  0
LINE
  8
0
 10
6.16965
 20
124.611
 11
6.08891
 21
124.746
  0
LINE
  8
0
 10
6.08891
 20
124.746
 11
6.02179
 21
124.888
  0
LINE
  8
0
 10
6.02179
 20
124.888
 11
5.96889
 21
125.036
  0
LINE
  8
0
 10
5.96889
 20
125.036
 11
5.93074
 21
125.188
  0
LINE
  8
0
 10
5.93074
 20
125.188
 11
5.9077
 21
125.343
  0
LINE
  8
0
 10
5.9077
 20
125.343
 11
5.89999
 21
125.5
  0
LINE
  8
0
 10
5.89999
 20
125.5
 11
5.9077
 21
125.657
  0
LINE
  8
0
 10
5.9077
 20
125.657
 11
5.93074
 21
125.812
  0
LINE
  8
0
 10
5.93074
 20
125.812
 11
5.96889
 21
125.964
  0
LINE
  8
0
 10
5.96889
 20
125.964
 11
6.02179
 21
126.112
  0
LINE
  8
0
 10
6.02179
 20
126.112
 11
6.08891
 21
126.254
  0
LINE
  8
0
 10
6.08891
 20
126.254
 11
6.16965
 21
126.389
  0
LINE
  8
0
 10
6.16965
 20
126.389
 11
6.26317
 21
126.515
  0
LINE
  8
0
 10
6.26317
 20
126.515
 11
6.36862
 21
126.631
  0
LINE
  8
0
 10
6.36862
 20
126.631
 11
6.48497
 21
126.737
  0
LINE
  8
0
 10
6.48497
 20
126.737
 11
6.61108
 21
126.83
  0
LINE
  8
0
 10
6.61108
 20
126.83
 11
6.74576
 21
126.911
  0
LINE
  8
0
 10
6.74576
 20
126.911
 11
6.8877
 21
126.978
  0
LINE
  8
0
 10
6.8877
 20
126.978
 11
7.03554
 21
127.031
  0
LINE
  8
0
 10
7.03554
 20
127.031
 11
7.18785
 21
127.069
  0
LINE
  8
0
 10
7.18785
 20
127.069
 11
7.34317
 21
127.092
  0
LINE
  8
0
 10
7.34317
 20
127.092
 11
7.5
 21
127.1
  0
LINE
  8
0
 10
7.5
 20
127.1
 11
7.65681
 21
127.092
  0
LINE
  8
0
 10
7.65681
 20
127.092
 11
7.81213
 21
127.069
  0
LINE
  8
0
 10
7.81213
 20
127.069
 11
7.96445
 21
127.031
  0
LINE
  8
0
 10
7.96445
 20
127.031
 11
8.11229
 21
126.978
  0
LINE
  8
0
 10
8.11229
 20
126.978
 11
8.25423
 21
126.911
  0
LINE
  8
0
 10
8.25423
 20
126.911
 11
8.3889
 21
126.83
  0
LINE
  8
0
 10
8.3889
 20
126.83
 11
8.51501
 21
126.737
  0
LINE
  8
0
 10
8.51501
 20
126.737
 11
8.63136
 21
126.631
  0
LINE
  8
0
 10
8.63136
 20
126.631
 11
8.73682
 21
126.515
  0
LINE
  8
0
 10
8.73682
 20
126.515
 11
8.83034
 21
126.389
  0
LINE
  8
0
 10
8.83034
 20
126.389
 11
8.91107
 21
126.254
  0
LINE
  8
0
 10
8.91107
 20
126.254
 11
8.9782
 21
126.112
  0
LINE
  8
0
 10
8.9782
 20
126.112
 11
9.0311
 21
125.964
  0
LINE
  8
0
 10
9.0311
 20
125.964
 11
9.06924
 21
125.812
  0
LINE
  8
0
 10
9.06924
 20
125.812
 11
9.09229
 21
125.657
  0
LINE
  8
0
 10
9.09229
 20
125.657
 11
9.09999
 21
125.5
  0
LINE
  8
0
 10
9.09999
 20
125.5
 11
9.09229
 21
125.343
  0
LINE
  8
0
 10
9.09229
 20
125.343
 11
9.06924
 21
125.188
  0
LINE
  8
0
 10
9.06924
 20
125.188
 11
9.0311
 21
125.036
  0
LINE
  8
0
 10
9.0311
 20
125.036
 11
8.9782
 21
124.888
  0
LINE
  8
0
 10
8.9782
 20
124.888
 11
8.91107
 21
124.746
  0
LINE
  8
0
 10
8.91107
 20
124.746
 11
8.83034
 21
124.611
  0
LINE
  8
0
 10
8.83034
 20
124.611
 11
8.73682
 21
124.485
  0
LINE
  8
0
 10
8.73682
 20
124.485
 11
8.63136
 21
124.369
  0
LINE
  8
0
 10
8.63136
 20
124.369
 11
8.51501
 21
124.263
  0
LINE
  8
0
 10
8.51501
 20
124.263
 11
8.3889
 21
124.17
  0
LINE
  8
0
 10
8.3889
 20
124.17
 11
8.25423
 21
124.089
  0
LINE
  8
0
 10
8.25423
 20
124.089
 11
8.11229
 21
124.022
  0
LINE
  8
0
 10
8.11229
 20
124.022
 11
7.96445
 21
123.969
  0
LINE
  8
0
 10
7.96445
 20
123.969
 11
7.81213
 21
123.931
  0
LINE
  8
0
 10
7.81213
 20
123.931
 11
7.65681
 21
123.908
  0
LINE
  8
0
 10
7.65681
 20
123.908
 11
7.5
 21
123.9
  0
LINE
  8
0
 10
7.5
 20
123.9
 11
7.34317
 21
123.908
  0
LINE
  8
0
 10
13.0069
 20
100.767
 11
12.6672
 21
100.817
  0
LINE
  8
0
 10
12.6672
 20
100.817
 11
12.334
 21
100.901
  0
LINE
  8
0
 10
12.334
 20
100.901
 11
12.0106
 21
101.016
  0
LINE
  8
0
 10
12.0106
 20
101.016
 11
11.7001
 21
101.163
  0
LINE
  8
0
 10
11.7001
 20
101.163
 11
11.4055
 21
101.34
  0
LINE
  8
0
 10
11.4055
 20
101.34
 11
11.1296
 21
101.544
  0
LINE
  8
0
 10
11.1296
 20
101.544
 11
10.8751
 21
101.775
  0
LINE
  8
0
 10
10.8751
 20
101.775
 11
10.6445
 21
102.03
  0
LINE
  8
0
 10
10.6445
 20
102.03
 11
10.4398
 21
102.305
  0
LINE
  8
0
 10
10.4398
 20
102.305
 11
10.2633
 21
102.6
  0
LINE
  8
0
 10
10.2633
 20
102.6
 11
10.1164
 21
102.911
  0
LINE
  8
0
 10
10.1164
 20
102.911
 11
10.0007
 21
103.234
  0
LINE
  8
0
 10
10.0007
 20
103.234
 11
9.91725
 21
103.567
  0
LINE
  8
0
 10
9.91725
 20
103.567
 11
9.86685
 21
103.907
  0
LINE
  8
0
 10
9.86685
 20
103.907
 11
9.84999
 21
104.25
  0
LINE
  8
0
 10
9.84999
 20
104.25
 11
9.86685
 21
104.593
  0
LINE
  8
0
 10
9.86685
 20
104.593
 11
9.91725
 21
104.933
  0
LINE
  8
0
 10
9.91725
 20
104.933
 11
10.0007
 21
105.266
  0
LINE
  8
0
 10
10.0007
 20
105.266
 11
10.1164
 21
105.589
  0
LINE
  8
0
 10
10.1164
 20
105.589
 11
10.2633
 21
105.9
  0
LINE
  8
0
 10
10.2633
 20
105.9
 11
10.4398
 21
106.194
  0
LINE
  8
0
 10
10.4398
 20
106.194
 11
10.6445
 21
106.47
  0
LINE
  8
0
 10
10.6445
 20
106.47
 11
10.8751
 21
106.725
  0
LINE
  8
0
 10
10.8751
 20
106.725
 11
11.1296
 21
106.956
  0
LINE
  8
0
 10
11.1296
 20
106.956
 11
11.4055
 21
107.16
  0
LINE
  8
0
 10
11.4055
 20
107.16
 11
11.7001
 21
107.337
  0
LINE
  8
0
 10
11.7001
 20
107.337
 11
12.0106
 21
107.484
  0
LINE
  8
0
 10
12.0106
 20
107.484
 11
12.334
 21
107.599
  0
LINE
  8
0
 10
12.334
 20
107.599
 11
12.6672
 21
107.683
  0
LINE
  8
0
 10
12.6672
 20
107.683
 11
13.0069
 21
107.733
  0
LINE
  8
0
 10
13.0069
 20
107.733
 11
13.35
 21
107.75
  0
LINE
  8
0
 10
13.35
 20
107.75
 11
13.693
 21
107.733
  0
LINE
  8
0
 10
13.693
 20
107.733
 11
14.0328
 21
107.683
  0
LINE
  8
0
 10
14.0328
 20
107.683
 11
14.366
 21
107.599
  0
LINE
  8
0
 10
14.366
 20
107.599
 11
14.6894
 21
107.484
  0
LINE
  8
0
 10
14.6894
 20
107.484
 11
14.9999
 21
107.337
  0
LINE
  8
0
 10
14.9999
 20
107.337
 11
15.2945
 21
107.16
  0
LINE
  8
0
 10
15.2945
 20
107.16
 11
15.5704
 21
106.956
  0
LINE
  8
0
 10
15.5704
 20
106.956
 11
15.8249
 21
106.725
  0
LINE
  8
0
 10
15.8249
 20
106.725
 11
16.0555
 21
106.47
  0
LINE
  8
0
 10
16.0555
 20
106.47
 11
16.2601
 21
106.194
  0
LINE
  8
0
 10
16.2601
 20
106.194
 11
16.4367
 21
105.9
  0
LINE
  8
0
 10
16.4367
 20
105.9
 11
16.5836
 21
105.589
  0
LINE
  8
0
 10
16.5836
 20
105.589
 11
16.6993
 21
105.266
  0
LINE
  8
0
 10
16.6993
 20
105.266
 11
16.7827
 21
104.933
  0
LINE
  8
0
 10
16.7827
 20
104.933
 11
16.8331
 21
104.593
  0
LINE
  8
0
 10
16.8331
 20
104.593
 11
16.85
 21
104.25
  0
LINE
  8
0
 10
16.85
 20
104.25
 11
16.8331
 21
103.907
  0
LINE
  8
0
 10
16.8331
 20
103.907
 11
16.7827
 21
103.567
  0
LINE
  8
0
 10
16.7827
 20
103.567
 11
16.6993
 21
103.234
  0
LINE
  8
0
 10
16.6993
 20
103.234
 11
16.5836
 21
102.911
  0
LINE
  8
0
 10
16.5836
 20
102.911
 11
16.4367
 21
102.6
  0
LINE
  8
0
 10
16.4367
 20
102.6
 11
16.2601
 21
102.305
  0
LINE
  8
0
 10
16.2601
 20
102.305
 11
16.0555
 21
102.03
  0
LINE
  8
0
 10
16.0555
 20
102.03
 11
15.8249
 21
101.775
  0
LINE
  8
0
 10
15.8249
 20
101.775
 11
15.5704
 21
101.544
  0
LINE
  8
0
 10
15.5704
 20
101.544
 11
15.2945
 21
101.34
  0
LINE
  8
0
 10
15.2945
 20
101.34
 11
14.9999
 21
101.163
  0
LINE
  8
0
 10
14.9999
 20
101.163
 11
14.6894
 21
101.016
  0
LINE
  8
0
 10
14.6894
 20
101.016
 11
14.366
 21
100.901
  0
LINE
  8
0
 10
14.366
 20
100.901
 11
14.0328
 21
100.817
  0
LINE
  8
0
 10
14.0328
 20
100.817
 11
13.693
 21
100.767
  0
LINE
  8
0
 10
13.693
 20
100.767
 11
13.35
 21
100.75
  0
LINE
  8
0
 10
13.35
 20
100.75
 11
13.0069
 21
100.767
  0
LINE
  8
0
 10
13.0069
 20
85.7668
 11
12.6672
 21
85.8172
  0
LINE
  8
0
 10
12.6672
 20
85.8172
 11
12.334
 21
85.9007
  0
LINE
  8
0
 10
12.334
 20
85.9007
 11
12.0106
 21
86.0164
  0
LINE
  8
0
 10
12.0106
 20
86.0164
 11
11.7001
 21
86.1633
  0
LINE
  8
0
 10
11.7001
 20
86.1633
 11
11.4055
 21
86.3398
  0
LINE
  8
0
 10
11.4055
 20
86.3398
 11
11.1296
 21
86.5444
  0
LINE
  8
0
 10
11.1296
 20
86.5444
 11
10.8751
 21
86.7751
  0
LINE
  8
0
 10
10.8751
 20
86.7751
 11
10.6445
 21
87.0296
  0
LINE
  8
0
 10
10.6445
 20
87.0296
 11
10.4398
 21
87.3055
  0
LINE
  8
0
 10
10.4398
 20
87.3055
 11
10.2633
 21
87.6001
  0
LINE
  8
0
 10
10.2633
 20
87.6001
 11
10.1164
 21
87.9106
  0
LINE
  8
0
 10
10.1164
 20
87.9106
 11
10.0007
 21
88.234
  0
LINE
  8
0
 10
10.0007
 20
88.234
 11
9.91725
 21
88.5672
  0
LINE
  8
0
 10
9.91725
 20
88.5672
 11
9.86685
 21
88.9069
  0
LINE
  8
0
 10
9.86685
 20
88.9069
 11
9.84999
 21
89.25
  0
LINE
  8
0
 10
9.84999
 20
89.25
 11
9.86685
 21
89.593
  0
LINE
  8
0
 10
9.86685
 20
89.593
 11
9.91725
 21
89.9328
  0
LINE
  8
0
 10
9.91725
 20
89.9328
 11
10.0007
 21
90.266
  0
LINE
  8
0
 10
10.0007
 20
90.266
 11
10.1164
 21
90.5894
  0
LINE
  8
0
 10
10.1164
 20
90.5894
 11
10.2633
 21
90.8999
  0
LINE
  8
0
 10
10.2633
 20
90.8999
 11
10.4398
 21
91.1945
  0
LINE
  8
0
 10
10.4398
 20
91.1945
 11
10.6445
 21
91.4704
  0
LINE
  8
0
 10
10.6445
 20
91.4704
 11
10.8751
 21
91.7249
  0
LINE
  8
0
 10
10.8751
 20
91.7249
 11
11.1296
 21
91.9555
  0
LINE
  8
0
 10
11.1296
 20
91.9555
 11
11.4055
 21
92.1601
  0
LINE
  8
0
 10
11.4055
 20
92.1601
 11
11.7001
 21
92.3367
  0
LINE
  8
0
 10
11.7001
 20
92.3367
 11
12.0106
 21
92.4836
  0
LINE
  8
0
 10
12.0106
 20
92.4836
 11
12.334
 21
92.5993
  0
LINE
  8
0
 10
12.334
 20
92.5993
 11
12.6672
 21
92.6827
  0
LINE
  8
0
 10
12.6672
 20
92.6827
 11
13.0069
 21
92.7331
  0
LINE
  8
0
 10
13.0069
 20
92.7331
 11
13.35
 21
92.75
  0
LINE
  8
0
 10
13.35
 20
92.75
 11
13.693
 21
92.7331
  0
LINE
  8
0
 10
13.693
 20
92.7331
 11
14.0328
 21
92.6827
  0
LINE
  8
0
 10
14.0328
 20
92.6827
 11
14.366
 21
92.5993
  0
LINE
  8
0
 10
14.366
 20
92.5993
 11
14.6894
 21
92.4836
  0
LINE
  8
0
 10
14.6894
 20
92.4836
 11
14.9999
 21
92.3367
  0
LINE
  8
0
 10
14.9999
 20
92.3367
 11
15.2945
 21
92.1601
  0
LINE
  8
0
 10
15.2945
 20
92.1601
 11
15.5704
 21
91.9555
  0
LINE
  8
0
 10
15.5704
 20
91.9555
 11
15.8249
 21
91.7249
  0
LINE
  8
0
 10
15.8249
 20
91.7249
 11
16.0555
 21
91.4704
  0
LINE
  8
0
 10
16.0555
 20
91.4704
 11
16.2601
 21
91.1945
  0
LINE
  8
0
 10
16.2601
 20
91.1945
 11
16.4367
 21
90.8999
  0
LINE
  8
0
 10
16.4367
 20
90.8999
 11
16.5836
 21
90.5894
  0
LINE
  8
0
 10
16.5836
 20
90.5894
 11
16.6993
 21
90.266
  0
LINE
  8
0
 10
16.6993
 20
90.266
 11
16.7827
 21
89.9328
  0
LINE
  8
0
 10
16.7827
 20
89.9328
 11
16.8331
 21
89.593
  0
LINE
  8
0
 10
16.8331
 20
89.593
 11
16.85
 21
89.25
  0
LINE
  8
0
 10
16.85
 20
89.25
 11
16.8331
 21
88.9069
  0
LINE
  8
0
 10
16.8331
 20
88.9069
 11
16.7827
 21
88.5672
  0
LINE
  8
0
 10
16.7827
 20
88.5672
 11
16.6993
 21
88.234
  0
LINE
  8
0
 10
16.6993
 20
88.234
 11
16.5836
 21
87.9106
  0
LINE
  8
0
 10
16.5836
 20
87.9106
 11
16.4367
 21
87.6001
  0
LINE
  8
0
 10
16.4367
 20
87.6001
 11
16.2601
 21
87.3055
  0
LINE
  8
0
 10
16.2601
 20
87.3055
 11
16.0555
 21
87.0296
  0
LINE
  8
0
 10
16.0555
 20
87.0296
 11
15.8249
 21
86.7751
  0
LINE
  8
0
 10
15.8249
 20
86.7751
 11
15.5704
 21
86.5444
  0
LINE
  8
0
 10
15.5704
 20
86.5444
 11
15.2945
 21
86.3398
  0
LINE
  8
0
 10
15.2945
 20
86.3398
 11
14.9999
 21
86.1633
  0
LINE
  8
0
 10
14.9999
 20
86.1633
 11
14.6894
 21
86.0164
  0
LINE
  8
0
 10
14.6894
 20
86.0164
 11
14.366
 21
85.9007
  0
LINE
  8
0
 10
14.366
 20
85.9007
 11
14.0328
 21
85.8172
  0
LINE
  8
0
 10
14.0328
 20
85.8172
 11
13.693
 21
85.7668
  0
LINE
  8
0
 10
13.693
 20
85.7668
 11
13.35
 21
85.75
  0
LINE
  8
0
 10
13.35
 20
85.75
 11
13.0069
 21
85.7668
  0
LINE
  8
0
 10
13.0069
 20
35.7668
 11
12.6672
 21
35.8172
  0
LINE
  8
0
 10
12.6672
 20
35.8172
 11
12.334
 21
35.9007
  0
LINE
  8
0
 10
12.334
 20
35.9007
 11
12.0106
 21
36.0164
  0
LINE
  8
0
 10
12.0106
 20
36.0164
 11
11.7001
 21
36.1633
  0
LINE
  8
0
 10
11.7001
 20
36.1633
 11
11.4055
 21
36.3398
  0
LINE
  8
0
 10
11.4055
 20
36.3398
 11
11.1296
 21
36.5444
  0
LINE
  8
0
 10
11.1296
 20
36.5444
 11
10.8751
 21
36.7751
  0
LINE
  8
0
 10
10.8751
 20
36.7751
 11
10.6445
 21
37.0296
  0
LINE
  8
0
 10
10.6445
 20
37.0296
 11
10.4398
 21
37.3055
  0
LINE
  8
0
 10
10.4398
 20
37.3055
 11
10.2633
 21
37.6001
  0
LINE
  8
0
 10
10.2633
 20
37.6001
 11
10.1164
 21
37.9106
  0
LINE
  8
0
 10
10.1164
 20
37.9106
 11
10.0007
 21
38.234
  0
LINE
  8
0
 10
10.0007
 20
38.234
 11
9.91725
 21
38.5672
  0
LINE
  8
0
 10
9.91725
 20
38.5672
 11
9.86685
 21
38.9069
  0
LINE
  8
0
 10
9.86685
 20
38.9069
 11
9.84999
 21
39.25
  0
LINE
  8
0
 10
9.84999
 20
39.25
 11
9.86685
 21
39.593
  0
LINE
  8
0
 10
9.86685
 20
39.593
 11
9.91725
 21
39.9328
  0
LINE
  8
0
 10
9.91725
 20
39.9328
 11
10.0007
 21
40.266
  0
LINE
  8
0
 10
10.0007
 20
40.266
 11
10.1164
 21
40.5894
  0
LINE
  8
0
 10
10.1164
 20
40.5894
 11
10.2633
 21
40.8999
  0
LINE
  8
0
 10
10.2633
 20
40.8999
 11
10.4398
 21
41.1945
  0
LINE
  8
0
 10
10.4398
 20
41.1945
 11
10.6445
 21
41.4704
  0
LINE
  8
0
 10
10.6445
 20
41.4704
 11
10.8751
 21
41.7249
  0
LINE
  8
0
 10
10.8751
 20
41.7249
 11
11.1296
 21
41.9555
  0
LINE
  8
0
 10
11.1296
 20
41.9555
 11
11.4055
 21
42.1601
  0
LINE
  8
0
 10
11.4055
 20
42.1601
 11
11.7001
 21
42.3367
  0
LINE
  8
0
 10
11.7001
 20
42.3367
 11
12.0106
 21
42.4836
  0
LINE
  8
0
 10
12.0106
 20
42.4836
 11
12.334
 21
42.5993
  0
LINE
  8
0
 10
12.334
 20
42.5993
 11
12.6672
 21
42.6827
  0
LINE
  8
0
 10
12.6672
 20
42.6827
 11
13.0069
 21
42.7331
  0
LINE
  8
0
 10
13.0069
 20
42.7331
 11
13.35
 21
42.75
  0
LINE
  8
0
 10
13.35
 20
42.75
 11
13.693
 21
42.7331
  0
LINE
  8
0
 10
13.693
 20
42.7331
 11
14.0328
 21
42.6827
  0
LINE
  8
0
 10
14.0328
 20
42.6827
 11
14.366
 21
42.5993
  0
LINE
  8
0
 10
14.366
 20
42.5993
 11
14.6894
 21
42.4836
  0
LINE
  8
0
 10
14.6894
 20
42.4836
 11
14.9999
 21
42.3367
  0
LINE
  8
0
 10
14.9999
 20
42.3367
 11
15.2945
 21
42.1601
  0
LINE
  8
0
 10
15.2945
 20
42.1601
 11
15.5704
 21
41.9555
  0
LINE
  8
0
 10
15.5704
 20
41.9555
 11
15.8249
 21
41.7249
  0
LINE
  8
0
 10
15.8249
 20
41.7249
 11
16.0555
 21
41.4704
  0
LINE
  8
0
 10
16.0555
 20
41.4704
 11
16.2601
 21
41.1945
  0
LINE
  8
0
 10
16.2601
 20
41.1945
 11
16.4367
 21
40.8999
  0
LINE
  8
0
 10
16.4367
 20
40.8999
 11
16.5836
 21
40.5894
  0
LINE
  8
0
 10
16.5836
 20
40.5894
 11
16.6993
 21
40.266
  0
LINE
  8
0
 10
16.6993
 20
40.266
 11
16.7827
 21
39.9328
  0
LINE
  8
0
 10
16.7827
 20
39.9328
 11
16.8331
 21
39.593
  0
LINE
  8
0
 10
16.8331
 20
39.593
 11
16.85
 21
39.25
  0
LINE
  8
0
 10
16.85
 20
39.25
 11
16.8331
 21
38.9069
  0
LINE
  8
0
 10
16.8331
 20
38.9069
 11
16.7827
 21
38.5672
  0
LINE
  8
0
 10
16.7827
 20
38.5672
 11
16.6993
 21
38.234
  0
LINE
  8
0
 10
16.6993
 20
38.234
 11
16.5836
 21
37.9106
  0
LINE
  8
0
 10
16.5836
 20
37.9106
 11
16.4367
 21
37.6001
  0
LINE
  8
0
 10
16.4367
 20
37.6001
 11
16.2601
 21
37.3055
  0
LINE
  8
0
 10
16.2601
 20
37.3055
 11
16.0555
 21
37.0296
  0
LINE
  8
0
 10
16.0555
 20
37.0296
 11
15.8249
 21
36.7751
  0
LINE
  8
0
 10
15.8249
 20
36.7751
 11
15.5704
 21
36.5444
  0
LINE
  8
0
 10
15.5704
 20
36.5444
 11
15.2945
 21
36.3398
  0
LINE
  8
0
 10
15.2945
 20
36.3398
 11
14.9999
 21
36.1633
  0
LINE
  8
0
 10
14.9999
 20
36.1633
 11
14.6894
 21
36.0164
  0
LINE
  8
0
 10
14.6894
 20
36.0164
 11
14.366
 21
35.9007
  0
LINE
  8
0
 10
14.366
 20
35.9007
 11
14.0328
 21
35.8172
  0
LINE
  8
0
 10
14.0328
 20
35.8172
 11
13.693
 21
35.7668
  0
LINE
  8
0
 10
13.693
 20
35.7668
 11
13.35
 21
35.75
  0
LINE
  8
0
 10
13.35
 20
35.75
 11
13.0069
 21
35.7668
  0
LINE
  8
0
 10
13.0069
 20
20.7668
 11
12.6672
 21
20.8172
  0
LINE
  8
0
 10
12.6672
 20
20.8172
 11
12.334
 21
20.9007
  0
LINE
  8
0
 10
12.334
 20
20.9007
 11
12.0106
 21
21.0164
  0
LINE
  8
0
 10
12.0106
 20
21.0164
 11
11.7001
 21
21.1633
  0
LINE
  8
0
 10
11.7001
 20
21.1633
 11
11.4055
 21
21.3398
  0
LINE
  8
0
 10
11.4055
 20
21.3398
 11
11.1296
 21
21.5444
  0
LINE
  8
0
 10
11.1296
 20
21.5444
 11
10.8751
 21
21.7751
  0
LINE
  8
0
 10
10.8751
 20
21.7751
 11
10.6445
 21
22.0296
  0
LINE
  8
0
 10
10.6445
 20
22.0296
 11
10.4398
 21
22.3055
  0
LINE
  8
0
 10
10.4398
 20
22.3055
 11
10.2633
 21
22.6001
  0
LINE
  8
0
 10
10.2633
 20
22.6001
 11
10.1164
 21
22.9106
  0
LINE
  8
0
 10
10.1164
 20
22.9106
 11
10.0007
 21
23.234
  0
LINE
  8
0
 10
10.0007
 20
23.234
 11
9.91725
 21
23.5672
  0
LINE
  8
0
 10
9.91725
 20
23.5672
 11
9.86685
 21
23.9069
  0
LINE
  8
0
 10
9.86685
 20
23.9069
 11
9.84999
 21
24.25
  0
LINE
  8
0
 10
9.84999
 20
24.25
 11
9.86685
 21
24.593
  0
LINE
  8
0
 10
9.86685
 20
24.593
 11
9.91725
 21
24.9328
  0
LINE
  8
0
 10
9.91725
 20
24.9328
 11
10.0007
 21
25.266
  0
LINE
  8
0
 10
10.0007
 20
25.266
 11
10.1164
 21
25.5894
  0
LINE
  8
0
 10
10.1164
 20
25.5894
 11
10.2633
 21
25.8999
  0
LINE
  8
0
 10
10.2633
 20
25.8999
 11
10.4398
 21
26.1945
  0
LINE
  8
0
 10
10.4398
 20
26.1945
 11
10.6445
 21
26.4704
  0
LINE
  8
0
 10
10.6445
 20
26.4704
 11
10.8751
 21
26.7249
  0
LINE
  8
0
 10
10.8751
 20
26.7249
 11
11.1296
 21
26.9555
  0
LINE
  8
0
 10
11.1296
 20
26.9555
 11
11.4055
 21
27.1601
  0
LINE
  8
0
 10
11.4055
 20
27.1601
 11
11.7001
 21
27.3367
  0
LINE
  8
0
 10
11.7001
 20
27.3367
 11
12.0106
 21
27.4836
  0
LINE
  8
0
 10
12.0106
 20
27.4836
 11
12.334
 21
27.5993
  0
LINE
  8
0
 10
12.334
 20
27.5993
 11
12.6672
 21
27.6827
  0
LINE
  8
0
 10
12.6672
 20
27.6827
 11
13.0069
 21
27.7331
  0
LINE
  8
0
 10
13.0069
 20
27.7331
 11
13.35
 21
27.75
  0
LINE
  8
0
 10
13.35
 20
27.75
 11
13.693
 21
27.7331
  0
LINE
  8
0
 10
13.693
 20
27.7331
 11
14.0328
 21
27.6827
  0
LINE
  8
0
 10
14.0328
 20
27.6827
 11
14.366
 21
27.5993
  0
LINE
  8
0
 10
14.366
 20
27.5993
 11
14.6894
 21
27.4836
  0
LINE
  8
0
 10
14.6894
 20
27.4836
 11
14.9999
 21
27.3367
  0
LINE
  8
0
 10
14.9999
 20
27.3367
 11
15.2945
 21
27.1601
  0
LINE
  8
0
 10
15.2945
 20
27.1601
 11
15.5704
 21
26.9555
  0
LINE
  8
0
 10
15.5704
 20
26.9555
 11
15.8249
 21
26.7249
  0
LINE
  8
0
 10
15.8249
 20
26.7249
 11
16.0555
 21
26.4704
  0
LINE
  8
0
 10
16.0555
 20
26.4704
 11
16.2601
 21
26.1945
  0
LINE
  8
0
 10
16.2601
 20
26.1945
 11
16.4367
 21
25.8999
  0
LINE
  8
0
 10
16.4367
 20
25.8999
 11
16.5836
 21
25.5894
  0
LINE
  8
0
 10
16.5836
 20
25.5894
 11
16.6993
 21
25.266
  0
LINE
  8
0
 10
16.6993
 20
25.266
 11
16.7827
 21
24.9328
  0
LINE
  8
0
 10
16.7827
 20
24.9328
 11
16.8331
 21
24.593
  0
LINE
  8
0
 10
16.8331
 20
24.593
 11
16.85
 21
24.25
  0
LINE
  8
0
 10
16.85
 20
24.25
 11
16.8331
 21
23.9069
  0
LINE
  8
0
 10
16.8331
 20
23.9069
 11
16.7827
 21
23.5672
  0
LINE
  8
0
 10
16.7827
 20
23.5672
 11
16.6993
 21
23.234
  0
LINE
  8
0
 10
16.6993
 20
23.234
 11
16.5836
 21
22.9106
  0
LINE
  8
0
 10
16.5836
 20
22.9106
 11
16.4367
 21
22.6001
  0
LINE
  8
0
 10
16.4367
 20
22.6001
 11
16.2601
 21
22.3055
  0
LINE
  8
0
 10
16.2601
 20
22.3055
 11
16.0555
 21
22.0296
  0
LINE
  8
0
 10
16.0555
 20
22.0296
 11
15.8249
 21
21.7751
  0
LINE
  8
0
 10
15.8249
 20
21.7751
 11
15.5704
 21
21.5444
  0
LINE
  8
0
 10
15.5704
 20
21.5444
 11
15.2945
 21
21.3398
  0
LINE
  8
0
 10
15.2945
 20
21.3398
 11
14.9999
 21
21.1633
  0
LINE
  8
0
 10
14.9999
 20
21.1633
 11
14.6894
 21
21.0164
  0
LINE
  8
0
 10
14.6894
 20
21.0164
 11
14.366
 21
20.9007
  0
LINE
  8
0
 10
14.366
 20
20.9007
 11
14.0328
 21
20.8172
  0
LINE
  8
0
 10
14.0328
 20
20.8172
 11
13.693
 21
20.7668
  0
LINE
  8
0
 10
13.693
 20
20.7668
 11
13.35
 21
20.75
  0
LINE
  8
0
 10
13.35
 20
20.75
 11
13.0069
 21
20.7668
  0
LINE
  8
0
 10
7.34317
 20
1.4077
 11
7.18785
 21
1.43074
  0
LINE
  8
0
 10
7.18785
 20
1.43074
 11
7.03554
 21
1.46889
  0
LINE
  8
0
 10
7.03554
 20
1.46889
 11
6.8877
 21
1.52179
  0
LINE
  8
0
 10
6.8877
 20
1.52179
 11
6.74576
 21
1.58891
  0
LINE
  8
0
 10
6.74576
 20
1.58891
 11
6.61108
 21
1.66965
  0
LINE
  8
0
 10
6.61108
 20
1.66965
 11
6.48497
 21
1.76317
  0
LINE
  8
0
 10
6.48497
 20
1.76317
 11
6.36862
 21
1.86862
  0
LINE
  8
0
 10
6.36862
 20
1.86862
 11
6.26317
 21
1.98497
  0
LINE
  8
0
 10
6.26317
 20
1.98497
 11
6.16965
 21
2.11108
  0
LINE
  8
0
 10
6.16965
 20
2.11108
 11
6.08891
 21
2.24576
  0
LINE
  8
0
 10
6.08891
 20
2.24576
 11
6.02179
 21
2.3877
  0
LINE
  8
0
 10
6.02179
 20
2.3877
 11
5.96889
 21
2.53554
  0
LINE
  8
0
 10
5.96889
 20
2.53554
 11
5.93074
 21
2.68785
  0
LINE
  8
0
 10
5.93074
 20
2.68785
 11
5.9077
 21
2.84317
  0
LINE
  8
0
 10
5.9077
 20
2.84317
 11
5.89999
 21
3
  0
LINE
  8
0
 10
5.89999
 20
3
 11
5.9077
 21
3.15681
  0
LINE
  8
0
 10
5.9077
 20
3.15681
 11
5.93074
 21
3.31213
  0
LINE
  8
0
 10
5.93074
 20
3.31213
 11
5.96889
 21
3.46445
  0
LINE
  8
0
 10
5.96889
 20
3.46445
 11
6.02179
 21
3.61229
  0
LINE
  8
0
 10
6.02179
 20
3.61229
 11
6.08891
 21
3.75423
  0
LINE
  8
0
 10
6.08891
 20
3.75423
 11
6.16965
 21
3.8889
  0
LINE
  8
0
 10
6.16965
 20
3.8889
 11
6.26317
 21
4.01501
  0
LINE
  8
0
 10
6.26317
 20
4.01501
 11
6.36862
 21
4.13136
  0
LINE
  8
0
 10
6.36862
 20
4.13136
 11
6.48497
 21
4.23682
  0
LINE
  8
0
 10
6.48497
 20
4.23682
 11
6.61108
 21
4.33034
  0
LINE
  8
0
 10
6.61108
 20
4.33034
 11
6.74576
 21
4.41107
  0
LINE
  8
0
 10
6.74576
 20
4.41107
 11
6.8877
 21
4.4782
  0
LINE
  8
0
 10
6.8877
 20
4.4782
 11
7.03554
 21
4.5311
  0
LINE
  8
0
 10
7.03554
 20
4.5311
 11
7.18785
 21
4.56924
  0
LINE
  8
0
 10
7.18785
 20
4.56924
 11
7.34317
 21
4.59229
  0
LINE
  8
0
 10
7.34317
 20
4.59229
 11
7.5
 21
4.59999
  0
LINE
  8
0
 10
7.5
 20
4.59999
 11
7.65681
 21
4.59229
  0
LINE
  8
0
 10
7.65681
 20
4.59229
 11
7.81213
 21
4.56924
  0
LINE
  8
0
 10
7.81213
 20
4.56924
 11
7.96445
 21
4.5311
  0
LINE
  8
0
 10
7.96445
 20
4.5311
 11
8.11229
 21
4.4782
  0
LINE
  8
0
 10
8.11229
 20
4.4782
 11
8.25423
 21
4.41107
  0
LINE
  8
0
 10
8.25423
 20
4.41107
 11
8.3889
 21
4.33034
  0
LINE
  8
0
 10
8.3889
 20
4.33034
 11
8.51501
 21
4.23682
  0
LINE
  8
0
 10
8.51501
 20
4.23682
 11
8.63136
 21
4.13136
  0
LINE
  8
0
 10
8.63136
 20
4.13136
 11
8.73682
 21
4.01501
  0
LINE
  8
0
 10
8.73682
 20
4.01501
 11
8.83034
 21
3.8889
  0
LINE
  8
0
 10
8.83034
 20
3.8889
 11
8.91107
 21
3.75423
  0
LINE
  8
0
 10
8.91107
 20
3.75423
 11
8.9782
 21
3.61229
  0
LINE
  8
0
 10
8.9782
 20
3.61229
 11
9.0311
 21
3.46445
  0
LINE
  8
0
 10
9.0311
 20
3.46445
 11
9.06924
 21
3.31213
  0
LINE
  8
0
 10
9.06924
 20
3.31213
 11
9.09229
 21
3.15681
  0
LINE
  8
0
 10
9.09229
 20
3.15681
 11
9.09999
 21
3
  0
LINE
  8
0
 10
9.09999
 20
3
 11
9.09229
 21
2.84317
  0
LINE
  8
0
 10
9.09229
 20
2.84317
 11
9.06924
 21
2.68785
  0
LINE
  8
0
 10
9.06924
 20
2.68785
 11
9.0311
 21
2.53554
  0
LINE
  8
0
 10
9.0311
 20
2.53554
 11
8.9782
 21
2.3877
  0
LINE
  8
0
 10
8.9782
 20
2.3877
 11
8.91107
 21
2.24576
  0
LINE
  8
0
 10
8.91107
 20
2.24576
 11
8.83034
 21
2.11108
  0
LINE
  8
0
 10
8.83034
 20
2.11108
 11
8.73682
 21
1.98497
  0
LINE
  8
0
 10
8.73682
 20
1.98497
 11
8.63136
 21
1.86862
  0
LINE
  8
0
 10
8.63136
 20
1.86862
 11
8.51501
 21
1.76317
  0
LINE
  8
0
 10
8.51501
 20
1.76317
 11
8.3889
 21
1.66965
  0
LINE
  8
0
 10
8.3889
 20
1.66965
 11
8.25423
 21
1.58891
  0
LINE
  8
0
 10
8.25423
 20
1.58891
 11
8.11229
 21
1.52179
  0
LINE
  8
0
 10
8.11229
 20
1.52179
 11
7.96445
 21
1.46889
  0
LINE
  8
0
 10
7.96445
 20
1.46889
 11
7.81213
 21
1.43074
  0
LINE
  8
0
 10
7.81213
 20
1.43074
 11
7.65681
 21
1.4077
  0
LINE
  8
0
 10
7.65681
 20
1.4077
 11
7.5
 21
1.39999
  0
LINE
  8
0
 10
7.5
 20
1.39999
 11
7.34317
 21
1.4077
  0
ENDSEC
  0
SECTION
  2
OBJECTS
  0
DICTIONARY
  0
ENDSEC
  0
EOF
