<?xml version="1.0" encoding="utf-8" ?>
<svg baseProfile="tiny" height="364.117313934" version="1.2" width="62.936218934" xmlns="http://www.w3.org/2000/svg" xmlns:ev="http://www.w3.org/2001/xml-events" xmlns:xlink="http://www.w3.org/1999/xlink"><defs /><g id="paths" stroke="green"><path d="M 4.893306967,359.224006967 L 58.042911967,359.224006967 L 58.042911967,4.893306967 L 4.893306967,4.893306967 L 4.893306967,359.224006967 Z" fill-opacity="0" stroke-linejoin="round" stroke-width="1.0" /></g><g fill="red" id="top_parts" stroke="red"><line stroke-linecap="round" stroke-width="0.5" x1="16.4091" x2="46.5272" y1="132.4524" y2="132.4524" /><line stroke-linecap="round" stroke-width="0.5" x1="46.5272" x2="46.5272" y1="132.4524" y2="231.665" /><line stroke-linecap="round" stroke-width="0.5" x1="46.5272" x2="16.4091" y1="231.665" y2="231.665" /><line stroke-linecap="round" stroke-width="0.5" x1="16.4091" x2="16.4091" y1="231.665" y2="132.4524" /><text font-family="monospace" font-size="2" stroke-width="0.1" text-anchor="middle" x="31.468109467" y="182.058656967">J5</text><line stroke-linecap="round" stroke-width="0.5" x1="56.2713" x2="6.665" y1="53.6138" y2="53.6138" /><line stroke-linecap="round" stroke-width="0.5" x1="6.665" x2="6.665" y1="53.6138" y2="27.039" /><line stroke-linecap="round" stroke-width="0.5" x1="6.665" x2="56.2713" y1="27.039" y2="27.039" /><line stroke-linecap="round" stroke-width="0.5" x1="56.2713" x2="56.2713" y1="27.039" y2="53.6138" /><line stroke-linecap="round" stroke-width="0.5" x1="72.2161" x2="58.0429" y1="50.9563" y2="50.9563" /><line stroke-linecap="round" stroke-width="0.5" x1="58.0429" x2="58.0429" y1="50.9563" y2="29.6965" /><line stroke-linecap="round" stroke-width="0.5" x1="58.0429" x2="72.2161" y1="29.6965" y2="29.6965" /><line stroke-linecap="round" stroke-width="0.5" x1="72.2161" x2="72.2161" y1="29.6965" y2="50.9563" /><line stroke-linecap="round" stroke-width="0.5" x1="58.0429" x2="56.2713" y1="52.728" y2="52.728" /><line stroke-linecap="round" stroke-width="0.5" x1="56.2713" x2="56.2713" y1="52.728" y2="27.9248" /><line stroke-linecap="round" stroke-width="0.5" x1="56.2713" x2="58.0429" y1="27.9248" y2="27.9248" /><line stroke-linecap="round" stroke-width="0.5" x1="58.0429" x2="58.0429" y1="27.9248" y2="52.728" /><text font-family="monospace" font-size="2" stroke-width="0.1" text-anchor="middle" x="57.157085217" y="40.326376967">J1</text><line stroke-linecap="round" stroke-width="0.5" x1="56.2713" x2="6.665" y1="106.7634" y2="106.7634" /><line stroke-linecap="round" stroke-width="0.5" x1="6.665" x2="6.665" y1="106.7634" y2="80.1886" /><line stroke-linecap="round" stroke-width="0.5" x1="6.665" x2="56.2713" y1="80.1886" y2="80.1886" /><line stroke-linecap="round" stroke-width="0.5" x1="56.2713" x2="56.2713" y1="80.1886" y2="106.7634" /><line stroke-linecap="round" stroke-width="0.5" x1="72.2161" x2="58.0429" y1="104.1059" y2="104.1059" /><line stroke-linecap="round" stroke-width="0.5" x1="58.0429" x2="58.0429" y1="104.1059" y2="82.8461" /><line stroke-linecap="round" stroke-width="0.5" x1="58.0429" x2="72.2161" y1="82.8461" y2="82.8461" /><line stroke-linecap="round" stroke-width="0.5" x1="72.2161" x2="72.2161" y1="82.8461" y2="104.1059" /><line stroke-linecap="round" stroke-width="0.5" x1="58.0429" x2="56.2713" y1="105.8776" y2="105.8776" /><line stroke-linecap="round" stroke-width="0.5" x1="56.2713" x2="56.2713" y1="105.8776" y2="81.0744" /><line stroke-linecap="round" stroke-width="0.5" x1="56.2713" x2="58.0429" y1="81.0744" y2="81.0744" /><line stroke-linecap="round" stroke-width="0.5" x1="58.0429" x2="58.0429" y1="81.0744" y2="105.8776" /><text font-family="monospace" font-size="2" stroke-width="0.1" text-anchor="middle" x="57.157085217" y="93.475981967">J2</text><line stroke-linecap="round" stroke-width="0.5" x1="56.2713" x2="6.665" y1="283.9287" y2="283.9287" /><line stroke-linecap="round" stroke-width="0.5" x1="6.665" x2="6.665" y1="283.9287" y2="257.3539" /><line stroke-linecap="round" stroke-width="0.5" x1="6.665" x2="56.2713" y1="257.3539" y2="257.3539" /><line stroke-linecap="round" stroke-width="0.5" x1="56.2713" x2="56.2713" y1="257.3539" y2="283.9287" /><line stroke-linecap="round" stroke-width="0.5" x1="72.2161" x2="58.0429" y1="281.2713" y2="281.2713" /><line stroke-linecap="round" stroke-width="0.5" x1="58.0429" x2="58.0429" y1="281.2713" y2="260.0114" /><line stroke-linecap="round" stroke-width="0.5" x1="58.0429" x2="72.2161" y1="260.0114" y2="260.0114" /><line stroke-linecap="round" stroke-width="0.5" x1="72.2161" x2="72.2161" y1="260.0114" y2="281.2713" /><line stroke-linecap="round" stroke-width="0.5" x1="58.0429" x2="56.2713" y1="283.0429" y2="283.0429" /><line stroke-linecap="round" stroke-width="0.5" x1="56.2713" x2="56.2713" y1="283.0429" y2="258.2398" /><line stroke-linecap="round" stroke-width="0.5" x1="56.2713" x2="58.0429" y1="258.2398" y2="258.2398" /><line stroke-linecap="round" stroke-width="0.5" x1="58.0429" x2="58.0429" y1="258.2398" y2="283.0429" /><text font-family="monospace" font-size="2" stroke-width="0.1" text-anchor="middle" x="57.157085217" y="270.641331967">J3</text><line stroke-linecap="round" stroke-width="0.5" x1="56.2713" x2="6.665" y1="337.0783" y2="337.0783" /><line stroke-linecap="round" stroke-width="0.5" x1="6.665" x2="6.665" y1="337.0783" y2="310.5035" /><line stroke-linecap="round" stroke-width="0.5" x1="6.665" x2="56.2713" y1="310.5035" y2="310.5035" /><line stroke-linecap="round" stroke-width="0.5" x1="56.2713" x2="56.2713" y1="310.5035" y2="337.0783" /><line stroke-linecap="round" stroke-width="0.5" x1="72.2161" x2="58.0429" y1="334.4209" y2="334.4209" /><line stroke-linecap="round" stroke-width="0.5" x1="58.0429" x2="58.0429" y1="334.4209" y2="313.161" /><line stroke-linecap="round" stroke-width="0.5" x1="58.0429" x2="72.2161" y1="313.161" y2="313.161" /><line stroke-linecap="round" stroke-width="0.5" x1="72.2161" x2="72.2161" y1="313.161" y2="334.4209" /><line stroke-linecap="round" stroke-width="0.5" x1="58.0429" x2="56.2713" y1="336.1925" y2="336.1925" /><line stroke-linecap="round" stroke-width="0.5" x1="56.2713" x2="56.2713" y1="336.1925" y2="311.3894" /><line stroke-linecap="round" stroke-width="0.5" x1="56.2713" x2="58.0429" y1="311.3894" y2="311.3894" /><line stroke-linecap="round" stroke-width="0.5" x1="58.0429" x2="58.0429" y1="311.3894" y2="336.1925" /><text font-family="monospace" font-size="2" stroke-width="0.1" text-anchor="middle" x="57.157085217" y="323.790936967">J4</text></g><g fill="blue" id="bottom_parts" stroke="blue" /></svg>