<?xml version="1.0" encoding="utf-8" ?>
<svg baseProfile="tiny" height="364.117313934" version="1.2" width="62.936218934" xmlns="http://www.w3.org/2000/svg" xmlns:ev="http://www.w3.org/2001/xml-events" xmlns:xlink="http://www.w3.org/1999/xlink"><defs /><g id="paths" stroke="blue"><path d="M 4.893306967,359.224006967 L 58.042911967,359.224006967 L 58.042911967,4.893306967 L 4.893306967,4.893306967 L 4.893306967,359.224006967 Z" fill-opacity="0" stroke-linejoin="round" stroke-width="1.0" /></g><g fill="red" id="holes"><circle cx="10.2083" cy="353.909" r="0.585" stroke-width="0.0" /><circle cx="52.728" cy="10.2083" r="0.585" stroke-width="0.0" /><circle cx="31.4681" cy="10.2083" r="0.585" stroke-width="0.0" /><circle cx="24.3815" cy="353.909" r="0.585" stroke-width="0.0" /><circle cx="17.2949" cy="10.2083" r="0.585" stroke-width="0.0" /><circle cx="52.728" cy="353.909" r="0.585" stroke-width="0.0" /><circle cx="17.2949" cy="353.909" r="0.585" stroke-width="0.0" /><circle cx="24.3815" cy="10.2083" r="0.585" stroke-width="0.0" /><circle cx="31.4681" cy="353.909" r="0.585" stroke-width="0.0" /><circle cx="10.2083" cy="10.2083" r="0.585" stroke-width="0.0" /><circle cx="45.6413" cy="10.2083" r="0.585" stroke-width="0.0" /><circle cx="45.6413" cy="353.909" r="0.585" stroke-width="0.0" /><circle cx="38.5547" cy="10.2083" r="0.585" stroke-width="0.0" /><circle cx="38.5547" cy="353.909" r="0.585" stroke-width="0.0" /><circle cx="26.9681" cy="150.5587" r="2.3917" stroke-width="0.0" /><circle cx="26.9681" cy="159.5587" r="2.3917" stroke-width="0.0" /><circle cx="26.9681" cy="168.5587" r="2.3917" stroke-width="0.0" /><circle cx="26.9681" cy="177.5587" r="2.3917" stroke-width="0.0" /><circle cx="26.9681" cy="186.5587" r="2.3917" stroke-width="0.0" /><circle cx="26.9681" cy="195.5587" r="2.3917" stroke-width="0.0" /><circle cx="26.9681" cy="204.5587" r="2.3917" stroke-width="0.0" /><circle cx="26.9681" cy="213.5587" r="2.3917" stroke-width="0.0" /><circle cx="35.9681" cy="150.5587" r="2.3917" stroke-width="0.0" /><circle cx="35.9681" cy="159.5587" r="2.3917" stroke-width="0.0" /><circle cx="35.9681" cy="168.5587" r="2.3917" stroke-width="0.0" /><circle cx="35.9681" cy="177.5587" r="2.3917" stroke-width="0.0" /><circle cx="35.9681" cy="186.5587" r="2.3917" stroke-width="0.0" /><circle cx="35.9681" cy="195.5587" r="2.3917" stroke-width="0.0" /><circle cx="35.9681" cy="204.5587" r="2.3917" stroke-width="0.0" /><circle cx="35.9681" cy="213.5587" r="2.3917" stroke-width="0.0" /><circle cx="50.602" cy="40.3264" r="4.4291" stroke-width="0.0" /><circle cx="31.8224" cy="40.3264" r="4.4291" stroke-width="0.0" /><circle cx="11.2713" cy="40.3264" r="4.4291" stroke-width="0.0" /><circle cx="50.602" cy="93.476" r="4.4291" stroke-width="0.0" /><circle cx="31.8224" cy="93.476" r="4.4291" stroke-width="0.0" /><circle cx="11.2713" cy="93.476" r="4.4291" stroke-width="0.0" /><circle cx="50.602" cy="270.6413" r="4.4291" stroke-width="0.0" /><circle cx="31.8224" cy="270.6413" r="4.4291" stroke-width="0.0" /><circle cx="11.2713" cy="270.6413" r="4.4291" stroke-width="0.0" /><circle cx="50.602" cy="323.7909" r="4.4291" stroke-width="0.0" /><circle cx="31.8224" cy="323.7909" r="4.4291" stroke-width="0.0" /><circle cx="11.2713" cy="323.7909" r="4.4291" stroke-width="0.0" /></g><g id="rulers" stroke="black" /></svg>