<?xml version='1.0' encoding='UTF-8' standalone='no'?>
<svg xmlns="http://www.w3.org/2000/svg" width="872" height="330" x="0" y="0"><text x="101" y="30" font-size="10" font-family="sans serif" text-anchor="start" alignment-baseline="hanging">J5</text><text x="533" y="55" font-size="10" font-family="sans-serif" text-anchor="end" alignment-baseline="hanging">J1</text><text x="36" y="240" font-size="10" font-family="sans serif" text-anchor="start" alignment-baseline="hanging">Eurorack power connector - 16 pin</text><text x="853" y="55" font-size="10" font-family="sans-serif" text-anchor="end" alignment-baseline="hanging">J2</text><text x="451" y="120" font-size="10" font-family="sans-serif" text-anchor="start" alignment-baseline="hanging">GND</text><text x="196" y="130" font-size="10" font-family="sans-serif" text-anchor="start" alignment-baseline="middle">CV</text><text x="746" y="30" font-size="10" font-family="sans-serif" text-anchor="end" alignment-baseline="middle">CV</text><text x="451" y="310" font-size="10" font-family="sans-serif" text-anchor="start" alignment-baseline="hanging">GND</text><text x="196" y="90" font-size="10" font-family="sans-serif" text-anchor="start" alignment-baseline="middle">GATE</text><text x="196" y="110" font-size="10" font-family="sans-serif" text-anchor="start" alignment-baseline="middle">CV</text><text x="853" y="235" font-size="10" font-family="sans-serif" text-anchor="end" alignment-baseline="hanging">J4</text><text x="533" y="245" font-size="10" font-family="sans-serif" text-anchor="end" alignment-baseline="hanging">35RAPC2AV</text><text x="853" y="65" font-size="10" font-family="sans-serif" text-anchor="end" alignment-baseline="hanging">35RAPC2AV</text><text x="11" y="310" font-size="10" font-family="sans-serif" text-anchor="start" alignment-baseline="hanging">GND</text><text x="771" y="310" font-size="10" font-family="sans-serif" text-anchor="start" alignment-baseline="hanging">GND</text><text x="533" y="65" font-size="10" font-family="sans-serif" text-anchor="end" alignment-baseline="hanging">35RAPC2AV</text><text x="427" y="210" font-size="10" font-family="sans-serif" text-anchor="end" alignment-baseline="middle">GATE</text><text x="533" y="235" font-size="10" font-family="sans-serif" text-anchor="end" alignment-baseline="hanging">J3</text><text x="426" y="30" font-size="10" font-family="sans-serif" text-anchor="end" alignment-baseline="middle">CV</text><text x="771" y="120" font-size="10" font-family="sans-serif" text-anchor="start" alignment-baseline="hanging">GND</text><text x="853" y="245" font-size="10" font-family="sans-serif" text-anchor="end" alignment-baseline="hanging">35RAPC2AV</text><text x="195" y="70" font-size="10" font-family="sans-serif" text-anchor="start" alignment-baseline="middle">GATE</text><text x="746" y="210" font-size="10" font-family="sans-serif" text-anchor="end" alignment-baseline="middle">GATE</text><line x1="158" y1="207" x2="164" y2="213" stroke-width="2" stroke="black"></line><line x1="158" y1="213" x2="164" y2="207" stroke-width="2" stroke="black"></line><line x1="176" y1="90" x2="171" y2="90" stroke-width="2" stroke="black"></line><line x1="191" y1="90" x2="186" y2="93" stroke-width="2" stroke="black"></line><line x1="191" y1="90" x2="186" y2="87" stroke-width="2" stroke="black"></line><line x1="186" y1="93" x2="181" y2="93" stroke-width="2" stroke="black"></line><line x1="186" y1="87" x2="181" y2="87" stroke-width="2" stroke="black"></line><line x1="181" y1="93" x2="176" y2="90" stroke-width="2" stroke="black"></line><line x1="181" y1="87" x2="176" y2="90" stroke-width="2" stroke="black"></line><line x1="468" y1="37" x2="474" y2="43" stroke-width="2" stroke="black"></line><line x1="468" y1="43" x2="474" y2="37" stroke-width="2" stroke="black"></line><line x1="176" y1="130" x2="171" y2="130" stroke-width="2" stroke="black"></line><line x1="191" y1="130" x2="186" y2="133" stroke-width="2" stroke="black"></line><line x1="191" y1="130" x2="186" y2="127" stroke-width="2" stroke="black"></line><line x1="186" y1="133" x2="181" y2="133" stroke-width="2" stroke="black"></line><line x1="186" y1="127" x2="181" y2="127" stroke-width="2" stroke="black"></line><line x1="181" y1="133" x2="176" y2="130" stroke-width="2" stroke="black"></line><line x1="181" y1="127" x2="176" y2="130" stroke-width="2" stroke="black"></line><line x1="468" y1="217" x2="474" y2="223" stroke-width="2" stroke="black"></line><line x1="468" y1="223" x2="474" y2="217" stroke-width="2" stroke="black"></line><line x1="446" y1="30" x2="451" y2="30" stroke-width="2" stroke="black"></line><line x1="431" y1="30" x2="436" y2="27" stroke-width="2" stroke="black"></line><line x1="431" y1="30" x2="436" y2="33" stroke-width="2" stroke="black"></line><line x1="436" y1="27" x2="441" y2="27" stroke-width="2" stroke="black"></line><line x1="436" y1="33" x2="441" y2="33" stroke-width="2" stroke="black"></line><line x1="441" y1="27" x2="446" y2="30" stroke-width="2" stroke="black"></line><line x1="441" y1="33" x2="446" y2="30" stroke-width="2" stroke="black"></line><line x1="176" y1="70" x2="171" y2="70" stroke-width="2" stroke="black"></line><line x1="191" y1="70" x2="186" y2="73" stroke-width="2" stroke="black"></line><line x1="191" y1="70" x2="186" y2="67" stroke-width="2" stroke="black"></line><line x1="186" y1="73" x2="181" y2="73" stroke-width="2" stroke="black"></line><line x1="186" y1="67" x2="181" y2="67" stroke-width="2" stroke="black"></line><line x1="181" y1="73" x2="176" y2="70" stroke-width="2" stroke="black"></line><line x1="181" y1="67" x2="176" y2="70" stroke-width="2" stroke="black"></line><line x1="158" y1="167" x2="164" y2="173" stroke-width="2" stroke="black"></line><line x1="158" y1="173" x2="164" y2="167" stroke-width="2" stroke="black"></line><line x1="766" y1="30" x2="771" y2="30" stroke-width="2" stroke="black"></line><line x1="751" y1="30" x2="756" y2="27" stroke-width="2" stroke="black"></line><line x1="751" y1="30" x2="756" y2="33" stroke-width="2" stroke="black"></line><line x1="756" y1="27" x2="761" y2="27" stroke-width="2" stroke="black"></line><line x1="756" y1="33" x2="761" y2="33" stroke-width="2" stroke="black"></line><line x1="761" y1="27" x2="766" y2="30" stroke-width="2" stroke="black"></line><line x1="761" y1="33" x2="766" y2="30" stroke-width="2" stroke="black"></line><line x1="461" y1="90" x2="461" y2="100" stroke-width="2" stroke="black"></line><line x1="451" y1="100" x2="471" y2="100" stroke-width="2" stroke="black"></line><line x1="454" y1="105" x2="468" y2="105" stroke-width="2" stroke="black"></line><line x1="457" y1="110" x2="465" y2="110" stroke-width="2" stroke="black"></line><line x1="788" y1="37" x2="794" y2="43" stroke-width="2" stroke="black"></line><line x1="788" y1="43" x2="794" y2="37" stroke-width="2" stroke="black"></line><line x1="48" y1="87" x2="54" y2="93" stroke-width="2" stroke="black"></line><line x1="48" y1="93" x2="54" y2="87" stroke-width="2" stroke="black"></line><line x1="781" y1="90" x2="781" y2="100" stroke-width="2" stroke="black"></line><line x1="771" y1="100" x2="791" y2="100" stroke-width="2" stroke="black"></line><line x1="774" y1="105" x2="788" y2="105" stroke-width="2" stroke="black"></line><line x1="777" y1="110" x2="785" y2="110" stroke-width="2" stroke="black"></line><line x1="536" y1="11" x2="536" y2="50" stroke-width="2" stroke="black"></line><line x1="536" y1="50" x2="481" y2="50" stroke-width="2" stroke="black"></line><line x1="536" y1="15" x2="541" y2="15" stroke-width="2" stroke="black"></line><line x1="541" y1="15" x2="541" y2="45" stroke-width="2" stroke="black"></line><line x1="541" y1="45" x2="536" y2="45" stroke-width="2" stroke="black"></line><line x1="512" y1="30" x2="509" y2="35" stroke-width="2" stroke="black"></line><line x1="509" y1="35" x2="506" y2="30" stroke-width="2" stroke="black"></line><line x1="506" y1="30" x2="481" y2="30" stroke-width="2" stroke="black"></line><line x1="493" y1="37" x2="496" y2="35" stroke-width="2" stroke="black"></line><line x1="496" y1="35" x2="496" y2="40" stroke-width="2" stroke="black"></line><line x1="496" y1="40" x2="481" y2="40" stroke-width="2" stroke="black"></line><line x1="499" y1="37" x2="496" y2="35" stroke-width="2" stroke="black"></line><line x1="446" y1="210" x2="451" y2="210" stroke-width="2" stroke="black"></line><line x1="431" y1="210" x2="436" y2="207" stroke-width="2" stroke="black"></line><line x1="431" y1="210" x2="436" y2="213" stroke-width="2" stroke="black"></line><line x1="436" y1="207" x2="441" y2="207" stroke-width="2" stroke="black"></line><line x1="436" y1="213" x2="441" y2="213" stroke-width="2" stroke="black"></line><line x1="441" y1="207" x2="446" y2="210" stroke-width="2" stroke="black"></line><line x1="441" y1="213" x2="446" y2="210" stroke-width="2" stroke="black"></line><line x1="766" y1="210" x2="771" y2="210" stroke-width="2" stroke="black"></line><line x1="751" y1="210" x2="756" y2="207" stroke-width="2" stroke="black"></line><line x1="751" y1="210" x2="756" y2="213" stroke-width="2" stroke="black"></line><line x1="756" y1="207" x2="761" y2="207" stroke-width="2" stroke="black"></line><line x1="756" y1="213" x2="761" y2="213" stroke-width="2" stroke="black"></line><line x1="761" y1="207" x2="766" y2="210" stroke-width="2" stroke="black"></line><line x1="761" y1="213" x2="766" y2="210" stroke-width="2" stroke="black"></line><line x1="781" y1="280" x2="781" y2="290" stroke-width="2" stroke="black"></line><line x1="771" y1="290" x2="791" y2="290" stroke-width="2" stroke="black"></line><line x1="774" y1="295" x2="788" y2="295" stroke-width="2" stroke="black"></line><line x1="777" y1="300" x2="785" y2="300" stroke-width="2" stroke="black"></line><line x1="461" y1="280" x2="461" y2="290" stroke-width="2" stroke="black"></line><line x1="451" y1="290" x2="471" y2="290" stroke-width="2" stroke="black"></line><line x1="454" y1="295" x2="468" y2="295" stroke-width="2" stroke="black"></line><line x1="457" y1="300" x2="465" y2="300" stroke-width="2" stroke="black"></line><line x1="176" y1="110" x2="171" y2="110" stroke-width="2" stroke="black"></line><line x1="191" y1="110" x2="186" y2="113" stroke-width="2" stroke="black"></line><line x1="191" y1="110" x2="186" y2="107" stroke-width="2" stroke="black"></line><line x1="186" y1="113" x2="181" y2="113" stroke-width="2" stroke="black"></line><line x1="186" y1="107" x2="181" y2="107" stroke-width="2" stroke="black"></line><line x1="181" y1="113" x2="176" y2="110" stroke-width="2" stroke="black"></line><line x1="181" y1="107" x2="176" y2="110" stroke-width="2" stroke="black"></line><line x1="158" y1="187" x2="164" y2="193" stroke-width="2" stroke="black"></line><line x1="158" y1="193" x2="164" y2="187" stroke-width="2" stroke="black"></line><line x1="21" y1="280" x2="21" y2="290" stroke-width="2" stroke="black"></line><line x1="11" y1="290" x2="31" y2="290" stroke-width="2" stroke="black"></line><line x1="14" y1="295" x2="28" y2="295" stroke-width="2" stroke="black"></line><line x1="17" y1="300" x2="25" y2="300" stroke-width="2" stroke="black"></line><line x1="856" y1="191" x2="856" y2="230" stroke-width="2" stroke="black"></line><line x1="856" y1="230" x2="801" y2="230" stroke-width="2" stroke="black"></line><line x1="856" y1="195" x2="861" y2="195" stroke-width="2" stroke="black"></line><line x1="861" y1="195" x2="861" y2="225" stroke-width="2" stroke="black"></line><line x1="861" y1="225" x2="856" y2="225" stroke-width="2" stroke="black"></line><line x1="832" y1="210" x2="829" y2="215" stroke-width="2" stroke="black"></line><line x1="829" y1="215" x2="826" y2="210" stroke-width="2" stroke="black"></line><line x1="826" y1="210" x2="801" y2="210" stroke-width="2" stroke="black"></line><line x1="813" y1="217" x2="816" y2="215" stroke-width="2" stroke="black"></line><line x1="816" y1="215" x2="816" y2="220" stroke-width="2" stroke="black"></line><line x1="816" y1="220" x2="801" y2="220" stroke-width="2" stroke="black"></line><line x1="819" y1="217" x2="816" y2="215" stroke-width="2" stroke="black"></line><line x1="158" y1="147" x2="164" y2="153" stroke-width="2" stroke="black"></line><line x1="158" y1="153" x2="164" y2="147" stroke-width="2" stroke="black"></line><line x1="788" y1="217" x2="794" y2="223" stroke-width="2" stroke="black"></line><line x1="788" y1="223" x2="794" y2="217" stroke-width="2" stroke="black"></line><line x1="856" y1="11" x2="856" y2="50" stroke-width="2" stroke="black"></line><line x1="856" y1="50" x2="801" y2="50" stroke-width="2" stroke="black"></line><line x1="856" y1="15" x2="861" y2="15" stroke-width="2" stroke="black"></line><line x1="861" y1="15" x2="861" y2="45" stroke-width="2" stroke="black"></line><line x1="861" y1="45" x2="856" y2="45" stroke-width="2" stroke="black"></line><line x1="832" y1="30" x2="829" y2="35" stroke-width="2" stroke="black"></line><line x1="829" y1="35" x2="826" y2="30" stroke-width="2" stroke="black"></line><line x1="826" y1="30" x2="801" y2="30" stroke-width="2" stroke="black"></line><line x1="813" y1="37" x2="816" y2="35" stroke-width="2" stroke="black"></line><line x1="816" y1="35" x2="816" y2="40" stroke-width="2" stroke="black"></line><line x1="816" y1="40" x2="801" y2="40" stroke-width="2" stroke="black"></line><line x1="819" y1="37" x2="816" y2="35" stroke-width="2" stroke="black"></line><line x1="48" y1="67" x2="54" y2="73" stroke-width="2" stroke="black"></line><line x1="48" y1="73" x2="54" y2="67" stroke-width="2" stroke="black"></line><line x1="536" y1="191" x2="536" y2="230" stroke-width="2" stroke="black"></line><line x1="536" y1="230" x2="481" y2="230" stroke-width="2" stroke="black"></line><line x1="536" y1="195" x2="541" y2="195" stroke-width="2" stroke="black"></line><line x1="541" y1="195" x2="541" y2="225" stroke-width="2" stroke="black"></line><line x1="541" y1="225" x2="536" y2="225" stroke-width="2" stroke="black"></line><line x1="512" y1="210" x2="509" y2="215" stroke-width="2" stroke="black"></line><line x1="509" y1="215" x2="506" y2="210" stroke-width="2" stroke="black"></line><line x1="506" y1="210" x2="481" y2="210" stroke-width="2" stroke="black"></line><line x1="493" y1="217" x2="496" y2="215" stroke-width="2" stroke="black"></line><line x1="496" y1="215" x2="496" y2="220" stroke-width="2" stroke="black"></line><line x1="496" y1="220" x2="481" y2="220" stroke-width="2" stroke="black"></line><line x1="499" y1="217" x2="496" y2="215" stroke-width="2" stroke="black"></line><rect width="70" height="170" x="76" y="55" style="stroke: #000; stroke-width: 1; fill: none;"></rect><line x1="146" y1="70" x2="151" y2="70" stroke-width="2" stroke="black"></line><line x1="146" y1="90" x2="151" y2="90" stroke-width="2" stroke="black"></line><line x1="146" y1="110" x2="151" y2="110" stroke-width="2" stroke="black"></line><line x1="146" y1="130" x2="151" y2="130" stroke-width="2" stroke="black"></line><line x1="146" y1="150" x2="151" y2="150" stroke-width="2" stroke="black"></line><line x1="146" y1="170" x2="151" y2="170" stroke-width="2" stroke="black"></line><line x1="146" y1="190" x2="151" y2="190" stroke-width="2" stroke="black"></line><line x1="146" y1="210" x2="151" y2="210" stroke-width="2" stroke="black"></line><line x1="71" y1="70" x2="76" y2="70" stroke-width="2" stroke="black"></line><line x1="71" y1="90" x2="76" y2="90" stroke-width="2" stroke="black"></line><line x1="71" y1="110" x2="76" y2="110" stroke-width="2" stroke="black"></line><line x1="71" y1="130" x2="76" y2="130" stroke-width="2" stroke="black"></line><line x1="71" y1="150" x2="76" y2="150" stroke-width="2" stroke="black"></line><line x1="71" y1="170" x2="76" y2="170" stroke-width="2" stroke="black"></line><line x1="71" y1="190" x2="76" y2="190" stroke-width="2" stroke="black"></line><line x1="71" y1="210" x2="76" y2="210" stroke-width="2" stroke="black"></line><text x="83" y="70" font-size="10" font-family="sans-serif" text-anchor="start" alignment-baseline="middle">-12v</text><text x="83" y="90" font-size="10" font-family="sans-serif" text-anchor="start" alignment-baseline="middle">-12v</text><text x="83" y="110" font-size="10" font-family="sans-serif" text-anchor="start" alignment-baseline="middle">GND</text><text x="83" y="130" font-size="10" font-family="sans-serif" text-anchor="start" alignment-baseline="middle">GND</text><text x="83" y="150" font-size="10" font-family="sans-serif" text-anchor="start" alignment-baseline="middle">GND</text><text x="83" y="170" font-size="10" font-family="sans-serif" text-anchor="start" alignment-baseline="middle">GND</text><text x="83" y="190" font-size="10" font-family="sans-serif" text-anchor="start" alignment-baseline="middle">GND</text><text x="83" y="210" font-size="10" font-family="sans-serif" text-anchor="start" alignment-baseline="middle">GND</text><text x="139" y="210" font-size="10" font-family="sans-serif" text-anchor="end" alignment-baseline="middle">+12v</text><text x="139" y="190" font-size="10" font-family="sans-serif" text-anchor="end" alignment-baseline="middle">+12v</text><text x="139" y="170" font-size="10" font-family="sans-serif" text-anchor="end" alignment-baseline="middle">+5v</text><text x="139" y="150" font-size="10" font-family="sans-serif" text-anchor="end" alignment-baseline="middle">+5v</text><text x="139" y="130" font-size="10" font-family="sans-serif" text-anchor="end" alignment-baseline="middle">CV</text><text x="139" y="110" font-size="10" font-family="sans-serif" text-anchor="end" alignment-baseline="middle">CV</text><text x="139" y="90" font-size="10" font-family="sans-serif" text-anchor="end" alignment-baseline="middle">Gate</text><text x="139" y="70" font-size="10" font-family="sans-serif" text-anchor="end" alignment-baseline="middle">Gate</text><circle cx="21" cy="170" r="2" style="stroke: #000; stroke-width: 1; fill: none;"></circle><circle cx="21" cy="210" r="2" style="stroke: #000; stroke-width: 1; fill: none;"></circle><circle cx="21" cy="150" r="2" style="stroke: #000; stroke-width: 1; fill: none;"></circle><circle cx="21" cy="190" r="2" style="stroke: #000; stroke-width: 1; fill: none;"></circle><circle cx="21" cy="130" r="2" style="stroke: #000; stroke-width: 1; fill: none;"></circle><line x1="461" y1="280" x2="461" y2="230" stroke-width="2" stroke="black"></line><line x1="151" y1="110" x2="171" y2="110" stroke-width="2" stroke="black"></line><line x1="51" y1="90" x2="71" y2="90" stroke-width="2" stroke="black"></line><line x1="151" y1="150" x2="161" y2="150" stroke-width="2" stroke="black"></line><line x1="161" y1="210" x2="151" y2="210" stroke-width="2" stroke="black"></line><line x1="481" y1="220" x2="471" y2="220" stroke-width="2" stroke="black"></line><line x1="161" y1="90" x2="171" y2="90" stroke-width="2" stroke="black"></line><line x1="161" y1="90" x2="151" y2="90" stroke-width="2" stroke="black"></line><line x1="781" y1="50" x2="781" y2="90" stroke-width="2" stroke="black"></line><line x1="21" y1="210" x2="21" y2="280" stroke-width="2" stroke="black"></line><line x1="21" y1="210" x2="71" y2="210" stroke-width="2" stroke="black"></line><line x1="481" y1="230" x2="461" y2="230" stroke-width="2" stroke="black"></line><line x1="151" y1="190" x2="161" y2="190" stroke-width="2" stroke="black"></line><line x1="71" y1="170" x2="21" y2="170" stroke-width="2" stroke="black"></line><line x1="171" y1="130" x2="151" y2="130" stroke-width="2" stroke="black"></line><line x1="481" y1="30" x2="451" y2="30" stroke-width="2" stroke="black"></line><line x1="481" y1="210" x2="451" y2="210" stroke-width="2" stroke="black"></line><line x1="801" y1="210" x2="771" y2="210" stroke-width="2" stroke="black"></line><line x1="791" y1="220" x2="801" y2="220" stroke-width="2" stroke="black"></line><line x1="151" y1="70" x2="171" y2="70" stroke-width="2" stroke="black"></line><line x1="161" y1="170" x2="151" y2="170" stroke-width="2" stroke="black"></line><line x1="21" y1="110" x2="71" y2="110" stroke-width="2" stroke="black"></line><line x1="21" y1="150" x2="71" y2="150" stroke-width="2" stroke="black"></line><line x1="21" y1="150" x2="21" y2="170" stroke-width="2" stroke="black"></line><line x1="481" y1="40" x2="471" y2="40" stroke-width="2" stroke="black"></line><line x1="461" y1="50" x2="481" y2="50" stroke-width="2" stroke="black"></line><line x1="461" y1="50" x2="461" y2="90" stroke-width="2" stroke="black"></line><line x1="771" y1="30" x2="801" y2="30" stroke-width="2" stroke="black"></line><line x1="21" y1="190" x2="71" y2="190" stroke-width="2" stroke="black"></line><line x1="21" y1="190" x2="21" y2="210" stroke-width="2" stroke="black"></line><line x1="21" y1="190" x2="21" y2="170" stroke-width="2" stroke="black"></line><line x1="801" y1="50" x2="781" y2="50" stroke-width="2" stroke="black"></line><line x1="781" y1="230" x2="781" y2="280" stroke-width="2" stroke="black"></line><line x1="51" y1="70" x2="71" y2="70" stroke-width="2" stroke="black"></line><line x1="791" y1="40" x2="801" y2="40" stroke-width="2" stroke="black"></line><line x1="21" y1="130" x2="71" y2="130" stroke-width="2" stroke="black"></line><line x1="21" y1="130" x2="21" y2="150" stroke-width="2" stroke="black"></line><line x1="21" y1="130" x2="21" y2="110" stroke-width="2" stroke="black"></line><line x1="801" y1="230" x2="781" y2="230" stroke-width="2" stroke="black"></line></svg>