<?xml version="1.0" encoding="UTF-8" standalone="no"?>
<svg
   xmlns:dc="http://purl.org/dc/elements/1.1/"
   xmlns:cc="http://creativecommons.org/ns#"
   xmlns:rdf="http://www.w3.org/1999/02/22-rdf-syntax-ns#"
   xmlns:svg="http://www.w3.org/2000/svg"
   xmlns="http://www.w3.org/2000/svg"
   xmlns:sodipodi="http://sodipodi.sourceforge.net/DTD/sodipodi-0.dtd"
   xmlns:inkscape="http://www.inkscape.org/namespaces/inkscape"
   width="210mm"
   height="297mm"
   viewBox="0 -129 210 297"
   version="1.1"
   id="svg849"
   sodipodi:docname="eurorack-cv-gate-breakout-module-panel-with-labels.svg"
   inkscape:version="1.0 (4035a4fb49, 2020-05-01)">
  <metadata
     id="metadata855">
    <rdf:RDF>
      <cc:Work
         rdf:about="">
        <dc:format>image/svg+xml</dc:format>
        <dc:type
           rdf:resource="http://purl.org/dc/dcmitype/StillImage" />
        <dc:title>OpenSCAD Model</dc:title>
      </cc:Work>
    </rdf:RDF>
  </metadata>
  <defs
     id="defs853" />
  <sodipodi:namedview
     inkscape:document-rotation="0"
     pagecolor="#ffffff"
     bordercolor="#666666"
     borderopacity="1"
     objecttolerance="10"
     gridtolerance="10"
     guidetolerance="10"
     inkscape:pageopacity="0"
     inkscape:pageshadow="2"
     inkscape:window-width="1920"
     inkscape:window-height="1027"
     id="namedview851"
     showgrid="false"
     inkscape:zoom="2.083933"
     inkscape:cx="52.610012"
     inkscape:cy="209.75762"
     inkscape:window-x="1912"
     inkscape:window-y="-8"
     inkscape:window-maximized="1"
     inkscape:current-layer="svg849"
     inkscape:document-units="mm"
     units="mm" />
  <title
     id="title845">OpenSCAD Model</title>
  <rect
     style="fill:#ff0000;fill-opacity:1;stroke:none;stroke-width:0.0489096"
     id="rect857"
     width="20"
     height="128.5"
     x="0"
     y="-129" />
  <circle
     style="fill:#000000;fill-opacity:1;stroke:none;stroke-width:0.0228066"
     id="path859"
     cx="7.5"
     cy="-126"
     r="1.6" />
  <circle
     r="1.6"
     cy="-3.5"
     cx="7.5"
     id="path859-7"
     style="fill:#000000;fill-opacity:1;stroke:none;stroke-width:0.0228066" />
  <circle
     style="fill:#000000;fill-opacity:1;stroke:none;stroke-width:0.0498894"
     id="path859-7-4"
     cx="13.35"
     cy="-24.75"
     r="3.5" />
  <circle
     r="3.5"
     cy="-39.75"
     cx="13.35"
     id="path859-7-4-2"
     style="fill:#000000;fill-opacity:1;stroke:none;stroke-width:0.0498894" />
  <circle
     style="fill:#000000;fill-opacity:1;stroke:none;stroke-width:0.0498894"
     id="path859-7-4-2-2"
     cx="13.35"
     cy="-104.75001"
     r="3.5" />
  <circle
     style="fill:#000000;fill-opacity:1;stroke:none;stroke-width:0.0498894"
     id="path859-7-4-2-1"
     cx="13.35"
     cy="-89.75"
     r="3.5" />
  <g
     style="font-style:normal;font-weight:normal;font-size:5.68403px;line-height:1.25;font-family:sans-serif;letter-spacing:0px;word-spacing:0px;fill:#0000ff;fill-opacity:1;stroke:none;stroke-width:0.142101"
     id="text929"
     aria-label="Gate">
    <path
       id="path882"
       style="fill:#0000ff;fill-opacity:1;stroke-width:0.142101"
       d="m 4.5640474,-30.372545 v -1.112937 H 3.6481636 V -31.9462 h 1.4709649 v 1.779035 q -0.3247225,0.230359 -0.7160546,0.349701 -0.3913322,0.116567 -0.835397,0.116567 -0.9713919,0 -1.5209221,-0.566182 -0.5467549,-0.568959 -0.5467549,-1.581981 0,-1.015799 0.5467549,-1.581981 Q 2.596285,-34 3.5676769,-34 q 0.4052092,0 0.7687873,0.09992 0.3663535,0.09991 0.6744234,0.294193 v 0.596712 q -0.3108453,-0.263663 -0.6605464,-0.396883 -0.3497011,-0.133219 -0.7354824,-0.133219 -0.7604611,0 -1.143467,0.424637 -0.3802305,0.424637 -0.3802305,1.265585 0,0.838172 0.3802305,1.262809 0.3830059,0.424637 1.143467,0.424637 0.2969683,0 0.5301024,-0.04996 0.233134,-0.05273 0.4190862,-0.160974 z" />
    <path
       id="path884"
       style="fill:#0000ff;fill-opacity:1;stroke-width:0.142101"
       d="m 7.5365062,-31.343937 q -0.6189153,0 -0.8576002,0.141546 -0.2386849,0.141546 -0.2386849,0.48292 0,0.27199 0.177626,0.432964 0.1804013,0.158198 0.4884713,0.158198 0.424637,0 0.6799743,-0.299744 0.2581127,-0.302519 0.2581127,-0.802092 v -0.113792 z M 8.55508,-31.554868 v 1.773484 H 8.0444054 v -0.471818 q -0.1748505,0.283091 -0.4357386,0.419086 -0.2608881,0.133219 -0.6383432,0.133219 -0.4773698,0 -0.7604611,-0.266439 -0.2803159,-0.269214 -0.2803159,-0.71883 0,-0.524551 0.349701,-0.79099 0.3524765,-0.266439 1.0491032,-0.266439 h 0.7160546 v -0.04996 q 0,-0.352477 -0.233134,-0.54398 -0.2303587,-0.194278 -0.6494449,-0.194278 -0.2664389,0 -0.5190008,0.06383 -0.2525618,0.06383 -0.4856959,0.191503 v -0.471819 q 0.2803159,-0.108241 0.5439794,-0.160973 0.2636635,-0.05551 0.51345,-0.05551 0.6744235,0 1.0074722,0.349701 0.3330486,0.349701 0.3330486,1.060204 z" />
    <path
       id="path886"
       style="fill:#0000ff;fill-opacity:1;stroke-width:0.142101"
       d="m 10.114858,-33.772416 v 0.882579 h 1.051878 v 0.396883 h -1.051878 v 1.687446 q 0,0.38023 0.10269,0.488471 0.105465,0.108241 0.424637,0.108241 h 0.524551 v 0.427412 h -0.524551 q -0.591162,0 -0.8159695,-0.219257 -0.2248078,-0.222032 -0.2248078,-0.804867 v -1.687446 H 9.226728 v -0.396883 h 0.3746797 v -0.882579 z" />
    <path
       id="path888"
       style="fill:#0000ff;fill-opacity:1;stroke-width:0.142101"
       d="m 14.499997,-31.463279 v 0.249786 h -2.347992 q 0.0333,0.527327 0.316396,0.804868 0.285867,0.274765 0.793766,0.274765 0.294193,0 0.568958,-0.07216 0.27754,-0.07216 0.54953,-0.216481 v 0.48292 q -0.274765,0.116567 -0.563407,0.177626 -0.288642,0.06106 -0.585611,0.06106 -0.743808,0 -1.179547,-0.432963 -0.432963,-0.432963 -0.432963,-1.171221 0,-0.763236 0.41076,-1.210077 0.413535,-0.449615 1.112937,-0.449615 0.627242,0 0.99082,0.405209 0.366353,0.402434 0.366353,1.096285 z m -0.510674,-0.149872 q -0.0056,-0.419086 -0.23591,-0.668873 -0.227583,-0.249786 -0.605038,-0.249786 -0.427412,0 -0.685525,0.24146 -0.255337,0.24146 -0.294193,0.679974 z" />
  </g>
  <g
     style="font-style:normal;font-weight:normal;font-size:5.68402px;line-height:1.25;font-family:sans-serif;letter-spacing:0px;word-spacing:0px;fill:#0000ff;fill-opacity:1;stroke:none;stroke-width:0.142101"
     id="text929-8"
     aria-label="Gate">
    <path
       id="path873"
       style="fill:#0000ff;fill-opacity:1;stroke-width:0.142101"
       d="m 4.564042,-45.372551 v -1.112936 H 3.6481599 v -0.460716 h 1.4709622 v 1.779031 q -0.3247218,0.230358 -0.7160533,0.349701 -0.3913315,0.116566 -0.8353955,0.116566 -0.9713902,0 -1.5209194,-0.566181 Q 1.5,-45.836043 1.5,-46.849064 1.5,-47.864861 2.0467539,-48.431043 2.5962831,-49 3.5676733,-49 q 0.4052084,0 0.7687859,0.09992 0.3663529,0.09991 0.6744223,0.294192 v 0.596711 q -0.3108448,-0.263663 -0.6605453,-0.396882 -0.3497005,-0.133219 -0.7354811,-0.133219 -0.7604597,0 -1.143465,0.424636 -0.3802298,0.424636 -0.3802298,1.265583 0,0.83817 0.3802298,1.262807 0.3830053,0.424636 1.143465,0.424636 0.2969678,0 0.5301015,-0.04996 0.2331336,-0.05273 0.4190854,-0.160973 z" />
    <path
       id="path875"
       style="fill:#0000ff;fill-opacity:1;stroke-width:0.142101"
       d="m 7.5364958,-46.343942 q -0.6189143,0 -0.8575988,0.141546 -0.2386844,0.141545 -0.2386844,0.48292 0,0.271989 0.1776256,0.432962 0.1804011,0.158198 0.4884705,0.158198 0.4246363,0 0.6799731,-0.299743 0.2581123,-0.302519 0.2581123,-0.802091 v -0.113792 z m 1.0185719,-0.21093 v 1.773481 H 8.0443941 v -0.471818 q -0.1748503,0.283091 -0.4357379,0.419085 -0.2608877,0.133219 -0.6383421,0.133219 -0.4773689,0 -0.7604597,-0.266438 -0.2803155,-0.269214 -0.2803155,-0.718829 0,-0.52455 0.3497005,-0.790989 0.3524758,-0.266438 1.0491013,-0.266438 h 0.7160534 v -0.04996 q 0,-0.352476 -0.2331337,-0.543979 -0.2303582,-0.194278 -0.6494437,-0.194278 -0.2664384,0 -0.5189999,0.06383 -0.2525614,0.06383 -0.485695,0.191503 v -0.471818 q 0.2803154,-0.108241 0.5439785,-0.160973 0.263663,-0.05551 0.513449,-0.05551 0.6744223,0 1.0074704,0.3497 0.333048,0.3497 0.333048,1.060203 z" />
    <path
       id="path877"
       style="fill:#0000ff;fill-opacity:1;stroke-width:0.142101"
       d="m 10.114843,-48.772417 v 0.882577 h 1.051877 v 0.396883 h -1.051877 v 1.687443 q 0,0.38023 0.10269,0.488471 0.105465,0.10824 0.424636,0.10824 h 0.524551 v 0.427412 h -0.524551 q -0.59116,0 -0.8159675,-0.219257 Q 9.601394,-45.22268 9.601394,-45.805514 v -1.687443 H 9.226715 v -0.396883 h 0.374679 v -0.882577 z" />
    <path
       id="path879"
       style="fill:#0000ff;fill-opacity:1;stroke-width:0.142101"
       d="m 14.499975,-46.463284 v 0.249786 h -2.347988 q 0.0333,0.527326 0.316395,0.804866 0.285866,0.274765 0.793765,0.274765 0.294192,0 0.568957,-0.07216 0.27754,-0.07216 0.549529,-0.216482 v 0.48292 q -0.274765,0.116567 -0.563406,0.177626 -0.288642,0.06106 -0.58561,0.06106 -0.743807,0 -1.179545,-0.432962 -0.432962,-0.432962 -0.432962,-1.171219 0,-0.763235 0.410759,-1.210075 0.413535,-0.449614 1.112935,-0.449614 0.627241,0 0.990818,0.405208 0.366353,0.402433 0.366353,1.096283 z m -0.510673,-0.149871 q -0.0056,-0.419086 -0.235909,-0.668872 -0.227583,-0.249786 -0.605038,-0.249786 -0.427411,0 -0.685524,0.24146 -0.255336,0.24146 -0.294192,0.679973 z" />
  </g>
  <g
     style="font-style:normal;font-weight:normal;font-size:5.68402px;line-height:1.25;font-family:sans-serif;letter-spacing:0px;word-spacing:0px;fill:#0000ff;fill-opacity:1;stroke:none;stroke-width:0.142101"
     id="text929-8-4"
     aria-label="CV">
    <path
       id="path896"
       style="fill:#0000ff;fill-opacity:1;stroke-width:0.142101"
       d="m 4.8415821,-113.60589 v 0.59116 q -0.2830909,-0.26366 -0.6050373,-0.39411 -0.3191711,-0.13044 -0.6799731,-0.13044 -0.7105025,0 -1.087957,0.43574 -0.3774544,0.43296 -0.3774544,1.25448 0,0.81874 0.3774544,1.25448 0.3774545,0.43296 1.087957,0.43296 0.360802,0 0.6799731,-0.13044 0.3219464,-0.13044 0.6050373,-0.39411 v 0.58561 q -0.2941925,0.19983 -0.6244651,0.29974 -0.3274973,0.0999 -0.6938501,0.0999 -0.9408608,0 -1.4820638,-0.57451 Q 1.5,-110.85269 1.5,-111.84906 q 0,-0.99914 0.5412031,-1.57365 Q 2.5824061,-114 3.5232669,-114 q 0.3719036,0 0.6994009,0.0999 0.3302726,0.0971 0.6189143,0.29419 z" />
    <path
       id="path898"
       style="fill:#0000ff;fill-opacity:1;stroke-width:0.142101"
       d="m 6.7815869,-109.78139 -1.5819782,-4.14367 h 0.5856095 l 1.3127644,3.48868 1.3155398,-3.48868 h 0.582834 l -1.5792028,4.14367 z" />
  </g>
  <g
     style="font-style:normal;font-weight:normal;font-size:5.68402px;line-height:1.25;font-family:sans-serif;letter-spacing:0px;word-spacing:0px;fill:#0000ff;fill-opacity:1;stroke:none;stroke-width:0.142101"
     id="text929-8-4-4"
     aria-label="CV">
    <path
       id="path891"
       style="fill:#0000ff;fill-opacity:1;stroke-width:0.142101"
       d="m 4.8415821,-98.605897 v 0.591161 q -0.2830909,-0.263663 -0.6050373,-0.394107 -0.3191711,-0.130444 -0.6799731,-0.130444 -0.7105025,0 -1.087957,0.435738 -0.3774544,0.432962 -0.3774544,1.254481 0,0.818743 0.3774544,1.254481 0.3774545,0.432962 1.087957,0.432962 0.360802,0 0.6799731,-0.130444 0.3219464,-0.130443 0.6050373,-0.394106 v 0.585609 q -0.2941925,0.199829 -0.6244651,0.299743 -0.3274973,0.09991 -0.6938501,0.09991 -0.9408608,0 -1.4820638,-0.574508 Q 1.5,-95.8527 1.5,-96.849068 q 0,-0.999144 0.5412031,-1.573652 0.541203,-0.577284 1.4820638,-0.577284 0.3719036,0 0.6994009,0.09992 0.3302726,0.09714 0.6189143,0.294192 z" />
    <path
       id="path893"
       style="fill:#0000ff;fill-opacity:1;stroke-width:0.142101"
       d="m 6.7815869,-94.781395 -1.5819782,-4.143673 h 0.5856095 l 1.3127644,3.488679 1.3155398,-3.488679 h 0.582834 l -1.5792028,4.143673 z" />
  </g>
</svg>
